<?xml version="1.0" encoding="UTF-8" standalone="no"?>
<!-- Created with Inkscape (http://www.inkscape.org/) -->

<svg
   xmlns:dc="http://purl.org/dc/elements/1.1/"
   xmlns:cc="http://creativecommons.org/ns#"
   xmlns:rdf="http://www.w3.org/1999/02/22-rdf-syntax-ns#"
   xmlns:svg="http://www.w3.org/2000/svg"
   xmlns="http://www.w3.org/2000/svg"
   xmlns:sodipodi="http://sodipodi.sourceforge.net/DTD/sodipodi-0.dtd"
   xmlns:inkscape="http://www.inkscape.org/namespaces/inkscape"
   viewBox="0 0 184 101"
   inkscape:version="0.91pre0 r13343"
   version="1.1"
   id="svg6284"
   height="101"
   width="184"
   inkscape:export-ydpi="90"
   inkscape:export-xdpi="90"
   inkscape:export-filename="/home/rlerch/Source/fedoramagazine-images/images/lightgrey-triangles/lightgrey-triangles.png"
   sodipodi:docname="lightgrey-triangles.svg">
  <sodipodi:namedview
     id="base"
     pagecolor="#ffffff"
     bordercolor="#666666"
     borderopacity="1.0"
     inkscape:pageopacity="0.0"
     inkscape:pageshadow="2"
     inkscape:zoom="1"
     inkscape:cx="-265.09842"
     inkscape:cy="-13.38689"
     inkscape:document-units="px"
     inkscape:current-layer="svg6284"
     showgrid="false"
     inkscape:window-width="1920"
     inkscape:window-height="1140"
     inkscape:window-x="1920"
     inkscape:window-y="27"
     inkscape:window-maximized="1"
     borderlayer="true" />
  <defs
     id="defs6286" />
  <metadata
     id="metadata6289">
    <rdf:RDF>
      <cc:Work
         rdf:about="">
        <dc:format>image/svg+xml</dc:format>
        <dc:type
           rdf:resource="http://purl.org/dc/dcmitype/StillImage" />
        <dc:title></dc:title>
      </cc:Work>
    </rdf:RDF>
  </metadata>
  <g
     transform="translate(0,-951.3622)"
     id="layer1"
     inkscape:groupmode="layer"
     inkscape:label="Layer 1" />
  <g
     transform="matrix(1.0847757,0,0,1.0847757,-5.76469,-1036.3988)"
     id="g7356">
    <path
       inkscape:connector-curvature="0"
       d="m 83.085044,958.67053 44.951786,-6.81848 -90.156108,-0.50507 z"
       style="fill:#cfdef3;stroke:none;stroke-width:1"
       id="path7112" />
    <path
       inkscape:connector-curvature="0"
       d="m 128.03683,951.85205 33.58757,7.57611 22.4759,-7.07104 z"
       style="fill:#d2e0f4;stroke:none;stroke-width:1"
       id="path7114" />
    <path
       inkscape:connector-curvature="0"
       d="m 83.085044,958.67053 29.294426,7.07105 15.65736,-13.88953 z"
       style="fill:#c5d7f0;stroke:none;stroke-width:1"
       id="path7116" />
    <path
       inkscape:connector-curvature="0"
       d="M 54.295701,971.04492 83.085044,958.67053 37.880722,951.34698 Z"
       style="fill:#c2d5f0;stroke:none;stroke-width:1"
       id="path7118" />
    <path
       inkscape:connector-curvature="0"
       d="m 128.03683,951.85205 19.44544,21.21314 14.14213,-13.63703 z"
       style="fill:#d0def3;stroke:none;stroke-width:1"
       id="path7120" />
    <path
       inkscape:connector-curvature="0"
       d="m 87.378197,974.83301 25.001273,-9.09143 -29.294426,-7.07105 z"
       style="fill:#c6d8f1;stroke:none;stroke-width:1"
       id="path7122" />
    <path
       inkscape:connector-curvature="0"
       d="m 125.76399,984.42944 2.27284,-32.57739 -15.65736,13.88953 z"
       style="fill:#bcd1ee;stroke:none;stroke-width:1"
       id="path7124" />
    <path
       inkscape:connector-curvature="0"
       d="M 0.5050765,951.59949 23.486045,984.68195 37.880722,951.34698 Z"
       style="fill:#d8e3f5;stroke:none;stroke-width:1"
       id="path7126" />
    <path
       inkscape:connector-curvature="0"
       d="m 125.76399,984.42944 21.71828,-11.36425 -19.44544,-21.21314 z"
       style="fill:#cadbf2;stroke:none;stroke-width:1"
       id="path7128" />
    <path
       inkscape:connector-curvature="0"
       d="m 54.295701,971.04492 33.082496,3.78809 -4.293153,-16.16248 z"
       style="fill:#cbdbf2;stroke:none;stroke-width:1"
       id="path7130" />
    <path
       inkscape:connector-curvature="0"
       d="M 23.486045,984.68195 54.295701,971.04492 37.880722,951.34698 Z"
       style="fill:#d2e0f4;stroke:none;stroke-width:1"
       id="path7132" />
    <path
       inkscape:connector-curvature="0"
       d="M -0.2525375,988.7226 23.486045,984.68195 0.5050765,951.59949 Z"
       style="fill:#ecf2fa;stroke:none;stroke-width:1"
       id="path7134" />
    <path
       inkscape:connector-curvature="0"
       d="m 161.6244,959.42816 22.98098,30.80969 -0.50508,-37.88073 z"
       style="fill:#d5e0f4;stroke:none;stroke-width:1"
       id="path7136" />
    <path
       inkscape:connector-curvature="0"
       d="m 164.1498,997.30889 -2.5254,-37.88073 -14.14213,13.63703 z"
       style="fill:#d5e2f4;stroke:none;stroke-width:1"
       id="path7138" />
    <path
       inkscape:connector-curvature="0"
       d="m 164.1498,997.30889 20.45558,-7.07104 -22.98098,-30.80969 z"
       style="fill:#c7d8f1;stroke:none;stroke-width:1"
       id="path7140" />
    <path
       inkscape:connector-curvature="0"
       d="M 60.356614,996.80377 87.378197,974.83301 54.295701,971.04492 Z"
       style="fill:#ccddf3;stroke:none;stroke-width:1"
       id="path7142" />
    <path
       inkscape:connector-curvature="0"
       d="m 112.37947,965.74158 -2.52538,36.61802 15.9099,-17.93016 z"
       style="fill:#b4cbec;stroke:none;stroke-width:1"
       id="path7144" />
    <path
       inkscape:connector-curvature="0"
       d="m 87.378197,974.83301 22.475893,27.52659 2.52538,-36.61802 z"
       style="fill:#d2e0f4;stroke:none;stroke-width:1"
       id="path7146" />
    <path
       inkscape:connector-curvature="0"
       d="m 60.356614,996.80377 27.021583,1.2627 0,-23.23346 z"
       style="fill:#ccdcf2;stroke:none;stroke-width:1"
       id="path7148" />
    <path
       inkscape:connector-curvature="0"
       d="m 87.378197,998.06647 22.475893,4.29313 -22.475893,-27.52659 z"
       style="fill:#c3d5ee;stroke:none;stroke-width:1"
       id="path7150" />
    <path
       inkscape:connector-curvature="0"
       d="m 23.486045,984.68195 36.870569,12.12182 -6.060913,-25.75885 z"
       style="fill:#d6e3f5;stroke:none;stroke-width:1"
       id="path7152" />
    <path
       inkscape:connector-curvature="0"
       d="m 125.76399,984.42944 38.38581,12.87945 -16.66753,-24.2437 z"
       style="fill:#cadbf2;stroke:none;stroke-width:1"
       id="path7154" />
    <path
       inkscape:connector-curvature="0"
       d="m 125.76399,984.42944 26.01143,29.04186 12.37438,-16.16241 z"
       style="fill:#b1c5ea;stroke:none;stroke-width:1"
       id="path7156" />
    <path
       inkscape:connector-curvature="0"
       d="m -0.2525375,988.7226 16.9200545,27.5266 6.818528,-31.56725 z"
       style="fill:#c3d6f0;stroke:none;stroke-width:1"
       id="path7158" />
    <path
       inkscape:connector-curvature="0"
       d="m 96.722106,1020.0373 13.131984,-17.6777 -22.475893,-4.29313 z"
       style="fill:#bccfee;stroke:none;stroke-width:1"
       id="path7160" />
    <path
       inkscape:connector-curvature="0"
       d="M -0.2525375,1024.078 16.667517,1016.2492 -0.2525375,988.7226 Z"
       style="fill:#d2ddf2;stroke:none;stroke-width:1"
       id="path7162" />
    <path
       inkscape:connector-curvature="0"
       d="m 164.1498,997.30889 20.96066,27.77921 -0.50508,-34.85025 z"
       style="fill:#c8d9f1;stroke:none;stroke-width:1"
       id="path7164" />
    <path
       inkscape:connector-curvature="0"
       d="m 109.85409,1002.3596 41.92133,11.1117 -26.01143,-29.04186 z"
       style="fill:#c2d5f0;stroke:none;stroke-width:1"
       id="path7166" />
    <path
       inkscape:connector-curvature="0"
       d="M 16.667517,1016.2492 60.356614,996.80377 23.486045,984.68195 Z"
       style="fill:#d4e1f4;stroke:none;stroke-width:1"
       id="path7168" />
    <path
       inkscape:connector-curvature="0"
       d="m 124.75384,1028.3711 27.02158,-14.8998 -41.92133,-11.1117 z"
       style="fill:#c3d6f0;stroke:none;stroke-width:1"
       id="path7170" />
    <path
       inkscape:connector-curvature="0"
       d="m 16.667517,1016.2492 28.536809,14.8997 15.152288,-34.34513 z"
       style="fill:#b5cef0;stroke:none;stroke-width:1"
       id="path7172" />
    <path
       inkscape:connector-curvature="0"
       d="m 151.77542,1013.4713 33.33504,11.6168 -20.96066,-27.77921 z"
       style="fill:#d0def3;stroke:none;stroke-width:1"
       id="path7174" />
    <path
       inkscape:connector-curvature="0"
       d="m 96.722106,1020.0373 28.031734,8.3338 -14.89975,-26.0115 z"
       style="fill:#dbe8f6;stroke:none;stroke-width:1"
       id="path7176" />
    <path
       inkscape:connector-curvature="0"
       d="m 71.215751,1036.1997 16.162446,-38.13323 -27.021583,-1.2627 z"
       style="fill:#c2d5f0;stroke:none;stroke-width:1"
       id="path7178" />
    <path
       inkscape:connector-curvature="0"
       d="m 71.215751,1036.1997 25.506355,-16.1624 -9.343909,-21.97083 z"
       style="fill:#c8d9f1;stroke:none;stroke-width:1"
       id="path7180" />
    <path
       inkscape:connector-curvature="0"
       d="m 45.204326,1031.1489 26.011425,5.0508 -10.859137,-39.39593 z"
       style="fill:#b3cbec;stroke:none;stroke-width:1"
       id="path7182" />
    <path
       inkscape:connector-curvature="0"
       d="m 124.75384,1028.3711 19.95051,11.3641 7.07107,-26.2639 z"
       style="fill:#bed2ef;stroke:none;stroke-width:1"
       id="path7184" />
    <path
       inkscape:connector-curvature="0"
       d="m 151.77542,1013.4713 18.68782,27.2742 14.64722,-15.6574 z"
       style="fill:#c7d9f2;stroke:none;stroke-width:1"
       id="path7186" />
    <path
       inkscape:connector-curvature="0"
       d="m -0.2525375,1024.078 19.1928965,17.6776 -2.272842,-25.5064 z"
       style="fill:#d9e4f5;stroke:none;stroke-width:1"
       id="path7188" />
    <path
       inkscape:connector-curvature="0"
       d="m 18.940359,1041.7556 26.263967,-10.6067 -28.536809,-14.8997 z"
       style="fill:#eaf1fa;stroke:none;stroke-width:1"
       id="path7190" />
    <path
       inkscape:connector-curvature="0"
       d="m 144.70435,1039.7352 25.75889,1.0103 -18.68782,-27.2742 z"
       style="fill:#e6edf8;stroke:none;stroke-width:1"
       id="path7192" />
    <path
       inkscape:connector-curvature="0"
       d="m 183.84776,1052.6147 1.2627,-27.5266 -14.64722,15.6574 z"
       style="fill:#c7d7f1;stroke:none;stroke-width:1"
       id="path7194" />
    <path
       inkscape:connector-curvature="0"
       d="M 0.2525385,1052.1096 18.940359,1041.7556 -0.2525375,1024.078 Z"
       style="fill:#c9daf1;stroke:none;stroke-width:1"
       id="path7196" />
    <path
       inkscape:connector-curvature="0"
       d="m 83.842659,1052.8673 12.879447,-32.83 -25.506355,16.1624 z"
       style="fill:#bdd1ed;stroke:none;stroke-width:1"
       id="path7198" />
    <path
       inkscape:connector-curvature="0"
       d="m 83.842659,1052.8673 40.911181,-24.4962 -28.031734,-8.3338 z"
       style="fill:#c0d5f0;stroke:none;stroke-width:1"
       id="path7200" />
    <path
       inkscape:connector-curvature="0"
       d="m 45.204326,1031.1489 38.638333,21.7184 -12.626908,-16.6676 z"
       style="fill:#c0d3ef;stroke:none;stroke-width:1"
       id="path7202" />
    <path
       inkscape:connector-curvature="0"
       d="m 83.842659,1052.8673 60.861691,-13.1321 -19.95051,-11.3641 z"
       style="fill:#bbd1ee;stroke:none;stroke-width:1"
       id="path7204" />
    <path
       inkscape:connector-curvature="0"
       d="m 144.70435,1039.7352 39.14341,12.8795 -13.38452,-11.8692 z"
       style="fill:#c1d5f0;stroke:none;stroke-width:1"
       id="path7206" />
    <path
       inkscape:connector-curvature="0"
       d="m 18.940359,1041.7556 64.9023,11.1117 -38.638333,-21.7184 z"
       style="fill:#d9e4f5;stroke:none;stroke-width:1"
       id="path7208" />
    <path
       inkscape:connector-curvature="0"
       d="m 0.2525385,1052.1096 83.5901205,0.7577 -64.9023,-11.1117 z"
       style="fill:#cee0f3;stroke:none;stroke-width:1"
       id="path7210" />
    <path
       inkscape:connector-curvature="0"
       d="m 83.842659,1052.8673 100.005101,-0.2526 -39.14341,-12.8795 z"
       style="fill:#d5e2f4;stroke:none;stroke-width:1"
       id="path7212" />
    <path
       inkscape:connector-curvature="0"
       d="m 185.11046,1025.0881 -1.01016,-72.73098 0.50508,37.88073 z"
       style="fill:#b5cced;stroke:none;stroke-width:1"
       id="path7214" />
  </g>
  <g
     transform="matrix(1.0847757,0,0,1.0847757,-5.76469,-1036.3988)"
     id="g7410">
    <path
       id="path7412"
       style="fill:#cfdef3;stroke:none;stroke-width:1"
       d="m 83.085044,958.67053 44.951786,-6.81848 -90.156108,-0.50507 z"
       inkscape:connector-curvature="0" />
    <path
       id="path7414"
       style="fill:#d2e0f4;stroke:none;stroke-width:1"
       d="m 128.03683,951.85205 33.58757,7.57611 22.4759,-7.07104 z"
       inkscape:connector-curvature="0" />
    <path
       id="path7416"
       style="fill:#c5d7f0;stroke:none;stroke-width:1"
       d="m 83.085044,958.67053 29.294426,7.07105 15.65736,-13.88953 z"
       inkscape:connector-curvature="0" />
    <path
       id="path7418"
       style="fill:#c2d5f0;stroke:none;stroke-width:1"
       d="M 54.295701,971.04492 83.085044,958.67053 37.880722,951.34698 Z"
       inkscape:connector-curvature="0" />
    <path
       id="path7420"
       style="fill:#d0def3;stroke:none;stroke-width:1"
       d="m 128.03683,951.85205 19.44544,21.21314 14.14213,-13.63703 z"
       inkscape:connector-curvature="0" />
    <path
       id="path7422"
       style="fill:#c6d8f1;stroke:none;stroke-width:1"
       d="m 87.378197,974.83301 25.001273,-9.09143 -29.294426,-7.07105 z"
       inkscape:connector-curvature="0" />
    <path
       id="path7424"
       style="fill:#bcd1ee;stroke:none;stroke-width:1"
       d="m 125.76399,984.42944 2.27284,-32.57739 -15.65736,13.88953 z"
       inkscape:connector-curvature="0" />
    <path
       id="path7426"
       style="fill:#d8e3f5;stroke:none;stroke-width:1"
       d="M 0.5050765,951.59949 23.486045,984.68195 37.880722,951.34698 Z"
       inkscape:connector-curvature="0" />
    <path
       id="path7428"
       style="fill:#cadbf2;stroke:none;stroke-width:1"
       d="m 125.76399,984.42944 21.71828,-11.36425 -19.44544,-21.21314 z"
       inkscape:connector-curvature="0" />
    <path
       id="path7430"
       style="fill:#cbdbf2;stroke:none;stroke-width:1"
       d="m 54.295701,971.04492 33.082496,3.78809 -4.293153,-16.16248 z"
       inkscape:connector-curvature="0" />
    <path
       id="path7432"
       style="fill:#d2e0f4;stroke:none;stroke-width:1"
       d="M 23.486045,984.68195 54.295701,971.04492 37.880722,951.34698 Z"
       inkscape:connector-curvature="0" />
    <path
       id="path7434"
       style="fill:#ecf2fa;stroke:none;stroke-width:1"
       d="M -0.2525375,988.7226 23.486045,984.68195 0.5050765,951.59949 Z"
       inkscape:connector-curvature="0" />
    <path
       id="path7436"
       style="fill:#d5e0f4;stroke:none;stroke-width:1"
       d="m 161.6244,959.42816 22.98098,30.80969 -0.50508,-37.88073 z"
       inkscape:connector-curvature="0" />
    <path
       id="path7438"
       style="fill:#d5e2f4;stroke:none;stroke-width:1"
       d="m 164.1498,997.30889 -2.5254,-37.88073 -14.14213,13.63703 z"
       inkscape:connector-curvature="0" />
    <path
       id="path7440"
       style="fill:#c7d8f1;stroke:none;stroke-width:1"
       d="m 164.1498,997.30889 20.45558,-7.07104 -22.98098,-30.80969 z"
       inkscape:connector-curvature="0" />
    <path
       id="path7442"
       style="fill:#ccddf3;stroke:none;stroke-width:1"
       d="M 60.356614,996.80377 87.378197,974.83301 54.295701,971.04492 Z"
       inkscape:connector-curvature="0" />
    <path
       id="path7444"
       style="fill:#b4cbec;stroke:none;stroke-width:1"
       d="m 112.37947,965.74158 -2.52538,36.61802 15.9099,-17.93016 z"
       inkscape:connector-curvature="0" />
    <path
       id="path7446"
       style="fill:#d2e0f4;stroke:none;stroke-width:1"
       d="m 87.378197,974.83301 22.475893,27.52659 2.52538,-36.61802 z"
       inkscape:connector-curvature="0" />
    <path
       id="path7448"
       style="fill:#ccdcf2;stroke:none;stroke-width:1"
       d="m 60.356614,996.80377 27.021583,1.2627 0,-23.23346 z"
       inkscape:connector-curvature="0" />
    <path
       id="path7450"
       style="fill:#c3d5ee;stroke:none;stroke-width:1"
       d="m 87.378197,998.06647 22.475893,4.29313 -22.475893,-27.52659 z"
       inkscape:connector-curvature="0" />
    <path
       id="path7452"
       style="fill:#d6e3f5;stroke:none;stroke-width:1"
       d="m 23.486045,984.68195 36.870569,12.12182 -6.060913,-25.75885 z"
       inkscape:connector-curvature="0" />
    <path
       id="path7454"
       style="fill:#cadbf2;stroke:none;stroke-width:1"
       d="m 125.76399,984.42944 38.38581,12.87945 -16.66753,-24.2437 z"
       inkscape:connector-curvature="0" />
    <path
       id="path7456"
       style="fill:#b1c5ea;stroke:none;stroke-width:1"
       d="m 125.76399,984.42944 26.01143,29.04186 12.37438,-16.16241 z"
       inkscape:connector-curvature="0" />
    <path
       id="path7458"
       style="fill:#c3d6f0;stroke:none;stroke-width:1"
       d="m -0.2525375,988.7226 16.9200545,27.5266 6.818528,-31.56725 z"
       inkscape:connector-curvature="0" />
    <path
       id="path7460"
       style="fill:#bccfee;stroke:none;stroke-width:1"
       d="m 96.722106,1020.0373 13.131984,-17.6777 -22.475893,-4.29313 z"
       inkscape:connector-curvature="0" />
    <path
       id="path7462"
       style="fill:#d2ddf2;stroke:none;stroke-width:1"
       d="M -0.2525375,1024.078 16.667517,1016.2492 -0.2525375,988.7226 Z"
       inkscape:connector-curvature="0" />
    <path
       id="path7464"
       style="fill:#c8d9f1;stroke:none;stroke-width:1"
       d="m 164.1498,997.30889 20.96066,27.77921 -0.50508,-34.85025 z"
       inkscape:connector-curvature="0" />
    <path
       id="path7466"
       style="fill:#c2d5f0;stroke:none;stroke-width:1"
       d="m 109.85409,1002.3596 41.92133,11.1117 -26.01143,-29.04186 z"
       inkscape:connector-curvature="0" />
    <path
       id="path7468"
       style="fill:#d4e1f4;stroke:none;stroke-width:1"
       d="M 16.667517,1016.2492 60.356614,996.80377 23.486045,984.68195 Z"
       inkscape:connector-curvature="0" />
    <path
       id="path7470"
       style="fill:#c3d6f0;stroke:none;stroke-width:1"
       d="m 124.75384,1028.3711 27.02158,-14.8998 -41.92133,-11.1117 z"
       inkscape:connector-curvature="0" />
    <path
       id="path7472"
       style="fill:#b5cef0;stroke:none;stroke-width:1"
       d="m 16.667517,1016.2492 28.536809,14.8997 15.152288,-34.34513 z"
       inkscape:connector-curvature="0" />
    <path
       id="path7474"
       style="fill:#d0def3;stroke:none;stroke-width:1"
       d="m 151.77542,1013.4713 33.33504,11.6168 -20.96066,-27.77921 z"
       inkscape:connector-curvature="0" />
    <path
       id="path7476"
       style="fill:#dbe8f6;stroke:none;stroke-width:1"
       d="m 96.722106,1020.0373 28.031734,8.3338 -14.89975,-26.0115 z"
       inkscape:connector-curvature="0" />
    <path
       id="path7478"
       style="fill:#c2d5f0;stroke:none;stroke-width:1"
       d="m 71.215751,1036.1997 16.162446,-38.13323 -27.021583,-1.2627 z"
       inkscape:connector-curvature="0" />
    <path
       id="path7480"
       style="fill:#c8d9f1;stroke:none;stroke-width:1"
       d="m 71.215751,1036.1997 25.506355,-16.1624 -9.343909,-21.97083 z"
       inkscape:connector-curvature="0" />
    <path
       id="path7482"
       style="fill:#b3cbec;stroke:none;stroke-width:1"
       d="m 45.204326,1031.1489 26.011425,5.0508 -10.859137,-39.39593 z"
       inkscape:connector-curvature="0" />
    <path
       id="path7484"
       style="fill:#bed2ef;stroke:none;stroke-width:1"
       d="m 124.75384,1028.3711 19.95051,11.3641 7.07107,-26.2639 z"
       inkscape:connector-curvature="0" />
    <path
       id="path7486"
       style="fill:#c7d9f2;stroke:none;stroke-width:1"
       d="m 151.77542,1013.4713 18.68782,27.2742 14.64722,-15.6574 z"
       inkscape:connector-curvature="0" />
    <path
       id="path7488"
       style="fill:#d9e4f5;stroke:none;stroke-width:1"
       d="m -0.2525375,1024.078 19.1928965,17.6776 -2.272842,-25.5064 z"
       inkscape:connector-curvature="0" />
    <path
       id="path7490"
       style="fill:#eaf1fa;stroke:none;stroke-width:1"
       d="m 18.940359,1041.7556 26.263967,-10.6067 -28.536809,-14.8997 z"
       inkscape:connector-curvature="0" />
    <path
       id="path7492"
       style="fill:#e6edf8;stroke:none;stroke-width:1"
       d="m 144.70435,1039.7352 25.75889,1.0103 -18.68782,-27.2742 z"
       inkscape:connector-curvature="0" />
    <path
       id="path7494"
       style="fill:#c7d7f1;stroke:none;stroke-width:1"
       d="m 183.84776,1052.6147 1.2627,-27.5266 -14.64722,15.6574 z"
       inkscape:connector-curvature="0" />
    <path
       id="path7496"
       style="fill:#c9daf1;stroke:none;stroke-width:1"
       d="M 0.2525385,1052.1096 18.940359,1041.7556 -0.2525375,1024.078 Z"
       inkscape:connector-curvature="0" />
    <path
       id="path7498"
       style="fill:#bdd1ed;stroke:none;stroke-width:1"
       d="m 83.842659,1052.8673 12.879447,-32.83 -25.506355,16.1624 z"
       inkscape:connector-curvature="0" />
    <path
       id="path7500"
       style="fill:#c0d5f0;stroke:none;stroke-width:1"
       d="m 83.842659,1052.8673 40.911181,-24.4962 -28.031734,-8.3338 z"
       inkscape:connector-curvature="0" />
    <path
       id="path7502"
       style="fill:#c0d3ef;stroke:none;stroke-width:1"
       d="m 45.204326,1031.1489 38.638333,21.7184 -12.626908,-16.6676 z"
       inkscape:connector-curvature="0" />
    <path
       id="path7504"
       style="fill:#bbd1ee;stroke:none;stroke-width:1"
       d="m 83.842659,1052.8673 60.861691,-13.1321 -19.95051,-11.3641 z"
       inkscape:connector-curvature="0" />
    <path
       id="path7506"
       style="fill:#c1d5f0;stroke:none;stroke-width:1"
       d="m 144.70435,1039.7352 39.14341,12.8795 -13.38452,-11.8692 z"
       inkscape:connector-curvature="0" />
    <path
       id="path7508"
       style="fill:#d9e4f5;stroke:none;stroke-width:1"
       d="m 18.940359,1041.7556 64.9023,11.1117 -38.638333,-21.7184 z"
       inkscape:connector-curvature="0" />
    <path
       id="path7510"
       style="fill:#cee0f3;stroke:none;stroke-width:1"
       d="m 0.2525385,1052.1096 83.5901205,0.7577 -64.9023,-11.1117 z"
       inkscape:connector-curvature="0" />
    <path
       id="path7512"
       style="fill:#d5e2f4;stroke:none;stroke-width:1"
       d="m 83.842659,1052.8673 100.005101,-0.2526 -39.14341,-12.8795 z"
       inkscape:connector-curvature="0" />
    <path
       id="path7514"
       style="fill:#b5cced;stroke:none;stroke-width:1"
       d="m 185.11046,1025.0881 -1.01016,-72.73098 0.50508,37.88073 z"
       inkscape:connector-curvature="0" />
  </g>
  <g
     transform="matrix(1.0847757,0,0,1.0847757,-5.76469,-1036.3988)"
     id="g7516">
    <path
       inkscape:connector-curvature="0"
       d="m 83.085044,958.67053 44.951786,-6.81848 -90.156108,-0.50507 z"
       style="fill:#eaeaea;stroke:none;stroke-width:1"
       id="path7518" />
    <path
       inkscape:connector-curvature="0"
       d="m 128.03683,951.85205 33.58757,7.57611 22.4759,-7.07104 z"
       style="fill:#ececec;stroke:none;stroke-width:1"
       id="path7520" />
    <path
       inkscape:connector-curvature="0"
       d="m 83.085044,958.67053 29.294426,7.07105 15.65736,-13.88953 z"
       style="fill:#e4e4e4;stroke:none;stroke-width:1"
       id="path7522" />
    <path
       inkscape:connector-curvature="0"
       d="M 54.295701,971.04492 83.085044,958.67053 37.880722,951.34698 Z"
       style="fill:#e3e3e3;stroke:none;stroke-width:1"
       id="path7524" />
    <path
       inkscape:connector-curvature="0"
       d="m 128.03683,951.85205 19.44544,21.21314 14.14213,-13.63703 z"
       style="fill:#ebebeb;stroke:none;stroke-width:1"
       id="path7526" />
    <path
       inkscape:connector-curvature="0"
       d="m 87.378197,974.83301 25.001273,-9.09143 -29.294426,-7.07105 z"
       style="fill:#e6e6e6;stroke:none;stroke-width:1"
       id="path7528" />
    <path
       inkscape:connector-curvature="0"
       d="m 125.76399,984.42944 2.27284,-32.57739 -15.65736,13.88953 z"
       style="fill:#e0e0e0;stroke:none;stroke-width:1"
       id="path7530" />
    <path
       inkscape:connector-curvature="0"
       d="M 0.5050765,951.59949 23.486045,984.68195 37.880722,951.34698 Z"
       style="fill:#efefef;stroke:none;stroke-width:1"
       id="path7532" />
    <path
       inkscape:connector-curvature="0"
       d="m 125.76399,984.42944 21.71828,-11.36425 -19.44544,-21.21314 z"
       style="fill:#e7e7e7;stroke:none;stroke-width:1"
       id="path7534" />
    <path
       inkscape:connector-curvature="0"
       d="m 54.295701,971.04492 33.082496,3.78809 -4.293153,-16.16248 z"
       style="fill:#e8e8e8;stroke:none;stroke-width:1"
       id="path7536" />
    <path
       inkscape:connector-curvature="0"
       d="M 23.486045,984.68195 54.295701,971.04492 37.880722,951.34698 Z"
       style="fill:#ebebeb;stroke:none;stroke-width:1"
       id="path7538" />
    <path
       inkscape:connector-curvature="0"
       d="M -0.2525375,988.7226 23.486045,984.68195 0.5050765,951.59949 Z"
       style="fill:#fdfdfd;stroke:none;stroke-width:1"
       id="path7540" />
    <path
       inkscape:connector-curvature="0"
       d="m 161.6244,959.42816 22.98098,30.80969 -0.50508,-37.88073 z"
       style="fill:#ececec;stroke:none;stroke-width:1"
       id="path7542" />
    <path
       inkscape:connector-curvature="0"
       d="m 164.1498,997.30889 -2.5254,-37.88073 -14.14213,13.63703 z"
       style="fill:#eeeeee;stroke:none;stroke-width:1"
       id="path7544" />
    <path
       inkscape:connector-curvature="0"
       d="m 164.1498,997.30889 20.45558,-7.07104 -22.98098,-30.80969 z"
       style="fill:#e7e7e7;stroke:none;stroke-width:1"
       id="path7546" />
    <path
       inkscape:connector-curvature="0"
       d="M 60.356614,996.80377 87.378197,974.83301 54.295701,971.04492 Z"
       style="fill:#e8e8e8;stroke:none;stroke-width:1"
       id="path7548" />
    <path
       inkscape:connector-curvature="0"
       d="m 112.37947,965.74158 -2.52538,36.61802 15.9099,-17.93016 z"
       style="fill:#dadada;stroke:none;stroke-width:1"
       id="path7550" />
    <path
       inkscape:connector-curvature="0"
       d="m 87.378197,974.83301 22.475893,27.52659 2.52538,-36.61802 z"
       style="fill:#ececec;stroke:none;stroke-width:1"
       id="path7552" />
    <path
       inkscape:connector-curvature="0"
       d="m 60.356614,996.80377 27.021583,1.2627 0,-23.23346 z"
       style="fill:#e9e9e9;stroke:none;stroke-width:1"
       id="path7554" />
    <path
       inkscape:connector-curvature="0"
       d="m 87.378197,998.06647 22.475893,4.29313 -22.475893,-27.52659 z"
       style="fill:#e0e0e0;stroke:none;stroke-width:1"
       id="path7556" />
    <path
       inkscape:connector-curvature="0"
       d="m 23.486045,984.68195 36.870569,12.12182 -6.060913,-25.75885 z"
       style="fill:#efefef;stroke:none;stroke-width:1"
       id="path7558" />
    <path
       inkscape:connector-curvature="0"
       d="m 125.76399,984.42944 38.38581,12.87945 -16.66753,-24.2437 z"
       style="fill:#e8e8e8;stroke:none;stroke-width:1"
       id="path7560" />
    <path
       inkscape:connector-curvature="0"
       d="m 125.76399,984.42944 26.01143,29.04186 12.37438,-16.16241 z"
       style="fill:#d5d5d5;stroke:none;stroke-width:1"
       id="path7562" />
    <path
       inkscape:connector-curvature="0"
       d="m -0.2525375,988.7226 16.9200545,27.5266 6.818528,-31.56725 z"
       style="fill:#e4e4e4;stroke:none;stroke-width:1"
       id="path7564" />
    <path
       inkscape:connector-curvature="0"
       d="m 96.722106,1020.0373 13.131984,-17.6777 -22.475893,-4.29313 z"
       style="fill:#e0e0e0;stroke:none;stroke-width:1"
       id="path7566" />
    <path
       inkscape:connector-curvature="0"
       d="M -0.2525375,1024.078 16.667517,1016.2492 -0.2525375,988.7226 Z"
       style="fill:#eaeaea;stroke:none;stroke-width:1"
       id="path7568" />
    <path
       inkscape:connector-curvature="0"
       d="m 164.1498,997.30889 20.96066,27.77921 -0.50508,-34.85025 z"
       style="fill:#e6e6e6;stroke:none;stroke-width:1"
       id="path7570" />
    <path
       inkscape:connector-curvature="0"
       d="m 109.85409,1002.3596 41.92133,11.1117 -26.01143,-29.04186 z"
       style="fill:#e3e3e3;stroke:none;stroke-width:1"
       id="path7572" />
    <path
       inkscape:connector-curvature="0"
       d="M 16.667517,1016.2492 60.356614,996.80377 23.486045,984.68195 Z"
       style="fill:#efefef;stroke:none;stroke-width:1"
       id="path7574" />
    <path
       inkscape:connector-curvature="0"
       d="m 124.75384,1028.3711 27.02158,-14.8998 -41.92133,-11.1117 z"
       style="fill:#e3e3e3;stroke:none;stroke-width:1"
       id="path7576" />
    <path
       inkscape:connector-curvature="0"
       d="m 16.667517,1016.2492 28.536809,14.8997 15.152288,-34.34513 z"
       style="fill:#dadada;stroke:none;stroke-width:1"
       id="path7578" />
    <path
       inkscape:connector-curvature="0"
       d="m 151.77542,1013.4713 33.33504,11.6168 -20.96066,-27.77921 z"
       style="fill:#e9e9e9;stroke:none;stroke-width:1"
       id="path7580" />
    <path
       inkscape:connector-curvature="0"
       d="m 96.722106,1020.0373 28.031734,8.3338 -14.89975,-26.0115 z"
       style="fill:#f3f3f3;stroke:none;stroke-width:1"
       id="path7582" />
    <path
       inkscape:connector-curvature="0"
       d="m 71.215751,1036.1997 16.162446,-38.13323 -27.021583,-1.2627 z"
       style="fill:#e3e3e3;stroke:none;stroke-width:1"
       id="path7584" />
    <path
       inkscape:connector-curvature="0"
       d="m 71.215751,1036.1997 25.506355,-16.1624 -9.343909,-21.97083 z"
       style="fill:#e6e6e6;stroke:none;stroke-width:1"
       id="path7586" />
    <path
       inkscape:connector-curvature="0"
       d="m 45.204326,1031.1489 26.011425,5.0508 -10.859137,-39.39593 z"
       style="fill:#dadada;stroke:none;stroke-width:1"
       id="path7588" />
    <path
       inkscape:connector-curvature="0"
       d="m 124.75384,1028.3711 19.95051,11.3641 7.07107,-26.2639 z"
       style="fill:#e1e1e1;stroke:none;stroke-width:1"
       id="path7590" />
    <path
       inkscape:connector-curvature="0"
       d="m 151.77542,1013.4713 18.68782,27.2742 14.64722,-15.6574 z"
       style="fill:#e5e5e5;stroke:none;stroke-width:1"
       id="path7592" />
    <path
       inkscape:connector-curvature="0"
       d="m -0.2525375,1024.078 19.1928965,17.6776 -2.272842,-25.5064 z"
       style="fill:#f2f2f2;stroke:none;stroke-width:1"
       id="path7594" />
    <path
       inkscape:connector-curvature="0"
       d="m 18.940359,1041.7556 26.263967,-10.6067 -28.536809,-14.8997 z"
       style="fill:#fafafa;stroke:none;stroke-width:1"
       id="path7596" />
    <path
       inkscape:connector-curvature="0"
       d="m 144.70435,1039.7352 25.75889,1.0103 -18.68782,-27.2742 z"
       style="fill:#f6f6f6;stroke:none;stroke-width:1"
       id="path7598" />
    <path
       inkscape:connector-curvature="0"
       d="m 183.84776,1052.6147 1.2627,-27.5266 -14.64722,15.6574 z"
       style="fill:#e6e6e6;stroke:none;stroke-width:1"
       id="path7600" />
    <path
       inkscape:connector-curvature="0"
       d="M 0.2525385,1052.1096 18.940359,1041.7556 -0.2525375,1024.078 Z"
       style="fill:#e9e9e9;stroke:none;stroke-width:1"
       id="path7602" />
    <path
       inkscape:connector-curvature="0"
       d="m 83.842659,1052.8673 12.879447,-32.83 -25.506355,16.1624 z"
       style="fill:#dddddd;stroke:none;stroke-width:1"
       id="path7604" />
    <path
       inkscape:connector-curvature="0"
       d="m 83.842659,1052.8673 40.911181,-24.4962 -28.031734,-8.3338 z"
       style="fill:#e2e2e2;stroke:none;stroke-width:1"
       id="path7606" />
    <path
       inkscape:connector-curvature="0"
       d="m 45.204326,1031.1489 38.638333,21.7184 -12.626908,-16.6676 z"
       style="fill:#e2e2e2;stroke:none;stroke-width:1"
       id="path7608" />
    <path
       inkscape:connector-curvature="0"
       d="m 83.842659,1052.8673 60.861691,-13.1321 -19.95051,-11.3641 z"
       style="fill:#e0e0e0;stroke:none;stroke-width:1"
       id="path7610" />
    <path
       inkscape:connector-curvature="0"
       d="m 144.70435,1039.7352 39.14341,12.8795 -13.38452,-11.8692 z"
       style="fill:#e3e3e3;stroke:none;stroke-width:1"
       id="path7612" />
    <path
       inkscape:connector-curvature="0"
       d="m 18.940359,1041.7556 64.9023,11.1117 -38.638333,-21.7184 z"
       style="fill:#f2f2f2;stroke:none;stroke-width:1"
       id="path7614" />
    <path
       inkscape:connector-curvature="0"
       d="m 0.2525385,1052.1096 83.5901205,0.7577 -64.9023,-11.1117 z"
       style="fill:#eaeaea;stroke:none;stroke-width:1"
       id="path7616" />
    <path
       inkscape:connector-curvature="0"
       d="m 83.842659,1052.8673 100.005101,-0.2526 -39.14341,-12.8795 z"
       style="fill:#eeeeee;stroke:none;stroke-width:1"
       id="path7618" />
    <path
       inkscape:connector-curvature="0"
       d="m 185.11046,1025.0881 -1.01016,-72.73098 0.50508,37.88073 z"
       style="fill:#dbdbdb;stroke:none;stroke-width:1"
       id="path7620" />
  </g>
  <g
     transform="translate(-298.93966,61.68625)"
     id="g7890">
    <g
       transform="translate(-266.55899,-345.34488)"
       id="layer1-2" />
  </g>
</svg>
