<?xml version="1.0" encoding="UTF-8" standalone="no"?>
<!-- Created with Inkscape (http://www.inkscape.org/) -->

<svg
   xmlns:dc="http://purl.org/dc/elements/1.1/"
   xmlns:cc="http://creativecommons.org/ns#"
   xmlns:rdf="http://www.w3.org/1999/02/22-rdf-syntax-ns#"
   xmlns:svg="http://www.w3.org/2000/svg"
   xmlns="http://www.w3.org/2000/svg"
   xmlns:sodipodi="http://sodipodi.sourceforge.net/DTD/sodipodi-0.dtd"
   xmlns:inkscape="http://www.inkscape.org/namespaces/inkscape"
   viewBox="0 0 184 101"
   inkscape:version="0.91pre0 r13343"
   version="1.1"
   id="svg6284"
   height="101"
   width="184"
   inkscape:export-ydpi="90"
   inkscape:export-xdpi="90"
   inkscape:export-filename="/home/rlerch/Source/fedoramagazine-images/images/fedora-thoughts/fedora-thoughts.png"
   sodipodi:docname="fedora-thoughts.svg">
  <defs
     id="defs6286">
    <filter
       inkscape:collect="always"
       style="color-interpolation-filters:sRGB"
       id="filter7725"
       x="-0.046102736"
       width="1.0922055"
       y="-0.058585729"
       height="1.1171715">
      <feGaussianBlur
         inkscape:collect="always"
         stdDeviation="1.9964346"
         id="feGaussianBlur7727" />
    </filter>
  </defs>
  <sodipodi:namedview
     id="base"
     pagecolor="#ffffff"
     bordercolor="#666666"
     borderopacity="1.0"
     inkscape:pageopacity="0.0"
     inkscape:pageshadow="2"
     inkscape:zoom="2"
     inkscape:cx="-47.598423"
     inkscape:cy="34.61311"
     inkscape:document-units="px"
     inkscape:current-layer="layer1-2"
     showgrid="false"
     inkscape:window-width="1920"
     inkscape:window-height="1140"
     inkscape:window-x="1920"
     inkscape:window-y="27"
     inkscape:window-maximized="1"
     borderlayer="true" />
  <metadata
     id="metadata6289">
    <rdf:RDF>
      <cc:Work
         rdf:about="">
        <dc:format>image/svg+xml</dc:format>
        <dc:type
           rdf:resource="http://purl.org/dc/dcmitype/StillImage" />
        <dc:title></dc:title>
      </cc:Work>
    </rdf:RDF>
  </metadata>
  <g
     inkscape:label="Layer 1"
     inkscape:groupmode="layer"
     id="layer1"
     transform="translate(0,-951.3622)" />
  <g
     id="g7356"
     transform="matrix(1.0847757,0,0,1.0847757,-5.76469,-1036.3988)">
    <path
       id="path7112"
       style="fill:#2c67b9;stroke:none;stroke-width:1"
       d="m 83.085044,958.67053 44.951786,-6.81848 -90.156108,-0.50507 z"
       inkscape:connector-curvature="0" />
    <path
       id="path7114"
       style="fill:#2c65bc;stroke:none;stroke-width:1"
       d="m 128.03683,951.85205 33.58757,7.57611 22.4759,-7.07104 z"
       inkscape:connector-curvature="0" />
    <path
       id="path7116"
       style="fill:#2a62ae;stroke:none;stroke-width:1"
       d="m 83.085044,958.67053 29.294426,7.07105 15.65736,-13.88953 z"
       inkscape:connector-curvature="0" />
    <path
       id="path7118"
       style="fill:#2861ae;stroke:none;stroke-width:1"
       d="M 54.295701,971.04492 83.085044,958.67053 37.880722,951.34698 Z"
       inkscape:connector-curvature="0" />
    <path
       id="path7120"
       style="fill:#2b69bc;stroke:none;stroke-width:1"
       d="m 128.03683,951.85205 19.44544,21.21314 14.14213,-13.63703 z"
       inkscape:connector-curvature="0" />
    <path
       id="path7122"
       style="fill:#2963b3;stroke:none;stroke-width:1"
       d="m 87.378197,974.83301 25.001273,-9.09143 -29.294426,-7.07105 z"
       inkscape:connector-curvature="0" />
    <path
       id="path7124"
       style="fill:#265daa;stroke:none;stroke-width:1"
       d="m 125.76399,984.42944 2.27284,-32.57739 -15.65736,13.88953 z"
       inkscape:connector-curvature="0" />
    <path
       id="path7126"
       style="fill:#2e67c0;stroke:none;stroke-width:1"
       d="M 0.5050765,951.59949 23.486045,984.68195 37.880722,951.34698 Z"
       inkscape:connector-curvature="0" />
    <path
       id="path7128"
       style="fill:#2b62b3;stroke:none;stroke-width:1"
       d="m 125.76399,984.42944 21.71828,-11.36425 -19.44544,-21.21314 z"
       inkscape:connector-curvature="0" />
    <path
       id="path7130"
       style="fill:#2b66b5;stroke:none;stroke-width:1"
       d="m 54.295701,971.04492 33.082496,3.78809 -4.293153,-16.16248 z"
       inkscape:connector-curvature="0" />
    <path
       id="path7132"
       style="fill:#2d66ba;stroke:none;stroke-width:1"
       d="M 23.486045,984.68195 54.295701,971.04492 37.880722,951.34698 Z"
       inkscape:connector-curvature="0" />
    <path
       id="path7134"
       style="fill:#3876d3;stroke:none;stroke-width:1"
       d="M -0.2525375,988.7226 23.486045,984.68195 0.5050765,951.59949 Z"
       inkscape:connector-curvature="0" />
    <path
       id="path7136"
       style="fill:#2e64bb;stroke:none;stroke-width:1"
       d="m 161.6244,959.42816 22.98098,30.80969 -0.50508,-37.88073 z"
       inkscape:connector-curvature="0" />
    <path
       id="path7138"
       style="fill:#2d68bf;stroke:none;stroke-width:1"
       d="m 164.1498,997.30889 -2.5254,-37.88073 -14.14213,13.63703 z"
       inkscape:connector-curvature="0" />
    <path
       id="path7140"
       style="fill:#2863b6;stroke:none;stroke-width:1"
       d="m 164.1498,997.30889 20.45558,-7.07104 -22.98098,-30.80969 z"
       inkscape:connector-curvature="0" />
    <path
       id="path7142"
       style="fill:#2665ba;stroke:none;stroke-width:1"
       d="M 60.356614,996.80377 87.378197,974.83301 54.295701,971.04492 Z"
       inkscape:connector-curvature="0" />
    <path
       id="path7144"
       style="fill:#26589f;stroke:none;stroke-width:1"
       d="m 112.37947,965.74158 -2.52538,36.61802 15.9099,-17.93016 z"
       inkscape:connector-curvature="0" />
    <path
       id="path7146"
       style="fill:#2c69bd;stroke:none;stroke-width:1"
       d="m 87.378197,974.83301 22.475893,27.52659 2.52538,-36.61802 z"
       inkscape:connector-curvature="0" />
    <path
       id="path7148"
       style="fill:#2a63b9;stroke:none;stroke-width:1"
       d="m 60.356614,996.80377 27.021583,1.2627 0,-23.23346 z"
       inkscape:connector-curvature="0" />
    <path
       id="path7150"
       style="fill:#2b5fa6;stroke:none;stroke-width:1"
       d="m 87.378197,998.06647 22.475893,4.29313 -22.475893,-27.52659 z"
       inkscape:connector-curvature="0" />
    <path
       id="path7152"
       style="fill:#2c6ac2;stroke:none;stroke-width:1"
       d="m 23.486045,984.68195 36.870569,12.12182 -6.060913,-25.75885 z"
       inkscape:connector-curvature="0" />
    <path
       id="path7154"
       style="fill:#2a63b6;stroke:none;stroke-width:1"
       d="m 125.76399,984.42944 38.38581,12.87945 -16.66753,-24.2437 z"
       inkscape:connector-curvature="0" />
    <path
       id="path7156"
       style="fill:#265095;stroke:none;stroke-width:1"
       d="m 125.76399,984.42944 26.01143,29.04186 12.37438,-16.16241 z"
       inkscape:connector-curvature="0" />
    <path
       id="path7158"
       style="fill:#285eb1;stroke:none;stroke-width:1"
       d="m -0.2525375,988.7226 16.9200545,27.5266 6.818528,-31.56725 z"
       inkscape:connector-curvature="0" />
    <path
       id="path7160"
       style="fill:#2658ab;stroke:none;stroke-width:1"
       d="m 96.722106,1020.0373 13.131984,-17.6777 -22.475893,-4.29313 z"
       inkscape:connector-curvature="0" />
    <path
       id="path7162"
       style="fill:#2f5fb5;stroke:none;stroke-width:1"
       d="M -0.2525375,1024.078 16.667517,1016.2492 -0.2525375,988.7226 Z"
       inkscape:connector-curvature="0" />
    <path
       id="path7164"
       style="fill:#2a65b3;stroke:none;stroke-width:1"
       d="m 164.1498,997.30889 20.96066,27.77921 -0.50508,-34.85025 z"
       inkscape:connector-curvature="0" />
    <path
       id="path7166"
       style="fill:#2860af;stroke:none;stroke-width:1"
       d="m 109.85409,1002.3596 41.92133,11.1117 -26.01143,-29.04186 z"
       inkscape:connector-curvature="0" />
    <path
       id="path7168"
       style="fill:#2a6dc5;stroke:none;stroke-width:1"
       d="M 16.667517,1016.2492 60.356614,996.80377 23.486045,984.68195 Z"
       inkscape:connector-curvature="0" />
    <path
       id="path7170"
       style="fill:#295dae;stroke:none;stroke-width:1"
       d="m 124.75384,1028.3711 27.02158,-14.8998 -41.92133,-11.1117 z"
       inkscape:connector-curvature="0" />
    <path
       id="path7172"
       style="fill:#2059a5;stroke:none;stroke-width:1"
       d="m 16.667517,1016.2492 28.536809,14.8997 15.152288,-34.34513 z"
       inkscape:connector-curvature="0" />
    <path
       id="path7174"
       style="fill:#2d67b5;stroke:none;stroke-width:1"
       d="m 151.77542,1013.4713 33.33504,11.6168 -20.96066,-27.77921 z"
       inkscape:connector-curvature="0" />
    <path
       id="path7176"
       style="fill:#2b74cc;stroke:none;stroke-width:1"
       d="m 96.722106,1020.0373 28.031734,8.3338 -14.89975,-26.0115 z"
       inkscape:connector-curvature="0" />
    <path
       id="path7178"
       style="fill:#2862ae;stroke:none;stroke-width:1"
       d="m 71.215751,1036.1997 16.162446,-38.13323 -27.021583,-1.2627 z"
       inkscape:connector-curvature="0" />
    <path
       id="path7180"
       style="fill:#2a62b3;stroke:none;stroke-width:1"
       d="m 71.215751,1036.1997 25.506355,-16.1624 -9.343909,-21.97083 z"
       inkscape:connector-curvature="0" />
    <path
       id="path7182"
       style="fill:#26569e;stroke:none;stroke-width:1"
       d="m 45.204326,1031.1489 26.011425,5.0508 -10.859137,-39.39593 z"
       inkscape:connector-curvature="0" />
    <path
       id="path7184"
       style="fill:#275fab;stroke:none;stroke-width:1"
       d="m 124.75384,1028.3711 19.95051,11.3641 7.07107,-26.2639 z"
       inkscape:connector-curvature="0" />
    <path
       id="path7186"
       style="fill:#2564b6;stroke:none;stroke-width:1"
       d="m 151.77542,1013.4713 18.68782,27.2742 14.64722,-15.6574 z"
       inkscape:connector-curvature="0" />
    <path
       id="path7188"
       style="fill:#2b6eca;stroke:none;stroke-width:1"
       d="m -0.2525375,1024.078 19.1928965,17.6776 -2.272842,-25.5064 z"
       inkscape:connector-curvature="0" />
    <path
       id="path7190"
       style="fill:#3675ce;stroke:none;stroke-width:1"
       d="m 18.940359,1041.7556 26.263967,-10.6067 -28.536809,-14.8997 z"
       inkscape:connector-curvature="0" />
    <path
       id="path7192"
       style="fill:#3371ca;stroke:none;stroke-width:1"
       d="m 144.70435,1039.7352 25.75889,1.0103 -18.68782,-27.2742 z"
       inkscape:connector-curvature="0" />
    <path
       id="path7194"
       style="fill:#275eb6;stroke:none;stroke-width:1"
       d="m 183.84776,1052.6147 1.2627,-27.5266 -14.64722,15.6574 z"
       inkscape:connector-curvature="0" />
    <path
       id="path7196"
       style="fill:#2863ba;stroke:none;stroke-width:1"
       d="M 0.2525385,1052.1096 18.940359,1041.7556 -0.2525375,1024.078 Z"
       inkscape:connector-curvature="0" />
    <path
       id="path7198"
       style="fill:#295da1;stroke:none;stroke-width:1"
       d="m 83.842659,1052.8673 12.879447,-32.83 -25.506355,16.1624 z"
       inkscape:connector-curvature="0" />
    <path
       id="path7200"
       style="fill:#255daf;stroke:none;stroke-width:1"
       d="m 83.842659,1052.8673 40.911181,-24.4962 -28.031734,-8.3338 z"
       inkscape:connector-curvature="0" />
    <path
       id="path7202"
       style="fill:#275fae;stroke:none;stroke-width:1"
       d="m 45.204326,1031.1489 38.638333,21.7184 -12.626908,-16.6676 z"
       inkscape:connector-curvature="0" />
    <path
       id="path7204"
       style="fill:#255dab;stroke:none;stroke-width:1"
       d="m 83.842659,1052.8673 60.861691,-13.1321 -19.95051,-11.3641 z"
       inkscape:connector-curvature="0" />
    <path
       id="path7206"
       style="fill:#2760af;stroke:none;stroke-width:1"
       d="m 144.70435,1039.7352 39.14341,12.8795 -13.38452,-11.8692 z"
       inkscape:connector-curvature="0" />
    <path
       id="path7208"
       style="fill:#2c70c8;stroke:none;stroke-width:1"
       d="m 18.940359,1041.7556 64.9023,11.1117 -38.638333,-21.7184 z"
       inkscape:connector-curvature="0" />
    <path
       id="path7210"
       style="fill:#2b6cba;stroke:none;stroke-width:1"
       d="m 0.2525385,1052.1096 83.5901205,0.7577 -64.9023,-11.1117 z"
       inkscape:connector-curvature="0" />
    <path
       id="path7212"
       style="fill:#2c68c1;stroke:none;stroke-width:1"
       d="m 83.842659,1052.8673 100.005101,-0.2526 -39.14341,-12.8795 z"
       inkscape:connector-curvature="0" />
    <path
       id="path7214"
       style="fill:#2657a0;stroke:none;stroke-width:1"
       d="m 185.11046,1025.0881 -1.01016,-72.73098 0.50508,37.88073 z"
       inkscape:connector-curvature="0" />
  </g>
  <g
     id="g7410"
     transform="matrix(1.0847757,0,0,1.0847757,-5.76469,-1036.3988)">
    <path
       inkscape:connector-curvature="0"
       d="m 83.085044,958.67053 44.951786,-6.81848 -90.156108,-0.50507 z"
       style="fill:#2c67b9;stroke:none;stroke-width:1"
       id="path7412" />
    <path
       inkscape:connector-curvature="0"
       d="m 128.03683,951.85205 33.58757,7.57611 22.4759,-7.07104 z"
       style="fill:#2c65bc;stroke:none;stroke-width:1"
       id="path7414" />
    <path
       inkscape:connector-curvature="0"
       d="m 83.085044,958.67053 29.294426,7.07105 15.65736,-13.88953 z"
       style="fill:#2a62ae;stroke:none;stroke-width:1"
       id="path7416" />
    <path
       inkscape:connector-curvature="0"
       d="M 54.295701,971.04492 83.085044,958.67053 37.880722,951.34698 Z"
       style="fill:#2861ae;stroke:none;stroke-width:1"
       id="path7418" />
    <path
       inkscape:connector-curvature="0"
       d="m 128.03683,951.85205 19.44544,21.21314 14.14213,-13.63703 z"
       style="fill:#2b69bc;stroke:none;stroke-width:1"
       id="path7420" />
    <path
       inkscape:connector-curvature="0"
       d="m 87.378197,974.83301 25.001273,-9.09143 -29.294426,-7.07105 z"
       style="fill:#2963b3;stroke:none;stroke-width:1"
       id="path7422" />
    <path
       inkscape:connector-curvature="0"
       d="m 125.76399,984.42944 2.27284,-32.57739 -15.65736,13.88953 z"
       style="fill:#265daa;stroke:none;stroke-width:1"
       id="path7424" />
    <path
       inkscape:connector-curvature="0"
       d="M 0.5050765,951.59949 23.486045,984.68195 37.880722,951.34698 Z"
       style="fill:#2e67c0;stroke:none;stroke-width:1"
       id="path7426" />
    <path
       inkscape:connector-curvature="0"
       d="m 125.76399,984.42944 21.71828,-11.36425 -19.44544,-21.21314 z"
       style="fill:#2b62b3;stroke:none;stroke-width:1"
       id="path7428" />
    <path
       inkscape:connector-curvature="0"
       d="m 54.295701,971.04492 33.082496,3.78809 -4.293153,-16.16248 z"
       style="fill:#2b66b5;stroke:none;stroke-width:1"
       id="path7430" />
    <path
       inkscape:connector-curvature="0"
       d="M 23.486045,984.68195 54.295701,971.04492 37.880722,951.34698 Z"
       style="fill:#2d66ba;stroke:none;stroke-width:1"
       id="path7432" />
    <path
       inkscape:connector-curvature="0"
       d="M -0.2525375,988.7226 23.486045,984.68195 0.5050765,951.59949 Z"
       style="fill:#3876d3;stroke:none;stroke-width:1"
       id="path7434" />
    <path
       inkscape:connector-curvature="0"
       d="m 161.6244,959.42816 22.98098,30.80969 -0.50508,-37.88073 z"
       style="fill:#2e64bb;stroke:none;stroke-width:1"
       id="path7436" />
    <path
       inkscape:connector-curvature="0"
       d="m 164.1498,997.30889 -2.5254,-37.88073 -14.14213,13.63703 z"
       style="fill:#2d68bf;stroke:none;stroke-width:1"
       id="path7438" />
    <path
       inkscape:connector-curvature="0"
       d="m 164.1498,997.30889 20.45558,-7.07104 -22.98098,-30.80969 z"
       style="fill:#2863b6;stroke:none;stroke-width:1"
       id="path7440" />
    <path
       inkscape:connector-curvature="0"
       d="M 60.356614,996.80377 87.378197,974.83301 54.295701,971.04492 Z"
       style="fill:#2665ba;stroke:none;stroke-width:1"
       id="path7442" />
    <path
       inkscape:connector-curvature="0"
       d="m 112.37947,965.74158 -2.52538,36.61802 15.9099,-17.93016 z"
       style="fill:#26589f;stroke:none;stroke-width:1"
       id="path7444" />
    <path
       inkscape:connector-curvature="0"
       d="m 87.378197,974.83301 22.475893,27.52659 2.52538,-36.61802 z"
       style="fill:#2c69bd;stroke:none;stroke-width:1"
       id="path7446" />
    <path
       inkscape:connector-curvature="0"
       d="m 60.356614,996.80377 27.021583,1.2627 0,-23.23346 z"
       style="fill:#2a63b9;stroke:none;stroke-width:1"
       id="path7448" />
    <path
       inkscape:connector-curvature="0"
       d="m 87.378197,998.06647 22.475893,4.29313 -22.475893,-27.52659 z"
       style="fill:#2b5fa6;stroke:none;stroke-width:1"
       id="path7450" />
    <path
       inkscape:connector-curvature="0"
       d="m 23.486045,984.68195 36.870569,12.12182 -6.060913,-25.75885 z"
       style="fill:#2c6ac2;stroke:none;stroke-width:1"
       id="path7452" />
    <path
       inkscape:connector-curvature="0"
       d="m 125.76399,984.42944 38.38581,12.87945 -16.66753,-24.2437 z"
       style="fill:#2a63b6;stroke:none;stroke-width:1"
       id="path7454" />
    <path
       inkscape:connector-curvature="0"
       d="m 125.76399,984.42944 26.01143,29.04186 12.37438,-16.16241 z"
       style="fill:#265095;stroke:none;stroke-width:1"
       id="path7456" />
    <path
       inkscape:connector-curvature="0"
       d="m -0.2525375,988.7226 16.9200545,27.5266 6.818528,-31.56725 z"
       style="fill:#285eb1;stroke:none;stroke-width:1"
       id="path7458" />
    <path
       inkscape:connector-curvature="0"
       d="m 96.722106,1020.0373 13.131984,-17.6777 -22.475893,-4.29313 z"
       style="fill:#2658ab;stroke:none;stroke-width:1"
       id="path7460" />
    <path
       inkscape:connector-curvature="0"
       d="M -0.2525375,1024.078 16.667517,1016.2492 -0.2525375,988.7226 Z"
       style="fill:#2f5fb5;stroke:none;stroke-width:1"
       id="path7462" />
    <path
       inkscape:connector-curvature="0"
       d="m 164.1498,997.30889 20.96066,27.77921 -0.50508,-34.85025 z"
       style="fill:#2a65b3;stroke:none;stroke-width:1"
       id="path7464" />
    <path
       inkscape:connector-curvature="0"
       d="m 109.85409,1002.3596 41.92133,11.1117 -26.01143,-29.04186 z"
       style="fill:#2860af;stroke:none;stroke-width:1"
       id="path7466" />
    <path
       inkscape:connector-curvature="0"
       d="M 16.667517,1016.2492 60.356614,996.80377 23.486045,984.68195 Z"
       style="fill:#2a6dc5;stroke:none;stroke-width:1"
       id="path7468" />
    <path
       inkscape:connector-curvature="0"
       d="m 124.75384,1028.3711 27.02158,-14.8998 -41.92133,-11.1117 z"
       style="fill:#295dae;stroke:none;stroke-width:1"
       id="path7470" />
    <path
       inkscape:connector-curvature="0"
       d="m 16.667517,1016.2492 28.536809,14.8997 15.152288,-34.34513 z"
       style="fill:#2059a5;stroke:none;stroke-width:1"
       id="path7472" />
    <path
       inkscape:connector-curvature="0"
       d="m 151.77542,1013.4713 33.33504,11.6168 -20.96066,-27.77921 z"
       style="fill:#2d67b5;stroke:none;stroke-width:1"
       id="path7474" />
    <path
       inkscape:connector-curvature="0"
       d="m 96.722106,1020.0373 28.031734,8.3338 -14.89975,-26.0115 z"
       style="fill:#2b74cc;stroke:none;stroke-width:1"
       id="path7476" />
    <path
       inkscape:connector-curvature="0"
       d="m 71.215751,1036.1997 16.162446,-38.13323 -27.021583,-1.2627 z"
       style="fill:#2862ae;stroke:none;stroke-width:1"
       id="path7478" />
    <path
       inkscape:connector-curvature="0"
       d="m 71.215751,1036.1997 25.506355,-16.1624 -9.343909,-21.97083 z"
       style="fill:#2a62b3;stroke:none;stroke-width:1"
       id="path7480" />
    <path
       inkscape:connector-curvature="0"
       d="m 45.204326,1031.1489 26.011425,5.0508 -10.859137,-39.39593 z"
       style="fill:#26569e;stroke:none;stroke-width:1"
       id="path7482" />
    <path
       inkscape:connector-curvature="0"
       d="m 124.75384,1028.3711 19.95051,11.3641 7.07107,-26.2639 z"
       style="fill:#275fab;stroke:none;stroke-width:1"
       id="path7484" />
    <path
       inkscape:connector-curvature="0"
       d="m 151.77542,1013.4713 18.68782,27.2742 14.64722,-15.6574 z"
       style="fill:#2564b6;stroke:none;stroke-width:1"
       id="path7486" />
    <path
       inkscape:connector-curvature="0"
       d="m -0.2525375,1024.078 19.1928965,17.6776 -2.272842,-25.5064 z"
       style="fill:#2b6eca;stroke:none;stroke-width:1"
       id="path7488" />
    <path
       inkscape:connector-curvature="0"
       d="m 18.940359,1041.7556 26.263967,-10.6067 -28.536809,-14.8997 z"
       style="fill:#3675ce;stroke:none;stroke-width:1"
       id="path7490" />
    <path
       inkscape:connector-curvature="0"
       d="m 144.70435,1039.7352 25.75889,1.0103 -18.68782,-27.2742 z"
       style="fill:#3371ca;stroke:none;stroke-width:1"
       id="path7492" />
    <path
       inkscape:connector-curvature="0"
       d="m 183.84776,1052.6147 1.2627,-27.5266 -14.64722,15.6574 z"
       style="fill:#275eb6;stroke:none;stroke-width:1"
       id="path7494" />
    <path
       inkscape:connector-curvature="0"
       d="M 0.2525385,1052.1096 18.940359,1041.7556 -0.2525375,1024.078 Z"
       style="fill:#2863ba;stroke:none;stroke-width:1"
       id="path7496" />
    <path
       inkscape:connector-curvature="0"
       d="m 83.842659,1052.8673 12.879447,-32.83 -25.506355,16.1624 z"
       style="fill:#295da1;stroke:none;stroke-width:1"
       id="path7498" />
    <path
       inkscape:connector-curvature="0"
       d="m 83.842659,1052.8673 40.911181,-24.4962 -28.031734,-8.3338 z"
       style="fill:#255daf;stroke:none;stroke-width:1"
       id="path7500" />
    <path
       inkscape:connector-curvature="0"
       d="m 45.204326,1031.1489 38.638333,21.7184 -12.626908,-16.6676 z"
       style="fill:#275fae;stroke:none;stroke-width:1"
       id="path7502" />
    <path
       inkscape:connector-curvature="0"
       d="m 83.842659,1052.8673 60.861691,-13.1321 -19.95051,-11.3641 z"
       style="fill:#255dab;stroke:none;stroke-width:1"
       id="path7504" />
    <path
       inkscape:connector-curvature="0"
       d="m 144.70435,1039.7352 39.14341,12.8795 -13.38452,-11.8692 z"
       style="fill:#2760af;stroke:none;stroke-width:1"
       id="path7506" />
    <path
       inkscape:connector-curvature="0"
       d="m 18.940359,1041.7556 64.9023,11.1117 -38.638333,-21.7184 z"
       style="fill:#2c70c8;stroke:none;stroke-width:1"
       id="path7508" />
    <path
       inkscape:connector-curvature="0"
       d="m 0.2525385,1052.1096 83.5901205,0.7577 -64.9023,-11.1117 z"
       style="fill:#2b6cba;stroke:none;stroke-width:1"
       id="path7510" />
    <path
       inkscape:connector-curvature="0"
       d="m 83.842659,1052.8673 100.005101,-0.2526 -39.14341,-12.8795 z"
       style="fill:#2c68c1;stroke:none;stroke-width:1"
       id="path7512" />
    <path
       inkscape:connector-curvature="0"
       d="m 185.11046,1025.0881 -1.01016,-72.73098 0.50508,37.88073 z"
       style="fill:#2657a0;stroke:none;stroke-width:1"
       id="path7514" />
  </g>
  <g
     id="g7516"
     transform="matrix(1.0847757,0,0,1.0847757,-5.76469,-1036.3988)">
    <path
       id="path7518"
       style="fill:#2c67b9;stroke:none;stroke-width:1"
       d="m 83.085044,958.67053 44.951786,-6.81848 -90.156108,-0.50507 z"
       inkscape:connector-curvature="0" />
    <path
       id="path7520"
       style="fill:#2c65bc;stroke:none;stroke-width:1"
       d="m 128.03683,951.85205 33.58757,7.57611 22.4759,-7.07104 z"
       inkscape:connector-curvature="0" />
    <path
       id="path7522"
       style="fill:#2a62ae;stroke:none;stroke-width:1"
       d="m 83.085044,958.67053 29.294426,7.07105 15.65736,-13.88953 z"
       inkscape:connector-curvature="0" />
    <path
       id="path7524"
       style="fill:#2861ae;stroke:none;stroke-width:1"
       d="M 54.295701,971.04492 83.085044,958.67053 37.880722,951.34698 Z"
       inkscape:connector-curvature="0" />
    <path
       id="path7526"
       style="fill:#2b69bc;stroke:none;stroke-width:1"
       d="m 128.03683,951.85205 19.44544,21.21314 14.14213,-13.63703 z"
       inkscape:connector-curvature="0" />
    <path
       id="path7528"
       style="fill:#2963b3;stroke:none;stroke-width:1"
       d="m 87.378197,974.83301 25.001273,-9.09143 -29.294426,-7.07105 z"
       inkscape:connector-curvature="0" />
    <path
       id="path7530"
       style="fill:#265daa;stroke:none;stroke-width:1"
       d="m 125.76399,984.42944 2.27284,-32.57739 -15.65736,13.88953 z"
       inkscape:connector-curvature="0" />
    <path
       id="path7532"
       style="fill:#2e67c0;stroke:none;stroke-width:1"
       d="M 0.5050765,951.59949 23.486045,984.68195 37.880722,951.34698 Z"
       inkscape:connector-curvature="0" />
    <path
       id="path7534"
       style="fill:#2b62b3;stroke:none;stroke-width:1"
       d="m 125.76399,984.42944 21.71828,-11.36425 -19.44544,-21.21314 z"
       inkscape:connector-curvature="0" />
    <path
       id="path7536"
       style="fill:#2b66b5;stroke:none;stroke-width:1"
       d="m 54.295701,971.04492 33.082496,3.78809 -4.293153,-16.16248 z"
       inkscape:connector-curvature="0" />
    <path
       id="path7538"
       style="fill:#2d66ba;stroke:none;stroke-width:1"
       d="M 23.486045,984.68195 54.295701,971.04492 37.880722,951.34698 Z"
       inkscape:connector-curvature="0" />
    <path
       id="path7540"
       style="fill:#3876d3;stroke:none;stroke-width:1"
       d="M -0.2525375,988.7226 23.486045,984.68195 0.5050765,951.59949 Z"
       inkscape:connector-curvature="0" />
    <path
       id="path7542"
       style="fill:#2e64bb;stroke:none;stroke-width:1"
       d="m 161.6244,959.42816 22.98098,30.80969 -0.50508,-37.88073 z"
       inkscape:connector-curvature="0" />
    <path
       id="path7544"
       style="fill:#2d68bf;stroke:none;stroke-width:1"
       d="m 164.1498,997.30889 -2.5254,-37.88073 -14.14213,13.63703 z"
       inkscape:connector-curvature="0" />
    <path
       id="path7546"
       style="fill:#2863b6;stroke:none;stroke-width:1"
       d="m 164.1498,997.30889 20.45558,-7.07104 -22.98098,-30.80969 z"
       inkscape:connector-curvature="0" />
    <path
       id="path7548"
       style="fill:#2665ba;stroke:none;stroke-width:1"
       d="M 60.356614,996.80377 87.378197,974.83301 54.295701,971.04492 Z"
       inkscape:connector-curvature="0" />
    <path
       id="path7550"
       style="fill:#26589f;stroke:none;stroke-width:1"
       d="m 112.37947,965.74158 -2.52538,36.61802 15.9099,-17.93016 z"
       inkscape:connector-curvature="0" />
    <path
       id="path7552"
       style="fill:#2c69bd;stroke:none;stroke-width:1"
       d="m 87.378197,974.83301 22.475893,27.52659 2.52538,-36.61802 z"
       inkscape:connector-curvature="0" />
    <path
       id="path7554"
       style="fill:#2a63b9;stroke:none;stroke-width:1"
       d="m 60.356614,996.80377 27.021583,1.2627 0,-23.23346 z"
       inkscape:connector-curvature="0" />
    <path
       id="path7556"
       style="fill:#2b5fa6;stroke:none;stroke-width:1"
       d="m 87.378197,998.06647 22.475893,4.29313 -22.475893,-27.52659 z"
       inkscape:connector-curvature="0" />
    <path
       id="path7558"
       style="fill:#2c6ac2;stroke:none;stroke-width:1"
       d="m 23.486045,984.68195 36.870569,12.12182 -6.060913,-25.75885 z"
       inkscape:connector-curvature="0" />
    <path
       id="path7560"
       style="fill:#2a63b6;stroke:none;stroke-width:1"
       d="m 125.76399,984.42944 38.38581,12.87945 -16.66753,-24.2437 z"
       inkscape:connector-curvature="0" />
    <path
       id="path7562"
       style="fill:#265095;stroke:none;stroke-width:1"
       d="m 125.76399,984.42944 26.01143,29.04186 12.37438,-16.16241 z"
       inkscape:connector-curvature="0" />
    <path
       id="path7564"
       style="fill:#285eb1;stroke:none;stroke-width:1"
       d="m -0.2525375,988.7226 16.9200545,27.5266 6.818528,-31.56725 z"
       inkscape:connector-curvature="0" />
    <path
       id="path7566"
       style="fill:#2658ab;stroke:none;stroke-width:1"
       d="m 96.722106,1020.0373 13.131984,-17.6777 -22.475893,-4.29313 z"
       inkscape:connector-curvature="0" />
    <path
       id="path7568"
       style="fill:#2f5fb5;stroke:none;stroke-width:1"
       d="M -0.2525375,1024.078 16.667517,1016.2492 -0.2525375,988.7226 Z"
       inkscape:connector-curvature="0" />
    <path
       id="path7570"
       style="fill:#2a65b3;stroke:none;stroke-width:1"
       d="m 164.1498,997.30889 20.96066,27.77921 -0.50508,-34.85025 z"
       inkscape:connector-curvature="0" />
    <path
       id="path7572"
       style="fill:#2860af;stroke:none;stroke-width:1"
       d="m 109.85409,1002.3596 41.92133,11.1117 -26.01143,-29.04186 z"
       inkscape:connector-curvature="0" />
    <path
       id="path7574"
       style="fill:#2a6dc5;stroke:none;stroke-width:1"
       d="M 16.667517,1016.2492 60.356614,996.80377 23.486045,984.68195 Z"
       inkscape:connector-curvature="0" />
    <path
       id="path7576"
       style="fill:#295dae;stroke:none;stroke-width:1"
       d="m 124.75384,1028.3711 27.02158,-14.8998 -41.92133,-11.1117 z"
       inkscape:connector-curvature="0" />
    <path
       id="path7578"
       style="fill:#2059a5;stroke:none;stroke-width:1"
       d="m 16.667517,1016.2492 28.536809,14.8997 15.152288,-34.34513 z"
       inkscape:connector-curvature="0" />
    <path
       id="path7580"
       style="fill:#2d67b5;stroke:none;stroke-width:1"
       d="m 151.77542,1013.4713 33.33504,11.6168 -20.96066,-27.77921 z"
       inkscape:connector-curvature="0" />
    <path
       id="path7582"
       style="fill:#2b74cc;stroke:none;stroke-width:1"
       d="m 96.722106,1020.0373 28.031734,8.3338 -14.89975,-26.0115 z"
       inkscape:connector-curvature="0" />
    <path
       id="path7584"
       style="fill:#2862ae;stroke:none;stroke-width:1"
       d="m 71.215751,1036.1997 16.162446,-38.13323 -27.021583,-1.2627 z"
       inkscape:connector-curvature="0" />
    <path
       id="path7586"
       style="fill:#2a62b3;stroke:none;stroke-width:1"
       d="m 71.215751,1036.1997 25.506355,-16.1624 -9.343909,-21.97083 z"
       inkscape:connector-curvature="0" />
    <path
       id="path7588"
       style="fill:#26569e;stroke:none;stroke-width:1"
       d="m 45.204326,1031.1489 26.011425,5.0508 -10.859137,-39.39593 z"
       inkscape:connector-curvature="0" />
    <path
       id="path7590"
       style="fill:#275fab;stroke:none;stroke-width:1"
       d="m 124.75384,1028.3711 19.95051,11.3641 7.07107,-26.2639 z"
       inkscape:connector-curvature="0" />
    <path
       id="path7592"
       style="fill:#2564b6;stroke:none;stroke-width:1"
       d="m 151.77542,1013.4713 18.68782,27.2742 14.64722,-15.6574 z"
       inkscape:connector-curvature="0" />
    <path
       id="path7594"
       style="fill:#2b6eca;stroke:none;stroke-width:1"
       d="m -0.2525375,1024.078 19.1928965,17.6776 -2.272842,-25.5064 z"
       inkscape:connector-curvature="0" />
    <path
       id="path7596"
       style="fill:#3675ce;stroke:none;stroke-width:1"
       d="m 18.940359,1041.7556 26.263967,-10.6067 -28.536809,-14.8997 z"
       inkscape:connector-curvature="0" />
    <path
       id="path7598"
       style="fill:#3371ca;stroke:none;stroke-width:1"
       d="m 144.70435,1039.7352 25.75889,1.0103 -18.68782,-27.2742 z"
       inkscape:connector-curvature="0" />
    <path
       id="path7600"
       style="fill:#275eb6;stroke:none;stroke-width:1"
       d="m 183.84776,1052.6147 1.2627,-27.5266 -14.64722,15.6574 z"
       inkscape:connector-curvature="0" />
    <path
       id="path7602"
       style="fill:#2863ba;stroke:none;stroke-width:1"
       d="M 0.2525385,1052.1096 18.940359,1041.7556 -0.2525375,1024.078 Z"
       inkscape:connector-curvature="0" />
    <path
       id="path7604"
       style="fill:#295da1;stroke:none;stroke-width:1"
       d="m 83.842659,1052.8673 12.879447,-32.83 -25.506355,16.1624 z"
       inkscape:connector-curvature="0" />
    <path
       id="path7606"
       style="fill:#255daf;stroke:none;stroke-width:1"
       d="m 83.842659,1052.8673 40.911181,-24.4962 -28.031734,-8.3338 z"
       inkscape:connector-curvature="0" />
    <path
       id="path7608"
       style="fill:#275fae;stroke:none;stroke-width:1"
       d="m 45.204326,1031.1489 38.638333,21.7184 -12.626908,-16.6676 z"
       inkscape:connector-curvature="0" />
    <path
       id="path7610"
       style="fill:#255dab;stroke:none;stroke-width:1"
       d="m 83.842659,1052.8673 60.861691,-13.1321 -19.95051,-11.3641 z"
       inkscape:connector-curvature="0" />
    <path
       id="path7612"
       style="fill:#2760af;stroke:none;stroke-width:1"
       d="m 144.70435,1039.7352 39.14341,12.8795 -13.38452,-11.8692 z"
       inkscape:connector-curvature="0" />
    <path
       id="path7614"
       style="fill:#2c70c8;stroke:none;stroke-width:1"
       d="m 18.940359,1041.7556 64.9023,11.1117 -38.638333,-21.7184 z"
       inkscape:connector-curvature="0" />
    <path
       id="path7616"
       style="fill:#2b6cba;stroke:none;stroke-width:1"
       d="m 0.2525385,1052.1096 83.5901205,0.7577 -64.9023,-11.1117 z"
       inkscape:connector-curvature="0" />
    <path
       id="path7618"
       style="fill:#2c68c1;stroke:none;stroke-width:1"
       d="m 83.842659,1052.8673 100.005101,-0.2526 -39.14341,-12.8795 z"
       inkscape:connector-curvature="0" />
    <path
       id="path7620"
       style="fill:#2657a0;stroke:none;stroke-width:1"
       d="m 185.11046,1025.0881 -1.01016,-72.73098 0.50508,37.88073 z"
       inkscape:connector-curvature="0" />
  </g>
  <path
     id="path7659"
     transform="matrix(0.89160934,0,0,0.89160934,10.63502,4.762521)"
     d="M 76.607422,2.0722656 A 20.535715,20.535715 0 0 0 63.257812,7.0332031 20.535715,20.535715 0 0 0 55.892578,5.6425781 20.535715,20.535715 0 0 0 52.376953,5.9472656 20.535715,20.535715 0 0 0 40.892578,2.4277344 20.535715,20.535715 0 0 0 27.443359,7.4804688 20.535715,20.535715 0 0 0 21.964844,6.7148438 20.535715,20.535715 0 0 0 1.4277344,27.25 a 20.535715,20.535715 0 0 0 4,12.136719 20.535715,20.535715 0 0 0 -0.070312,1.435547 20.535715,20.535715 0 0 0 0.2753906,3.304687 20.535715,20.535715 0 0 0 -4.2050781,12.408203 20.535715,20.535715 0 0 0 20.5371101,20.53711 20.535715,20.535715 0 0 0 0.103515,-0.0039 20.535715,20.535715 0 0 0 14.18164,5.71679 20.535715,20.535715 0 0 0 8.228516,-1.748047 20.535715,20.535715 0 0 0 10.34375,2.820313 A 20.535715,20.535715 0 0 0 73.34375,72.128906 20.535715,20.535715 0 0 0 84.822266,75.642578 20.535715,20.535715 0 0 0 105.35742,55.107422 20.535715,20.535715 0 0 0 101.60156,43.3125 20.535715,20.535715 0 0 0 104.64258,32.607422 20.535715,20.535715 0 0 0 95.982422,15.871094 20.535715,20.535715 0 0 0 76.607422,2.0722656 Z"
     style="color:#000000;text-decoration:none;text-decoration-line:none;text-decoration-color:currentColor;clip-rule:nonzero;display:inline;overflow:visible;visibility:visible;opacity:0.37300002;isolation:auto;color-interpolation:sRGB;color-interpolation-filters:linearRGB;fill:#000000;fill-opacity:1;fill-rule:nonzero;stroke:none;stroke-width:1;stroke-miterlimit:4;stroke-dasharray:none;stroke-opacity:0.47648908;marker:none;marker-start:none;marker-mid:none;marker-end:none;filter:url(#filter7725);color-rendering:auto;image-rendering:auto;shape-rendering:auto;text-rendering:auto;enable-background:accumulate"
     inkscape:connector-curvature="0" />
  <path
     style="color:#000000;text-decoration:none;text-decoration-line:none;text-decoration-color:currentColor;clip-rule:nonzero;display:inline;overflow:visible;visibility:visible;opacity:1;isolation:auto;color-interpolation:sRGB;color-interpolation-filters:linearRGB;fill:#ffffff;fill-opacity:1;fill-rule:nonzero;stroke:none;stroke-width:1;stroke-miterlimit:4;stroke-dasharray:none;stroke-opacity:0.47648908;marker:none;marker-start:none;marker-mid:none;marker-end:none;color-rendering:auto;image-rendering:auto;shape-rendering:auto;text-rendering:auto;enable-background:accumulate"
     d="m 78.93891,6.610171 a 18.309835,18.309835 0 0 0 -11.90264,4.42322 18.309835,18.309835 0 0 0 -6.56691,-1.2399 18.309835,18.309835 0 0 0 -3.13456,0.27167 18.309835,18.309835 0 0 0 -10.23958,-3.13805 18.309835,18.309835 0 0 0 -11.99145,4.50507 18.309835,18.309835 0 0 0 -4.88469,-0.68264 18.309835,18.309835 0 0 0 -18.31108,18.30933 18.309835,18.309835 0 0 0 3.56644,10.82122 18.309835,18.309835 0 0 0 -0.0627,1.27994 18.309835,18.309835 0 0 0 0.24554,2.94649 18.309835,18.309835 0 0 0 -3.74929,11.06323 18.309835,18.309835 0 0 0 18.31108,18.311099 18.309835,18.309835 0 0 0 0.0923,0 18.309835,18.309835 0 0 0 12.64448,5.0972 18.309835,18.309835 0 0 0 7.33663,-1.5586 18.309835,18.309835 0 0 0 9.22258,2.5146 18.309835,18.309835 0 0 0 16.51393,-10.4572 18.309835,18.309835 0 0 0 10.23435,3.1328 18.309835,18.309835 0 0 0 18.30934,-18.309299 18.309835,18.309835 0 0 0 -3.34877,-10.5165 18.309835,18.309835 0 0 0 2.71141,-9.54475 18.309835,18.309835 0 0 0 -7.72148,-14.92227 18.309835,18.309835 0 0 0 -17.27493,-12.30316 z"
     id="circle7624"
     inkscape:connector-curvature="0" />
  <g
     id="g7904"
     transform="translate(-6.41424,-942.9591)">
    <circle
       transform="matrix(0.89160934,0,0,0.89160934,13.206834,110.46345)"
       r="6.9642863"
       cy="1013.9693"
       cx="115.89285"
       id="circle7740"
       style="color:#000000;text-decoration:none;text-decoration-line:none;text-decoration-color:currentColor;clip-rule:nonzero;display:inline;overflow:visible;visibility:visible;opacity:0.37300002;isolation:auto;color-interpolation:sRGB;color-interpolation-filters:linearRGB;fill:#000000;fill-opacity:1;fill-rule:nonzero;stroke:none;stroke-width:1;stroke-linecap:butt;stroke-linejoin:miter;stroke-miterlimit:4;stroke-dasharray:none;stroke-dashoffset:0;stroke-opacity:0.47648908;marker:none;marker-start:none;marker-mid:none;marker-end:none;filter:url(#filter7725);color-rendering:auto;image-rendering:auto;shape-rendering:auto;text-rendering:auto;enable-background:accumulate"
       d="m 122.85714,1013.9693 a 6.9642863,6.9642863 0 0 1 -6.96429,6.9643 6.9642863,6.9642863 0 0 1 -6.96428,-6.9643 6.9642863,6.9642863 0 0 1 6.96428,-6.9643 6.9642863,6.9642863 0 0 1 6.96429,6.9643 z" />
    <circle
       style="color:#000000;text-decoration:none;text-decoration-line:none;text-decoration-color:currentColor;clip-rule:nonzero;display:inline;overflow:visible;visibility:visible;opacity:1;isolation:auto;color-interpolation:sRGB;color-interpolation-filters:linearRGB;fill:#ffffff;fill-opacity:1;fill-rule:nonzero;stroke:none;stroke-width:1;stroke-miterlimit:4;stroke-dasharray:none;stroke-opacity:0.47648908;marker:none;marker-start:none;marker-mid:none;marker-end:none;color-rendering:auto;image-rendering:auto;shape-rendering:auto;text-rendering:auto;enable-background:accumulate"
       id="circle7648"
       cx="116.53799"
       cy="1014.528"
       r="6.2094226"
       d="m 122.74741,1014.528 a 6.2094226,6.2094226 0 0 1 -6.20942,6.2094 6.2094226,6.2094226 0 0 1 -6.20943,-6.2094 6.2094226,6.2094226 0 0 1 6.20943,-6.2094 6.2094226,6.2094226 0 0 1 6.20942,6.2094 z" />
  </g>
  <g
     id="g7916"
     transform="translate(-17.31804,-949.6411)">
    <circle
       transform="matrix(0.89160934,0,0,0.89160934,13.206834,110.46345)"
       style="color:#000000;text-decoration:none;text-decoration-line:none;text-decoration-color:currentColor;clip-rule:nonzero;display:inline;overflow:visible;visibility:visible;opacity:0.37300002;isolation:auto;color-interpolation:sRGB;color-interpolation-filters:linearRGB;fill:#000000;fill-opacity:1;fill-rule:nonzero;stroke:none;stroke-width:1;stroke-linecap:butt;stroke-linejoin:miter;stroke-miterlimit:4;stroke-dasharray:none;stroke-dashoffset:0;stroke-opacity:0.47648908;marker:none;marker-start:none;marker-mid:none;marker-end:none;filter:url(#filter7725);color-rendering:auto;image-rendering:auto;shape-rendering:auto;text-rendering:auto;enable-background:accumulate"
       id="circle7773"
       cx="157.67857"
       cy="1039.6837"
       r="3.3928576"
       d="m 161.07143,1039.6837 a 3.3928576,3.3928576 0 0 1 -3.39286,3.3929 3.3928576,3.3928576 0 0 1 -3.39285,-3.3929 3.3928576,3.3928576 0 0 1 3.39285,-3.3928 3.3928576,3.3928576 0 0 1 3.39286,3.3928 z" />
    <circle
       r="3.0251036"
       cy="1037.4552"
       cx="153.79453"
       id="path7622"
       style="color:#000000;text-decoration:none;text-decoration-line:none;text-decoration-color:currentColor;clip-rule:nonzero;display:inline;overflow:visible;visibility:visible;opacity:1;isolation:auto;color-interpolation:sRGB;color-interpolation-filters:linearRGB;fill:#ffffff;fill-opacity:1;fill-rule:nonzero;stroke:none;stroke-width:1;stroke-miterlimit:4;stroke-dasharray:none;stroke-opacity:0.47648908;marker:none;marker-start:none;marker-mid:none;marker-end:none;color-rendering:auto;image-rendering:auto;shape-rendering:auto;text-rendering:auto;enable-background:accumulate"
       d="m 156.81963,1037.4552 a 3.0251036,3.0251036 0 0 1 -3.0251,3.0251 3.0251036,3.0251036 0 0 1 -3.02511,-3.0251 3.0251036,3.0251036 0 0 1 3.02511,-3.0251 3.0251036,3.0251036 0 0 1 3.0251,3.0251 z" />
  </g>
  <g
     id="g7908"
     transform="translate(-4.93937,-940.1662)">
    <circle
       transform="matrix(0.89160934,0,0,0.89160934,13.206834,110.46345)"
       style="color:#000000;text-decoration:none;text-decoration-line:none;text-decoration-color:currentColor;clip-rule:nonzero;display:inline;overflow:visible;visibility:visible;opacity:0.37300002;isolation:auto;color-interpolation:sRGB;color-interpolation-filters:linearRGB;fill:#000000;fill-opacity:1;fill-rule:nonzero;stroke:none;stroke-width:1;stroke-linecap:butt;stroke-linejoin:miter;stroke-miterlimit:4;stroke-dasharray:none;stroke-dashoffset:0;stroke-opacity:0.47648908;marker:none;marker-start:none;marker-mid:none;marker-end:none;filter:url(#filter7725);color-rendering:auto;image-rendering:auto;shape-rendering:auto;text-rendering:auto;enable-background:accumulate"
       id="circle7751"
       cx="131.25002"
       cy="1021.4693"
       r="5.1785722"
       d="m 136.42859,1021.4693 a 5.1785722,5.1785722 0 0 1 -5.17857,5.1786 5.1785722,5.1785722 0 0 1 -5.17858,-5.1786 5.1785722,5.1785722 0 0 1 5.17858,-5.1786 5.1785722,5.1785722 0 0 1 5.17857,5.1786 z" />
    <circle
       r="4.6172633"
       cy="1021.215"
       cx="130.23058"
       id="circle7652"
       style="color:#000000;text-decoration:none;text-decoration-line:none;text-decoration-color:currentColor;clip-rule:nonzero;display:inline;overflow:visible;visibility:visible;opacity:1;isolation:auto;color-interpolation:sRGB;color-interpolation-filters:linearRGB;fill:#ffffff;fill-opacity:1;fill-rule:nonzero;stroke:none;stroke-width:1;stroke-miterlimit:4;stroke-dasharray:none;stroke-opacity:0.47648908;marker:none;marker-start:none;marker-mid:none;marker-end:none;color-rendering:auto;image-rendering:auto;shape-rendering:auto;text-rendering:auto;enable-background:accumulate"
       d="m 134.84784,1021.215 a 4.6172633,4.6172633 0 0 1 -4.61726,4.6173 4.6172633,4.6172633 0 0 1 -4.61727,-4.6173 4.6172633,4.6172633 0 0 1 4.61727,-4.6172 4.6172633,4.6172633 0 0 1 4.61726,4.6172 z" />
  </g>
  <g
     id="g7890"
     transform="translate(-298.93966,61.68625)">
    <g
       id="layer1-2"
       transform="translate(-266.55899,-345.34488)">
      <path
         style="fill:#294172"
         id="path25"
         d="m 642.65529,324.71712 c 0,-10.06788 -8.16108,-18.22938 -18.22897,-18.22938 -10.06282,0 -18.22179,8.15475 -18.22854,18.21631 l -4.2e-4,-4.2e-4 0,14.1071 4.2e-4,4.2e-4 c 0.005,2.28463 1.85832,4.13409 4.14463,4.13409 0.007,0 0.0127,-8.4e-4 0.0194,-8.4e-4 l 10e-4,8.4e-4 14.07083,0 0,0 c 10.06409,-0.004 18.22138,-8.16276 18.22138,-18.22812 z"
         inkscape:connector-curvature="0" />
      <path
         style="fill:#3c6eb4"
         id="path29"
         d="m 629.77863,310.80863 c -4.72528,0 -8.55576,3.83049 -8.55576,8.55577 0,0.002 0,0.004 0,0.006 l 0,4.52836 -4.51444,0 c -8.5e-4,0 -8.5e-4,0 -10e-4,0 -4.72528,0 -8.55576,3.81193 -8.55576,8.53678 0,4.72528 3.83048,8.55577 8.55576,8.55577 4.72486,0 8.55534,-3.83049 8.55534,-8.55577 0,-0.002 0,-0.004 0,-0.006 l 0,-4.54733 4.51444,0 c 8.5e-4,0 10e-4,0 0.002,0 4.72486,0 8.55534,-3.79296 8.55534,-8.51781 0,-4.72528 -3.83048,-8.55577 -8.55534,-8.55577 z m -8.55576,21.63483 c -0.004,2.48998 -2.02446,4.50811 -4.51571,4.50811 -2.49378,0 -4.53426,-2.02193 -4.53426,-4.5157 0,-2.49421 2.04048,-4.55366 4.53426,-4.55366 0.002,0 0.004,4.2e-4 0.006,4.2e-4 l 3.86971,0 c 0.001,0 0.002,-4.2e-4 0.003,-4.2e-4 0.35209,0 0.63799,0.28505 0.63799,0.63715 0,4.2e-4 -4.2e-4,8.4e-4 -4.2e-4,10e-4 l 0,3.92284 -4.2e-4,0 z m 8.55534,-8.5448 c -10e-4,0 -0.003,0 -0.004,0 l -3.87223,0 c -8.4e-4,0 -0.002,0 -0.002,0 -0.35252,0 -0.63757,-0.28506 -0.63757,-0.63758 l 0,-4.2e-4 0,-3.90343 c 0.004,-2.49083 2.02446,-4.50854 4.51571,-4.50854 2.49378,0 4.53468,2.02193 4.53468,4.51613 4.2e-4,2.49336 -2.04048,4.53384 -4.53426,4.53384 z"
         inkscape:connector-curvature="0" />
      <path
         style="fill:#ffffff"
         id="path31"
         d="m 621.22287,323.89866 0,-4.52836 c 0,-0.002 0,-0.004 0,-0.006 0,-4.72528 3.83048,-8.55577 8.55576,-8.55577 0.71685,0 1.22623,0.0805 1.88952,0.25469 0.96774,0.25385 1.75796,1.04618 1.75838,1.96922 4.2e-4,1.11575 -0.80919,1.92621 -2.0194,1.92621 -0.57642,0 -0.78473,-0.11048 -1.62892,-0.11048 -2.49125,0 -4.51149,2.01771 -4.51571,4.50854 l 0,3.90385 0,4.2e-4 c 0,0.35252 0.28505,0.63758 0.63757,0.63758 4.3e-4,0 10e-4,0 0.002,0 l 2.96521,0 c 1.10521,0 1.99747,0.88467 1.99832,1.99283 0,1.10816 -0.89353,1.99114 -1.99832,1.99114 l -3.60489,0 0,4.54733 c 0,0.002 0,0.004 0,0.006 0,4.72485 -3.83048,8.55534 -8.55534,8.55534 -0.71684,0 -1.22623,-0.0805 -1.88952,-0.25469 -0.96774,-0.25343 -1.75838,-1.04618 -1.7588,-1.9688 0,-1.11575 0.80919,-1.92663 2.01982,-1.92663 0.576,0 0.78473,0.11048 1.6285,0.11048 2.49125,0 4.51191,-2.01771 4.51613,-4.50811 0,0 0,-3.92368 0,-3.9241 0,-0.35168 -0.2859,-0.63673 -0.63799,-0.63673 -4.3e-4,0 -8.5e-4,0 -0.002,0 l -2.96521,-4.2e-4 c -1.10521,0 -1.99831,-0.88214 -1.99831,-1.9903 -4.3e-4,-1.11533 0.90238,-1.99367 2.01939,-1.99367 l 3.58339,0 0,0 z"
         inkscape:connector-curvature="0" />
      <path
         style="fill:#294172;enable-background:new"
         id="text6223"
         d="m 638.05947,339.69578 2.81558,0 0,0.37898 -1.18152,0 0,2.94935 -0.45254,0 0,-2.94935 -1.18152,0 0,-0.37898 m 3.26144,0 0.67101,0 0.84937,2.26496 0.85381,-2.26496 0.67102,0 0,3.32833 -0.43917,0 0,-2.9226 -0.85828,2.28279 -0.45255,0 -0.85827,-2.28279 0,2.9226 -0.43694,0 0,-3.32833"
         inkscape:connector-curvature="0" />
    </g>
  </g>
</svg>
