<?xml version="1.0" encoding="UTF-8" standalone="no"?>
<!-- Created with Inkscape (http://www.inkscape.org/) -->

<svg
   xmlns:dc="http://purl.org/dc/elements/1.1/"
   xmlns:cc="http://creativecommons.org/ns#"
   xmlns:rdf="http://www.w3.org/1999/02/22-rdf-syntax-ns#"
   xmlns:svg="http://www.w3.org/2000/svg"
   xmlns="http://www.w3.org/2000/svg"
   xmlns:xlink="http://www.w3.org/1999/xlink"
   xmlns:sodipodi="http://sodipodi.sourceforge.net/DTD/sodipodi-0.dtd"
   xmlns:inkscape="http://www.inkscape.org/namespaces/inkscape"
   viewBox="0 0 184 101"
   inkscape:version="0.91pre0 r13343"
   version="1.1"
   id="svg6284"
   height="101"
   width="184"
   inkscape:export-ydpi="90"
   inkscape:export-xdpi="90"
   inkscape:export-filename="/home/rlerch/Source/fedoramagazine-images/images/lightgrey-triangles/lightgrey-triangles.png"
   sodipodi:docname="freeze.svg">
  <sodipodi:namedview
     id="base"
     pagecolor="#ffffff"
     bordercolor="#666666"
     borderopacity="1.0"
     inkscape:pageopacity="0.0"
     inkscape:pageshadow="2"
     inkscape:zoom="1"
     inkscape:cx="111.62066"
     inkscape:cy="76.314226"
     inkscape:document-units="px"
     inkscape:current-layer="g4342"
     showgrid="false"
     inkscape:window-width="1920"
     inkscape:window-height="1138"
     inkscape:window-x="1920"
     inkscape:window-y="27"
     inkscape:window-maximized="1"
     borderlayer="true"
     showguides="true"
     inkscape:guide-bbox="true">
    <sodipodi:guide
       orientation="0,1"
       position="83.4386,57.75"
       id="guide4263" />
    <sodipodi:guide
       orientation="0,1"
       position="109.248,24.395184"
       id="guide4269" />
  </sodipodi:namedview>
  <defs
     id="defs6286">
    <linearGradient
       inkscape:collect="always"
       id="linearGradient4324">
      <stop
         style="stop-color:#204a87;stop-opacity:1;"
         offset="0"
         id="stop4326" />
      <stop
         style="stop-color:#3465a4;stop-opacity:1"
         offset="1"
         id="stop4328" />
    </linearGradient>
    <linearGradient
       inkscape:collect="always"
       xlink:href="#linearGradient4324"
       id="linearGradient4330"
       x1="99.25"
       y1="65"
       x2="101.5"
       y2="43.25"
       gradientUnits="userSpaceOnUse" />
    <linearGradient
       inkscape:collect="always"
       xlink:href="#linearGradient4324"
       id="linearGradient4333"
       gradientUnits="userSpaceOnUse"
       x1="99.25"
       y1="65"
       x2="101.5"
       y2="43.25"
       gradientTransform="translate(0,-15.25)" />
    <linearGradient
       inkscape:collect="always"
       xlink:href="#linearGradient4324"
       id="linearGradient4355"
       gradientUnits="userSpaceOnUse"
       gradientTransform="translate(2.889415,-15.25)"
       x1="99.25"
       y1="65"
       x2="101.5"
       y2="43.25" />
    <linearGradient
       inkscape:collect="always"
       xlink:href="#linearGradient4324"
       id="linearGradient4383"
       gradientUnits="userSpaceOnUse"
       gradientTransform="matrix(2.336113,0,0,2.336113,-273.19065,-59.716999)"
       x1="99.25"
       y1="65"
       x2="101.5"
       y2="43.25" />
    <linearGradient
       inkscape:collect="always"
       xlink:href="#linearGradient4324"
       id="linearGradient4411"
       gradientUnits="userSpaceOnUse"
       gradientTransform="matrix(0.58669973,0,0,0.58669973,30.239534,44.871147)"
       x1="99.25"
       y1="65"
       x2="101.5"
       y2="43.25" />
  </defs>
  <metadata
     id="metadata6289">
    <rdf:RDF>
      <cc:Work
         rdf:about="">
        <dc:format>image/svg+xml</dc:format>
        <dc:type
           rdf:resource="http://purl.org/dc/dcmitype/StillImage" />
        <dc:title></dc:title>
      </cc:Work>
    </rdf:RDF>
  </metadata>
  <g
     transform="translate(0,-951.3622)"
     id="layer1"
     inkscape:groupmode="layer"
     inkscape:label="Layer 1" />
  <g
     transform="matrix(1.0847757,0,0,1.0847757,-5.76469,-1036.3988)"
     id="g7356">
    <path
       inkscape:connector-curvature="0"
       d="m 83.085044,958.67053 44.951786,-6.81848 -90.156108,-0.50507 z"
       style="fill:#cfdef3;stroke:none;stroke-width:1"
       id="path7112" />
    <path
       inkscape:connector-curvature="0"
       d="m 128.03683,951.85205 33.58757,7.57611 22.4759,-7.07104 z"
       style="fill:#d2e0f4;stroke:none;stroke-width:1"
       id="path7114" />
    <path
       inkscape:connector-curvature="0"
       d="m 83.085044,958.67053 29.294426,7.07105 15.65736,-13.88953 z"
       style="fill:#c5d7f0;stroke:none;stroke-width:1"
       id="path7116" />
    <path
       inkscape:connector-curvature="0"
       d="M 54.295701,971.04492 83.085044,958.67053 37.880722,951.34698 Z"
       style="fill:#c2d5f0;stroke:none;stroke-width:1"
       id="path7118" />
    <path
       inkscape:connector-curvature="0"
       d="m 128.03683,951.85205 19.44544,21.21314 14.14213,-13.63703 z"
       style="fill:#d0def3;stroke:none;stroke-width:1"
       id="path7120" />
    <path
       inkscape:connector-curvature="0"
       d="m 87.378197,974.83301 25.001273,-9.09143 -29.294426,-7.07105 z"
       style="fill:#c6d8f1;stroke:none;stroke-width:1"
       id="path7122" />
    <path
       inkscape:connector-curvature="0"
       d="m 125.76399,984.42944 2.27284,-32.57739 -15.65736,13.88953 z"
       style="fill:#bcd1ee;stroke:none;stroke-width:1"
       id="path7124" />
    <path
       inkscape:connector-curvature="0"
       d="M 0.5050765,951.59949 23.486045,984.68195 37.880722,951.34698 Z"
       style="fill:#d8e3f5;stroke:none;stroke-width:1"
       id="path7126" />
    <path
       inkscape:connector-curvature="0"
       d="m 125.76399,984.42944 21.71828,-11.36425 -19.44544,-21.21314 z"
       style="fill:#cadbf2;stroke:none;stroke-width:1"
       id="path7128" />
    <path
       inkscape:connector-curvature="0"
       d="m 54.295701,971.04492 33.082496,3.78809 -4.293153,-16.16248 z"
       style="fill:#cbdbf2;stroke:none;stroke-width:1"
       id="path7130" />
    <path
       inkscape:connector-curvature="0"
       d="M 23.486045,984.68195 54.295701,971.04492 37.880722,951.34698 Z"
       style="fill:#d2e0f4;stroke:none;stroke-width:1"
       id="path7132" />
    <path
       inkscape:connector-curvature="0"
       d="M -0.2525375,988.7226 23.486045,984.68195 0.5050765,951.59949 Z"
       style="fill:#ecf2fa;stroke:none;stroke-width:1"
       id="path7134" />
    <path
       inkscape:connector-curvature="0"
       d="m 161.6244,959.42816 22.98098,30.80969 -0.50508,-37.88073 z"
       style="fill:#d5e0f4;stroke:none;stroke-width:1"
       id="path7136" />
    <path
       inkscape:connector-curvature="0"
       d="m 164.1498,997.30889 -2.5254,-37.88073 -14.14213,13.63703 z"
       style="fill:#d5e2f4;stroke:none;stroke-width:1"
       id="path7138" />
    <path
       inkscape:connector-curvature="0"
       d="m 164.1498,997.30889 20.45558,-7.07104 -22.98098,-30.80969 z"
       style="fill:#c7d8f1;stroke:none;stroke-width:1"
       id="path7140" />
    <path
       inkscape:connector-curvature="0"
       d="M 60.356614,996.80377 87.378197,974.83301 54.295701,971.04492 Z"
       style="fill:#ccddf3;stroke:none;stroke-width:1"
       id="path7142" />
    <path
       inkscape:connector-curvature="0"
       d="m 112.37947,965.74158 -2.52538,36.61802 15.9099,-17.93016 z"
       style="fill:#b4cbec;stroke:none;stroke-width:1"
       id="path7144" />
    <path
       inkscape:connector-curvature="0"
       d="m 87.378197,974.83301 22.475893,27.52659 2.52538,-36.61802 z"
       style="fill:#d2e0f4;stroke:none;stroke-width:1"
       id="path7146" />
    <path
       inkscape:connector-curvature="0"
       d="m 60.356614,996.80377 27.021583,1.2627 0,-23.23346 z"
       style="fill:#ccdcf2;stroke:none;stroke-width:1"
       id="path7148" />
    <path
       inkscape:connector-curvature="0"
       d="m 87.378197,998.06647 22.475893,4.29313 -22.475893,-27.52659 z"
       style="fill:#c3d5ee;stroke:none;stroke-width:1"
       id="path7150" />
    <path
       inkscape:connector-curvature="0"
       d="m 23.486045,984.68195 36.870569,12.12182 -6.060913,-25.75885 z"
       style="fill:#d6e3f5;stroke:none;stroke-width:1"
       id="path7152" />
    <path
       inkscape:connector-curvature="0"
       d="m 125.76399,984.42944 38.38581,12.87945 -16.66753,-24.2437 z"
       style="fill:#cadbf2;stroke:none;stroke-width:1"
       id="path7154" />
    <path
       inkscape:connector-curvature="0"
       d="m 125.76399,984.42944 26.01143,29.04186 12.37438,-16.16241 z"
       style="fill:#b1c5ea;stroke:none;stroke-width:1"
       id="path7156" />
    <path
       inkscape:connector-curvature="0"
       d="m -0.2525375,988.7226 16.9200545,27.5266 6.818528,-31.56725 z"
       style="fill:#c3d6f0;stroke:none;stroke-width:1"
       id="path7158" />
    <path
       inkscape:connector-curvature="0"
       d="m 96.722106,1020.0373 13.131984,-17.6777 -22.475893,-4.29313 z"
       style="fill:#bccfee;stroke:none;stroke-width:1"
       id="path7160" />
    <path
       inkscape:connector-curvature="0"
       d="M -0.2525375,1024.078 16.667517,1016.2492 -0.2525375,988.7226 Z"
       style="fill:#d2ddf2;stroke:none;stroke-width:1"
       id="path7162" />
    <path
       inkscape:connector-curvature="0"
       d="m 164.1498,997.30889 20.96066,27.77921 -0.50508,-34.85025 z"
       style="fill:#c8d9f1;stroke:none;stroke-width:1"
       id="path7164" />
    <path
       inkscape:connector-curvature="0"
       d="m 109.85409,1002.3596 41.92133,11.1117 -26.01143,-29.04186 z"
       style="fill:#c2d5f0;stroke:none;stroke-width:1"
       id="path7166" />
    <path
       inkscape:connector-curvature="0"
       d="M 16.667517,1016.2492 60.356614,996.80377 23.486045,984.68195 Z"
       style="fill:#d4e1f4;stroke:none;stroke-width:1"
       id="path7168" />
    <path
       inkscape:connector-curvature="0"
       d="m 124.75384,1028.3711 27.02158,-14.8998 -41.92133,-11.1117 z"
       style="fill:#c3d6f0;stroke:none;stroke-width:1"
       id="path7170" />
    <path
       inkscape:connector-curvature="0"
       d="m 16.667517,1016.2492 28.536809,14.8997 15.152288,-34.34513 z"
       style="fill:#b5cef0;stroke:none;stroke-width:1"
       id="path7172" />
    <path
       inkscape:connector-curvature="0"
       d="m 151.77542,1013.4713 33.33504,11.6168 -20.96066,-27.77921 z"
       style="fill:#d0def3;stroke:none;stroke-width:1"
       id="path7174" />
    <path
       inkscape:connector-curvature="0"
       d="m 96.722106,1020.0373 28.031734,8.3338 -14.89975,-26.0115 z"
       style="fill:#dbe8f6;stroke:none;stroke-width:1"
       id="path7176" />
    <path
       inkscape:connector-curvature="0"
       d="m 71.215751,1036.1997 16.162446,-38.13323 -27.021583,-1.2627 z"
       style="fill:#c2d5f0;stroke:none;stroke-width:1"
       id="path7178" />
    <path
       inkscape:connector-curvature="0"
       d="m 71.215751,1036.1997 25.506355,-16.1624 -9.343909,-21.97083 z"
       style="fill:#c8d9f1;stroke:none;stroke-width:1"
       id="path7180" />
    <path
       inkscape:connector-curvature="0"
       d="m 45.204326,1031.1489 26.011425,5.0508 -10.859137,-39.39593 z"
       style="fill:#b3cbec;stroke:none;stroke-width:1"
       id="path7182" />
    <path
       inkscape:connector-curvature="0"
       d="m 124.75384,1028.3711 19.95051,11.3641 7.07107,-26.2639 z"
       style="fill:#bed2ef;stroke:none;stroke-width:1"
       id="path7184" />
    <path
       inkscape:connector-curvature="0"
       d="m 151.77542,1013.4713 18.68782,27.2742 14.64722,-15.6574 z"
       style="fill:#c7d9f2;stroke:none;stroke-width:1"
       id="path7186" />
    <path
       inkscape:connector-curvature="0"
       d="m -0.2525375,1024.078 19.1928965,17.6776 -2.272842,-25.5064 z"
       style="fill:#d9e4f5;stroke:none;stroke-width:1"
       id="path7188" />
    <path
       inkscape:connector-curvature="0"
       d="m 18.940359,1041.7556 26.263967,-10.6067 -28.536809,-14.8997 z"
       style="fill:#eaf1fa;stroke:none;stroke-width:1"
       id="path7190" />
    <path
       inkscape:connector-curvature="0"
       d="m 144.70435,1039.7352 25.75889,1.0103 -18.68782,-27.2742 z"
       style="fill:#e6edf8;stroke:none;stroke-width:1"
       id="path7192" />
    <path
       inkscape:connector-curvature="0"
       d="m 183.84776,1052.6147 1.2627,-27.5266 -14.64722,15.6574 z"
       style="fill:#c7d7f1;stroke:none;stroke-width:1"
       id="path7194" />
    <path
       inkscape:connector-curvature="0"
       d="M 0.2525385,1052.1096 18.940359,1041.7556 -0.2525375,1024.078 Z"
       style="fill:#c9daf1;stroke:none;stroke-width:1"
       id="path7196" />
    <path
       inkscape:connector-curvature="0"
       d="m 83.842659,1052.8673 12.879447,-32.83 -25.506355,16.1624 z"
       style="fill:#bdd1ed;stroke:none;stroke-width:1"
       id="path7198" />
    <path
       inkscape:connector-curvature="0"
       d="m 83.842659,1052.8673 40.911181,-24.4962 -28.031734,-8.3338 z"
       style="fill:#c0d5f0;stroke:none;stroke-width:1"
       id="path7200" />
    <path
       inkscape:connector-curvature="0"
       d="m 45.204326,1031.1489 38.638333,21.7184 -12.626908,-16.6676 z"
       style="fill:#c0d3ef;stroke:none;stroke-width:1"
       id="path7202" />
    <path
       inkscape:connector-curvature="0"
       d="m 83.842659,1052.8673 60.861691,-13.1321 -19.95051,-11.3641 z"
       style="fill:#bbd1ee;stroke:none;stroke-width:1"
       id="path7204" />
    <path
       inkscape:connector-curvature="0"
       d="m 144.70435,1039.7352 39.14341,12.8795 -13.38452,-11.8692 z"
       style="fill:#c1d5f0;stroke:none;stroke-width:1"
       id="path7206" />
    <path
       inkscape:connector-curvature="0"
       d="m 18.940359,1041.7556 64.9023,11.1117 -38.638333,-21.7184 z"
       style="fill:#d9e4f5;stroke:none;stroke-width:1"
       id="path7208" />
    <path
       inkscape:connector-curvature="0"
       d="m 0.2525385,1052.1096 83.5901205,0.7577 -64.9023,-11.1117 z"
       style="fill:#cee0f3;stroke:none;stroke-width:1"
       id="path7210" />
    <path
       inkscape:connector-curvature="0"
       d="m 83.842659,1052.8673 100.005101,-0.2526 -39.14341,-12.8795 z"
       style="fill:#d5e2f4;stroke:none;stroke-width:1"
       id="path7212" />
    <path
       inkscape:connector-curvature="0"
       d="m 185.11046,1025.0881 -1.01016,-72.73098 0.50508,37.88073 z"
       style="fill:#b5cced;stroke:none;stroke-width:1"
       id="path7214" />
  </g>
  <g
     transform="matrix(1.0847757,0,0,1.0847757,-5.76469,-1036.3988)"
     id="g7410">
    <path
       id="path7412"
       style="fill:#cfdef3;stroke:none;stroke-width:1"
       d="m 83.085044,958.67053 44.951786,-6.81848 -90.156108,-0.50507 z"
       inkscape:connector-curvature="0" />
    <path
       id="path7414"
       style="fill:#d2e0f4;stroke:none;stroke-width:1"
       d="m 128.03683,951.85205 33.58757,7.57611 22.4759,-7.07104 z"
       inkscape:connector-curvature="0" />
    <path
       id="path7416"
       style="fill:#c5d7f0;stroke:none;stroke-width:1"
       d="m 83.085044,958.67053 29.294426,7.07105 15.65736,-13.88953 z"
       inkscape:connector-curvature="0" />
    <path
       id="path7418"
       style="fill:#c2d5f0;stroke:none;stroke-width:1"
       d="M 54.295701,971.04492 83.085044,958.67053 37.880722,951.34698 Z"
       inkscape:connector-curvature="0" />
    <path
       id="path7420"
       style="fill:#d0def3;stroke:none;stroke-width:1"
       d="m 128.03683,951.85205 19.44544,21.21314 14.14213,-13.63703 z"
       inkscape:connector-curvature="0" />
    <path
       id="path7422"
       style="fill:#c6d8f1;stroke:none;stroke-width:1"
       d="m 87.378197,974.83301 25.001273,-9.09143 -29.294426,-7.07105 z"
       inkscape:connector-curvature="0" />
    <path
       id="path7424"
       style="fill:#bcd1ee;stroke:none;stroke-width:1"
       d="m 125.76399,984.42944 2.27284,-32.57739 -15.65736,13.88953 z"
       inkscape:connector-curvature="0" />
    <path
       id="path7426"
       style="fill:#d8e3f5;stroke:none;stroke-width:1"
       d="M 0.5050765,951.59949 23.486045,984.68195 37.880722,951.34698 Z"
       inkscape:connector-curvature="0" />
    <path
       id="path7428"
       style="fill:#cadbf2;stroke:none;stroke-width:1"
       d="m 125.76399,984.42944 21.71828,-11.36425 -19.44544,-21.21314 z"
       inkscape:connector-curvature="0" />
    <path
       id="path7430"
       style="fill:#cbdbf2;stroke:none;stroke-width:1"
       d="m 54.295701,971.04492 33.082496,3.78809 -4.293153,-16.16248 z"
       inkscape:connector-curvature="0" />
    <path
       id="path7432"
       style="fill:#d2e0f4;stroke:none;stroke-width:1"
       d="M 23.486045,984.68195 54.295701,971.04492 37.880722,951.34698 Z"
       inkscape:connector-curvature="0" />
    <path
       id="path7434"
       style="fill:#ecf2fa;stroke:none;stroke-width:1"
       d="M -0.2525375,988.7226 23.486045,984.68195 0.5050765,951.59949 Z"
       inkscape:connector-curvature="0" />
    <path
       id="path7436"
       style="fill:#d5e0f4;stroke:none;stroke-width:1"
       d="m 161.6244,959.42816 22.98098,30.80969 -0.50508,-37.88073 z"
       inkscape:connector-curvature="0" />
    <path
       id="path7438"
       style="fill:#d5e2f4;stroke:none;stroke-width:1"
       d="m 164.1498,997.30889 -2.5254,-37.88073 -14.14213,13.63703 z"
       inkscape:connector-curvature="0" />
    <path
       id="path7440"
       style="fill:#c7d8f1;stroke:none;stroke-width:1"
       d="m 164.1498,997.30889 20.45558,-7.07104 -22.98098,-30.80969 z"
       inkscape:connector-curvature="0" />
    <path
       id="path7442"
       style="fill:#ccddf3;stroke:none;stroke-width:1"
       d="M 60.356614,996.80377 87.378197,974.83301 54.295701,971.04492 Z"
       inkscape:connector-curvature="0" />
    <path
       id="path7444"
       style="fill:#b4cbec;stroke:none;stroke-width:1"
       d="m 112.37947,965.74158 -2.52538,36.61802 15.9099,-17.93016 z"
       inkscape:connector-curvature="0" />
    <path
       id="path7446"
       style="fill:#d2e0f4;stroke:none;stroke-width:1"
       d="m 87.378197,974.83301 22.475893,27.52659 2.52538,-36.61802 z"
       inkscape:connector-curvature="0" />
    <path
       id="path7448"
       style="fill:#ccdcf2;stroke:none;stroke-width:1"
       d="m 60.356614,996.80377 27.021583,1.2627 0,-23.23346 z"
       inkscape:connector-curvature="0" />
    <path
       id="path7450"
       style="fill:#c3d5ee;stroke:none;stroke-width:1"
       d="m 87.378197,998.06647 22.475893,4.29313 -22.475893,-27.52659 z"
       inkscape:connector-curvature="0" />
    <path
       id="path7452"
       style="fill:#d6e3f5;stroke:none;stroke-width:1"
       d="m 23.486045,984.68195 36.870569,12.12182 -6.060913,-25.75885 z"
       inkscape:connector-curvature="0" />
    <path
       id="path7454"
       style="fill:#cadbf2;stroke:none;stroke-width:1"
       d="m 125.76399,984.42944 38.38581,12.87945 -16.66753,-24.2437 z"
       inkscape:connector-curvature="0" />
    <path
       id="path7456"
       style="fill:#b1c5ea;stroke:none;stroke-width:1"
       d="m 125.76399,984.42944 26.01143,29.04186 12.37438,-16.16241 z"
       inkscape:connector-curvature="0" />
    <path
       id="path7458"
       style="fill:#c3d6f0;stroke:none;stroke-width:1"
       d="m -0.2525375,988.7226 16.9200545,27.5266 6.818528,-31.56725 z"
       inkscape:connector-curvature="0" />
    <path
       id="path7460"
       style="fill:#bccfee;stroke:none;stroke-width:1"
       d="m 96.722106,1020.0373 13.131984,-17.6777 -22.475893,-4.29313 z"
       inkscape:connector-curvature="0" />
    <path
       id="path7462"
       style="fill:#d2ddf2;stroke:none;stroke-width:1"
       d="M -0.2525375,1024.078 16.667517,1016.2492 -0.2525375,988.7226 Z"
       inkscape:connector-curvature="0" />
    <path
       id="path7464"
       style="fill:#c8d9f1;stroke:none;stroke-width:1"
       d="m 164.1498,997.30889 20.96066,27.77921 -0.50508,-34.85025 z"
       inkscape:connector-curvature="0" />
    <path
       id="path7466"
       style="fill:#c2d5f0;stroke:none;stroke-width:1"
       d="m 109.85409,1002.3596 41.92133,11.1117 -26.01143,-29.04186 z"
       inkscape:connector-curvature="0" />
    <path
       id="path7468"
       style="fill:#d4e1f4;stroke:none;stroke-width:1"
       d="M 16.667517,1016.2492 60.356614,996.80377 23.486045,984.68195 Z"
       inkscape:connector-curvature="0" />
    <path
       id="path7470"
       style="fill:#c3d6f0;stroke:none;stroke-width:1"
       d="m 124.75384,1028.3711 27.02158,-14.8998 -41.92133,-11.1117 z"
       inkscape:connector-curvature="0" />
    <path
       id="path7472"
       style="fill:#b5cef0;stroke:none;stroke-width:1"
       d="m 16.667517,1016.2492 28.536809,14.8997 15.152288,-34.34513 z"
       inkscape:connector-curvature="0" />
    <path
       id="path7474"
       style="fill:#d0def3;stroke:none;stroke-width:1"
       d="m 151.77542,1013.4713 33.33504,11.6168 -20.96066,-27.77921 z"
       inkscape:connector-curvature="0" />
    <path
       id="path7476"
       style="fill:#dbe8f6;stroke:none;stroke-width:1"
       d="m 96.722106,1020.0373 28.031734,8.3338 -14.89975,-26.0115 z"
       inkscape:connector-curvature="0" />
    <path
       id="path7478"
       style="fill:#c2d5f0;stroke:none;stroke-width:1"
       d="m 71.215751,1036.1997 16.162446,-38.13323 -27.021583,-1.2627 z"
       inkscape:connector-curvature="0" />
    <path
       id="path7480"
       style="fill:#c8d9f1;stroke:none;stroke-width:1"
       d="m 71.215751,1036.1997 25.506355,-16.1624 -9.343909,-21.97083 z"
       inkscape:connector-curvature="0" />
    <path
       id="path7482"
       style="fill:#b3cbec;stroke:none;stroke-width:1"
       d="m 45.204326,1031.1489 26.011425,5.0508 -10.859137,-39.39593 z"
       inkscape:connector-curvature="0" />
    <path
       id="path7484"
       style="fill:#bed2ef;stroke:none;stroke-width:1"
       d="m 124.75384,1028.3711 19.95051,11.3641 7.07107,-26.2639 z"
       inkscape:connector-curvature="0" />
    <path
       id="path7486"
       style="fill:#c7d9f2;stroke:none;stroke-width:1"
       d="m 151.77542,1013.4713 18.68782,27.2742 14.64722,-15.6574 z"
       inkscape:connector-curvature="0" />
    <path
       id="path7488"
       style="fill:#d9e4f5;stroke:none;stroke-width:1"
       d="m -0.2525375,1024.078 19.1928965,17.6776 -2.272842,-25.5064 z"
       inkscape:connector-curvature="0" />
    <path
       id="path7490"
       style="fill:#eaf1fa;stroke:none;stroke-width:1"
       d="m 18.940359,1041.7556 26.263967,-10.6067 -28.536809,-14.8997 z"
       inkscape:connector-curvature="0" />
    <path
       id="path7492"
       style="fill:#e6edf8;stroke:none;stroke-width:1"
       d="m 144.70435,1039.7352 25.75889,1.0103 -18.68782,-27.2742 z"
       inkscape:connector-curvature="0" />
    <path
       id="path7494"
       style="fill:#c7d7f1;stroke:none;stroke-width:1"
       d="m 183.84776,1052.6147 1.2627,-27.5266 -14.64722,15.6574 z"
       inkscape:connector-curvature="0" />
    <path
       id="path7496"
       style="fill:#c9daf1;stroke:none;stroke-width:1"
       d="M 0.2525385,1052.1096 18.940359,1041.7556 -0.2525375,1024.078 Z"
       inkscape:connector-curvature="0" />
    <path
       id="path7498"
       style="fill:#bdd1ed;stroke:none;stroke-width:1"
       d="m 83.842659,1052.8673 12.879447,-32.83 -25.506355,16.1624 z"
       inkscape:connector-curvature="0" />
    <path
       id="path7500"
       style="fill:#c0d5f0;stroke:none;stroke-width:1"
       d="m 83.842659,1052.8673 40.911181,-24.4962 -28.031734,-8.3338 z"
       inkscape:connector-curvature="0" />
    <path
       id="path7502"
       style="fill:#c0d3ef;stroke:none;stroke-width:1"
       d="m 45.204326,1031.1489 38.638333,21.7184 -12.626908,-16.6676 z"
       inkscape:connector-curvature="0" />
    <path
       id="path7504"
       style="fill:#bbd1ee;stroke:none;stroke-width:1"
       d="m 83.842659,1052.8673 60.861691,-13.1321 -19.95051,-11.3641 z"
       inkscape:connector-curvature="0" />
    <path
       id="path7506"
       style="fill:#c1d5f0;stroke:none;stroke-width:1"
       d="m 144.70435,1039.7352 39.14341,12.8795 -13.38452,-11.8692 z"
       inkscape:connector-curvature="0" />
    <path
       id="path7508"
       style="fill:#d9e4f5;stroke:none;stroke-width:1"
       d="m 18.940359,1041.7556 64.9023,11.1117 -38.638333,-21.7184 z"
       inkscape:connector-curvature="0" />
    <path
       id="path7510"
       style="fill:#cee0f3;stroke:none;stroke-width:1"
       d="m 0.2525385,1052.1096 83.5901205,0.7577 -64.9023,-11.1117 z"
       inkscape:connector-curvature="0" />
    <path
       id="path7512"
       style="fill:#d5e2f4;stroke:none;stroke-width:1"
       d="m 83.842659,1052.8673 100.005101,-0.2526 -39.14341,-12.8795 z"
       inkscape:connector-curvature="0" />
    <path
       id="path7514"
       style="fill:#b5cced;stroke:none;stroke-width:1"
       d="m 185.11046,1025.0881 -1.01016,-72.73098 0.50508,37.88073 z"
       inkscape:connector-curvature="0" />
  </g>
  <g
     transform="matrix(1.0847757,0,0,1.0847757,-5.76469,-1036.3988)"
     id="g7516">
    <path
       inkscape:connector-curvature="0"
       d="m 83.085044,958.67053 44.951786,-6.81848 -90.156108,-0.50507 z"
       style="fill:#eaeaea;stroke:none;stroke-width:1"
       id="path7518" />
    <path
       inkscape:connector-curvature="0"
       d="m 128.03683,951.85205 33.58757,7.57611 22.4759,-7.07104 z"
       style="fill:#ececec;stroke:none;stroke-width:1"
       id="path7520" />
    <path
       inkscape:connector-curvature="0"
       d="m 83.085044,958.67053 29.294426,7.07105 15.65736,-13.88953 z"
       style="fill:#e4e4e4;stroke:none;stroke-width:1"
       id="path7522" />
    <path
       inkscape:connector-curvature="0"
       d="M 54.295701,971.04492 83.085044,958.67053 37.880722,951.34698 Z"
       style="fill:#e3e3e3;stroke:none;stroke-width:1"
       id="path7524" />
    <path
       inkscape:connector-curvature="0"
       d="m 128.03683,951.85205 19.44544,21.21314 14.14213,-13.63703 z"
       style="fill:#ebebeb;stroke:none;stroke-width:1"
       id="path7526" />
    <path
       inkscape:connector-curvature="0"
       d="m 87.378197,974.83301 25.001273,-9.09143 -29.294426,-7.07105 z"
       style="fill:#e6e6e6;stroke:none;stroke-width:1"
       id="path7528" />
    <path
       inkscape:connector-curvature="0"
       d="m 125.76399,984.42944 2.27284,-32.57739 -15.65736,13.88953 z"
       style="fill:#e0e0e0;stroke:none;stroke-width:1"
       id="path7530" />
    <path
       inkscape:connector-curvature="0"
       d="M 0.5050765,951.59949 23.486045,984.68195 37.880722,951.34698 Z"
       style="fill:#efefef;stroke:none;stroke-width:1"
       id="path7532" />
    <path
       inkscape:connector-curvature="0"
       d="m 125.76399,984.42944 21.71828,-11.36425 -19.44544,-21.21314 z"
       style="fill:#e7e7e7;stroke:none;stroke-width:1"
       id="path7534" />
    <path
       inkscape:connector-curvature="0"
       d="m 54.295701,971.04492 33.082496,3.78809 -4.293153,-16.16248 z"
       style="fill:#e8e8e8;stroke:none;stroke-width:1"
       id="path7536" />
    <path
       inkscape:connector-curvature="0"
       d="M 23.486045,984.68195 54.295701,971.04492 37.880722,951.34698 Z"
       style="fill:#ebebeb;stroke:none;stroke-width:1"
       id="path7538" />
    <path
       inkscape:connector-curvature="0"
       d="M -0.2525375,988.7226 23.486045,984.68195 0.5050765,951.59949 Z"
       style="fill:#fdfdfd;stroke:none;stroke-width:1"
       id="path7540" />
    <path
       inkscape:connector-curvature="0"
       d="m 161.6244,959.42816 22.98098,30.80969 -0.50508,-37.88073 z"
       style="fill:#ececec;stroke:none;stroke-width:1"
       id="path7542" />
    <path
       inkscape:connector-curvature="0"
       d="m 164.1498,997.30889 -2.5254,-37.88073 -14.14213,13.63703 z"
       style="fill:#eeeeee;stroke:none;stroke-width:1"
       id="path7544" />
    <path
       inkscape:connector-curvature="0"
       d="m 164.1498,997.30889 20.45558,-7.07104 -22.98098,-30.80969 z"
       style="fill:#e7e7e7;stroke:none;stroke-width:1"
       id="path7546" />
    <path
       inkscape:connector-curvature="0"
       d="M 60.356614,996.80377 87.378197,974.83301 54.295701,971.04492 Z"
       style="fill:#e8e8e8;stroke:none;stroke-width:1"
       id="path7548" />
    <path
       inkscape:connector-curvature="0"
       d="m 112.37947,965.74158 -2.52538,36.61802 15.9099,-17.93016 z"
       style="fill:#dadada;stroke:none;stroke-width:1"
       id="path7550" />
    <path
       inkscape:connector-curvature="0"
       d="m 87.378197,974.83301 22.475893,27.52659 2.52538,-36.61802 z"
       style="fill:#ececec;stroke:none;stroke-width:1"
       id="path7552" />
    <path
       inkscape:connector-curvature="0"
       d="m 60.356614,996.80377 27.021583,1.2627 0,-23.23346 z"
       style="fill:#e9e9e9;stroke:none;stroke-width:1"
       id="path7554" />
    <path
       inkscape:connector-curvature="0"
       d="m 87.378197,998.06647 22.475893,4.29313 -22.475893,-27.52659 z"
       style="fill:#e0e0e0;stroke:none;stroke-width:1"
       id="path7556" />
    <path
       inkscape:connector-curvature="0"
       d="m 23.486045,984.68195 36.870569,12.12182 -6.060913,-25.75885 z"
       style="fill:#efefef;stroke:none;stroke-width:1"
       id="path7558" />
    <path
       inkscape:connector-curvature="0"
       d="m 125.76399,984.42944 38.38581,12.87945 -16.66753,-24.2437 z"
       style="fill:#e8e8e8;stroke:none;stroke-width:1"
       id="path7560" />
    <path
       inkscape:connector-curvature="0"
       d="m 125.76399,984.42944 26.01143,29.04186 12.37438,-16.16241 z"
       style="fill:#d5d5d5;stroke:none;stroke-width:1"
       id="path7562" />
    <path
       inkscape:connector-curvature="0"
       d="m -0.2525375,988.7226 16.9200545,27.5266 6.818528,-31.56725 z"
       style="fill:#e4e4e4;stroke:none;stroke-width:1"
       id="path7564" />
    <path
       inkscape:connector-curvature="0"
       d="m 96.722106,1020.0373 13.131984,-17.6777 -22.475893,-4.29313 z"
       style="fill:#e0e0e0;stroke:none;stroke-width:1"
       id="path7566" />
    <path
       inkscape:connector-curvature="0"
       d="M -0.2525375,1024.078 16.667517,1016.2492 -0.2525375,988.7226 Z"
       style="fill:#eaeaea;stroke:none;stroke-width:1"
       id="path7568" />
    <path
       inkscape:connector-curvature="0"
       d="m 164.1498,997.30889 20.96066,27.77921 -0.50508,-34.85025 z"
       style="fill:#e6e6e6;stroke:none;stroke-width:1"
       id="path7570" />
    <path
       inkscape:connector-curvature="0"
       d="m 109.85409,1002.3596 41.92133,11.1117 -26.01143,-29.04186 z"
       style="fill:#e3e3e3;stroke:none;stroke-width:1"
       id="path7572" />
    <path
       inkscape:connector-curvature="0"
       d="M 16.667517,1016.2492 60.356614,996.80377 23.486045,984.68195 Z"
       style="fill:#efefef;stroke:none;stroke-width:1"
       id="path7574" />
    <path
       inkscape:connector-curvature="0"
       d="m 124.75384,1028.3711 27.02158,-14.8998 -41.92133,-11.1117 z"
       style="fill:#e3e3e3;stroke:none;stroke-width:1"
       id="path7576" />
    <path
       inkscape:connector-curvature="0"
       d="m 16.667517,1016.2492 28.536809,14.8997 15.152288,-34.34513 z"
       style="fill:#dadada;stroke:none;stroke-width:1"
       id="path7578" />
    <path
       inkscape:connector-curvature="0"
       d="m 151.77542,1013.4713 33.33504,11.6168 -20.96066,-27.77921 z"
       style="fill:#e9e9e9;stroke:none;stroke-width:1"
       id="path7580" />
    <path
       inkscape:connector-curvature="0"
       d="m 96.722106,1020.0373 28.031734,8.3338 -14.89975,-26.0115 z"
       style="fill:#f3f3f3;stroke:none;stroke-width:1"
       id="path7582" />
    <path
       inkscape:connector-curvature="0"
       d="m 71.215751,1036.1997 16.162446,-38.13323 -27.021583,-1.2627 z"
       style="fill:#e3e3e3;stroke:none;stroke-width:1"
       id="path7584" />
    <path
       inkscape:connector-curvature="0"
       d="m 71.215751,1036.1997 25.506355,-16.1624 -9.343909,-21.97083 z"
       style="fill:#e6e6e6;stroke:none;stroke-width:1"
       id="path7586" />
    <path
       inkscape:connector-curvature="0"
       d="m 45.204326,1031.1489 26.011425,5.0508 -10.859137,-39.39593 z"
       style="fill:#dadada;stroke:none;stroke-width:1"
       id="path7588" />
    <path
       inkscape:connector-curvature="0"
       d="m 124.75384,1028.3711 19.95051,11.3641 7.07107,-26.2639 z"
       style="fill:#e1e1e1;stroke:none;stroke-width:1"
       id="path7590" />
    <path
       inkscape:connector-curvature="0"
       d="m 151.77542,1013.4713 18.68782,27.2742 14.64722,-15.6574 z"
       style="fill:#e5e5e5;stroke:none;stroke-width:1"
       id="path7592" />
    <path
       inkscape:connector-curvature="0"
       d="m -0.2525375,1024.078 19.1928965,17.6776 -2.272842,-25.5064 z"
       style="fill:#f2f2f2;stroke:none;stroke-width:1"
       id="path7594" />
    <path
       inkscape:connector-curvature="0"
       d="m 18.940359,1041.7556 26.263967,-10.6067 -28.536809,-14.8997 z"
       style="fill:#fafafa;stroke:none;stroke-width:1"
       id="path7596" />
    <path
       inkscape:connector-curvature="0"
       d="m 144.70435,1039.7352 25.75889,1.0103 -18.68782,-27.2742 z"
       style="fill:#f6f6f6;stroke:none;stroke-width:1"
       id="path7598" />
    <path
       inkscape:connector-curvature="0"
       d="m 183.84776,1052.6147 1.2627,-27.5266 -14.64722,15.6574 z"
       style="fill:#e6e6e6;stroke:none;stroke-width:1"
       id="path7600" />
    <path
       inkscape:connector-curvature="0"
       d="M 0.2525385,1052.1096 18.940359,1041.7556 -0.2525375,1024.078 Z"
       style="fill:#e9e9e9;stroke:none;stroke-width:1"
       id="path7602" />
    <path
       inkscape:connector-curvature="0"
       d="m 83.842659,1052.8673 12.879447,-32.83 -25.506355,16.1624 z"
       style="fill:#dddddd;stroke:none;stroke-width:1"
       id="path7604" />
    <path
       inkscape:connector-curvature="0"
       d="m 83.842659,1052.8673 40.911181,-24.4962 -28.031734,-8.3338 z"
       style="fill:#e2e2e2;stroke:none;stroke-width:1"
       id="path7606" />
    <path
       inkscape:connector-curvature="0"
       d="m 45.204326,1031.1489 38.638333,21.7184 -12.626908,-16.6676 z"
       style="fill:#e2e2e2;stroke:none;stroke-width:1"
       id="path7608" />
    <path
       inkscape:connector-curvature="0"
       d="m 83.842659,1052.8673 60.861691,-13.1321 -19.95051,-11.3641 z"
       style="fill:#e0e0e0;stroke:none;stroke-width:1"
       id="path7610" />
    <path
       inkscape:connector-curvature="0"
       d="m 144.70435,1039.7352 39.14341,12.8795 -13.38452,-11.8692 z"
       style="fill:#e3e3e3;stroke:none;stroke-width:1"
       id="path7612" />
    <path
       inkscape:connector-curvature="0"
       d="m 18.940359,1041.7556 64.9023,11.1117 -38.638333,-21.7184 z"
       style="fill:#f2f2f2;stroke:none;stroke-width:1"
       id="path7614" />
    <path
       inkscape:connector-curvature="0"
       d="m 0.2525385,1052.1096 83.5901205,0.7577 -64.9023,-11.1117 z"
       style="fill:#eaeaea;stroke:none;stroke-width:1"
       id="path7616" />
    <path
       inkscape:connector-curvature="0"
       d="m 83.842659,1052.8673 100.005101,-0.2526 -39.14341,-12.8795 z"
       style="fill:#eeeeee;stroke:none;stroke-width:1"
       id="path7618" />
    <path
       inkscape:connector-curvature="0"
       d="m 185.11046,1025.0881 -1.01016,-72.73098 0.50508,37.88073 z"
       style="fill:#dbdbdb;stroke:none;stroke-width:1"
       id="path7620" />
  </g>
  <g
     transform="translate(-298.93966,61.68625)"
     id="g7890">
    <g
       transform="translate(-266.55899,-345.34488)"
       id="layer1-2" />
  </g>
  <g
     id="g4342"
     transform="matrix(1.5652331,0,0,1.5652331,-22.218368,-97.913186)">
    <path
       sodipodi:nodetypes="scscscscsssssssscscsssccscscsssssscsscscsccscsssccscscssscsscsscscssscsscscsccssscccsssssccsssccccscsccssccscscscscscscccscscscccccc"
       style="font-style:normal;font-weight:normal;font-size:39.16242599px;line-height:125%;font-family:sans-serif;letter-spacing:0px;word-spacing:0px;fill:url(#linearGradient4333);fill-opacity:1;stroke:none;stroke-width:1px;stroke-linecap:butt;stroke-linejoin:miter;stroke-opacity:1"
       d="m 78.298828,27.154297 c -3.297182,0 -5.919729,1.174968 -7.867187,3.527344 -1.754641,2.120994 -2.63086,4.715449 -2.63086,7.78125 0,3.027237 0.876219,5.601661 2.63086,7.722656 1.928176,2.333094 4.550723,3.498047 7.867187,3.498047 3.277901,0 5.890432,-1.184983 7.837891,-3.556641 1.735359,-2.140276 2.603515,-4.742793 2.603515,-7.808594 0,-3.046519 -0.858141,-5.610928 -2.574218,-7.693359 -1.928177,-2.313812 -4.550724,-3.470703 -7.867188,-3.470703 z m -56.914062,0.08789 c -1.289965,0 -1.935547,0.735665 -1.935547,2.207031 l 0,17.777343 c 0,0.765917 0.242826,1.361887 0.726562,1.785157 0.483737,0.423269 1.057519,0.634765 1.722657,0.634765 0.644982,0 1.209622,-0.211496 1.693359,-0.634765 0.483736,-0.42327 0.726562,-1.01924 0.726562,-1.785157 l 0,-7.074218 5.441407,0 c 0.644982,0 1.148916,-0.240873 1.511718,-0.72461 0.342647,-0.423269 0.513672,-0.938298 0.513672,-1.542968 0,-0.644982 -0.180166,-1.198529 -0.542968,-1.66211 -0.362803,-0.463581 -0.857596,-0.695312 -1.482422,-0.695312 l -5.441407,0 0,-3.597656 6.197266,0 c 0.564359,0 0.998446,-0.211497 1.300781,-0.634766 0.322491,-0.42327 0.482422,-0.927204 0.482422,-1.511719 0,-0.665138 -0.200402,-1.250014 -0.603516,-1.753906 -0.403113,-0.524048 -0.967754,-0.787109 -1.693359,-0.787109 z m 14.708984,0 c -0.624826,0 -1.148996,0.211496 -1.572266,0.634765 -0.403113,0.403114 -0.603515,0.927284 -0.603515,1.572266 l 0,18.533203 c 0,0.382958 0.19126,0.767432 0.574219,1.15039 0.403113,0.362803 0.785635,0.542969 1.148437,0.542969 l 9.341797,0 c 0.503892,0 0.917743,-0.211496 1.240234,-0.634765 0.322491,-0.443426 0.484375,-0.956501 0.484375,-1.541016 0,-0.665138 -0.202355,-1.220637 -0.605469,-1.664062 -0.443425,-0.524048 -1.057678,-0.785157 -1.84375,-0.785157 l -5.443359,0 0,-3.960937 5.654297,0 c 0.544204,0 0.97829,-0.231732 1.300781,-0.695313 0.28218,-0.403114 0.421875,-0.907048 0.421875,-1.511719 0,-0.644982 -0.171025,-1.209622 -0.513672,-1.693359 -0.342646,-0.483736 -0.815251,-0.724609 -1.419922,-0.724609 l -5.443359,0 0,-4.324219 5.896485,0 c 0.60467,0 1.077275,-0.231732 1.419921,-0.695313 0.302336,-0.403113 0.455079,-0.916189 0.455079,-1.541015 0,-0.705449 -0.191261,-1.310561 -0.574219,-1.814453 -0.443425,-0.56436 -1.028302,-0.847656 -1.753907,-0.847656 z m 14.375,0 c -0.524048,0 -0.989464,0.272202 -1.392578,0.816406 -0.382958,0.544203 -0.574219,1.088609 -0.574219,1.632812 l 0,18.050782 c 0,0.584515 0.272203,1.057119 0.816406,1.419921 0.463581,0.342647 1.007986,0.513672 1.632813,0.513672 l 6.894531,0 c 2.942731,0 5.269188,-1.138422 6.982422,-3.416015 1.551988,-2.055881 2.328125,-4.575552 2.328125,-7.558594 0,-3.083821 -0.816608,-5.704669 -2.449219,-7.861328 -1.814012,-2.398527 -4.261882,-3.597656 -7.345703,-3.597656 z m 40.771484,0 c -0.403113,-1e-6 -0.785635,0.231731 -1.148437,0.695312 -0.362803,0.443425 -0.544922,0.868371 -0.544922,1.271484 l 0,17.957032 c 0,0.927161 0.242826,1.642592 0.726563,2.146484 0.483736,0.483737 1.066659,0.726562 1.751953,0.726562 0.705449,0 1.321655,-0.251967 1.845703,-0.755859 0.524048,-0.524048 0.785156,-1.230337 0.785156,-2.117187 l 0,-6.681641 6.68164,8.164063 c 0.78607,0.967473 1.66339,1.451171 2.63086,1.451171 0.66514,0 1.22978,-0.231731 1.69336,-0.695312 0.46358,-0.463581 0.69531,-1.028222 0.69531,-1.693359 0,-0.70545 -0.2722,-1.371268 -0.8164,-1.996094 l -4.92774,-5.712891 c 1.75355,-0.564359 3.07214,-1.421438 3.95899,-2.570312 0.78607,-1.007785 1.17968,-2.166443 1.17968,-3.476563 0,-1.733389 -0.60511,-3.285663 -1.81445,-4.65625 -1.20934,-1.370587 -2.64934,-2.05664 -4.322266,-2.05664 z m 25.392576,0 c -1.65276,0 -2.83166,0.967397 -3.53711,2.902343 l -5.98632,16.871094 c -0.10078,0.262024 -0.1504,0.525085 -0.1504,0.787109 0,0.584515 0.23174,1.05712 0.69532,1.419922 0.46358,0.362803 0.99689,0.544922 1.60156,0.544922 1.14887,0 1.91587,-0.544405 2.29883,-1.632812 0.5442,-1.330276 0.89735,-2.297673 1.05859,-2.902344 l 8.37305,0 c 0.5442,1.31012 0.98743,2.306894 1.33008,2.992187 0.44342,0.987629 1.23979,1.482422 2.38867,1.482422 0.60467,0 1.1197,-0.161884 1.54297,-0.484375 0.42327,-0.342646 0.63476,-0.80611 0.63476,-1.390625 0,-0.302335 -0.0607,-0.62415 -0.18164,-0.966797 l -6.4707,-16.720703 c -0.74576,-1.934946 -1.94489,-2.902343 -3.59766,-2.902343 z m -38.248044,4.597656 c 2.217403,0 3.771241,1.136861 4.658203,3.412109 0.829116,2.120995 0.809086,4.242287 -0.05859,6.363281 -0.944807,2.275249 -2.506707,3.41211 -4.685547,3.41211 -1.677514,0 -3.008817,-0.683729 -3.992187,-2.052735 -0.906243,-1.234033 -1.359375,-2.737796 -1.359375,-4.511718 0,-1.793205 0.453132,-3.306983 1.359375,-4.541016 1.002652,-1.388287 2.362047,-2.082031 4.078121,-2.082031 z m 16.271484,0.08984 3.75,0 c 0.604671,0 1.097511,0.251967 1.480469,0.755859 0.322491,0.443425 0.484371,0.98783 0.484371,1.632812 0,0.624827 -0.16188,1.148996 -0.484371,1.572266 -0.362803,0.483737 -0.855643,0.724609 -1.480469,0.724609 l -3.75,0 z m -40.984375,0.210937 4.173828,0 c 1.189186,0 2.145489,0.634488 2.871094,1.904297 0.665138,1.148874 0.998047,2.559499 0.998047,4.232422 0,1.834168 -0.393616,3.3773 -1.179688,4.626953 -0.88685,1.431054 -2.106215,2.146484 -3.658203,2.146484 l -3.205078,0 z m 63.142575,0.9375 2.69141,7.40625 -5.44141,0 z"
       id="path4335"
       inkscape:connector-curvature="0" />
    <path
       sodipodi:nodetypes="ssscccccccccssss"
       inkscape:connector-curvature="0"
       id="rect4271"
       d="m 19.837738,26.561311 11.681218,0 c 0.34625,0 0.625,0.27875 0.625,0.625 l 0,2.267116 c -0.508812,0.70781 -0.976707,1.157969 -1.536768,2.006673 l -2.117311,-2.059115 -1.491336,0.877717 -1.5206,-1.039964 -1.215339,0.839689 -1.193243,-0.397748 -1.342106,1.259534 -1.099763,-1.767767 -0.789752,0.905981 c -0.22752,0.261005 -0.625,-0.27875 -0.625,-0.625 l 0,-2.267116 c 0,-0.34625 0.27875,-0.625 0.625,-0.625 z"
       style="color:#000000;text-decoration:none;text-decoration-line:none;text-decoration-color:currentColor;clip-rule:nonzero;display:inline;overflow:visible;visibility:visible;opacity:1;isolation:auto;color-interpolation:sRGB;color-interpolation-filters:linearRGB;fill:#ffffff;fill-opacity:1;fill-rule:nonzero;stroke:#204a87;stroke-width:0.5;stroke-miterlimit:4;stroke-dasharray:none;stroke-opacity:1;marker:none;marker-start:none;marker-mid:none;marker-end:none;color-rendering:auto;image-rendering:auto;shape-rendering:auto;text-rendering:auto;enable-background:accumulate" />
    <path
       style="color:#000000;text-decoration:none;text-decoration-line:none;text-decoration-color:currentColor;clip-rule:nonzero;display:inline;overflow:visible;visibility:visible;opacity:1;isolation:auto;color-interpolation:sRGB;color-interpolation-filters:linearRGB;fill:#ffffff;fill-opacity:1;fill-rule:nonzero;stroke:#204a87;stroke-width:0.5;stroke-miterlimit:4;stroke-dasharray:none;stroke-opacity:1;marker:none;marker-start:none;marker-mid:none;marker-end:none;color-rendering:auto;image-rendering:auto;shape-rendering:auto;text-rendering:auto;enable-background:accumulate"
       d="m 46.206456,26.561311 -11.681218,0 c -0.34625,0 -0.625,0.27875 -0.625,0.625 l 0,2.267116 c 0.508812,0.70781 0.976707,1.157969 1.536768,2.006673 l 2.117311,-2.059115 1.491336,0.877717 1.5206,-1.039964 1.215339,0.839689 1.193243,-0.397748 1.342106,1.259534 1.099763,-1.767767 0.789752,0.905981 c 0.22752,0.261005 0.625,-0.27875 0.625,-0.625 l 0,-2.267116 c 0,-0.34625 -0.27875,-0.625 -0.625,-0.625 z"
       id="path4274"
       inkscape:connector-curvature="0"
       sodipodi:nodetypes="ssscccccccccssss" />
    <path
       sodipodi:nodetypes="csscccccccccccccscc"
       inkscape:connector-curvature="0"
       id="path4276"
       d="m 56.8125,26.561311 -7.849762,0 c -0.34625,0 -0.625,0.27875 -0.625,0.625 l 0,2.267116 c 0.508812,0.70781 0.976707,1.157969 1.536768,2.006673 l 2.117311,-2.059115 1.491336,0.877717 1.5206,-1.039964 1.215339,0.839689 1.193243,-0.397748 1.342106,1.259534 1.426941,-0.705131 0.959108,1.89899 1.45901,-0.76139 0.410954,2.674764 1.405301,-0.588454 1.353201,3.275685 c 0.132201,0.320018 1.267751,-0.194428 1.1875,-0.53125 0,-5.820945 -5.910793,-9.503268 -10.143956,-9.642116 z"
       style="color:#000000;text-decoration:none;text-decoration-line:none;text-decoration-color:currentColor;clip-rule:nonzero;display:inline;overflow:visible;visibility:visible;opacity:1;isolation:auto;color-interpolation:sRGB;color-interpolation-filters:linearRGB;fill:#ffffff;fill-opacity:1;fill-rule:nonzero;stroke:#204a87;stroke-width:0.5;stroke-miterlimit:4;stroke-dasharray:none;stroke-opacity:1;marker:none;marker-start:none;marker-mid:none;marker-end:none;color-rendering:auto;image-rendering:auto;shape-rendering:auto;text-rendering:auto;enable-background:accumulate" />
    <path
       style="color:#000000;text-decoration:none;text-decoration-line:none;text-decoration-color:currentColor;clip-rule:nonzero;display:inline;overflow:visible;visibility:visible;opacity:1;isolation:auto;color-interpolation:sRGB;color-interpolation-filters:linearRGB;fill:#ffffff;fill-opacity:1;fill-rule:nonzero;stroke:#204a87;stroke-width:0.5;stroke-miterlimit:4;stroke-dasharray:none;stroke-opacity:1;marker:none;marker-start:none;marker-mid:none;marker-end:none;color-rendering:auto;image-rendering:auto;shape-rendering:auto;text-rendering:auto;enable-background:accumulate"
       d="m 24.787485,34.932316 6.289529,0 c 0.34625,0 0.625,0.27875 0.625,0.625 l 0,1.017116 c -1.40722,2.387074 0.357983,0.901674 -1.274326,-0.214689 l -1.215339,0.839689 -1.193243,-0.397748 -1.342106,1.259534 -1.099763,-1.767767 -0.789752,0.905981 c -0.22752,0.261005 -0.625,-0.27875 -0.625,-0.625 l 0,-1.017116 c 0,-0.34625 0.27875,-0.625 0.625,-0.625 z"
       id="path4278"
       inkscape:connector-curvature="0"
       sodipodi:nodetypes="sssccccccssss" />
    <path
       sodipodi:nodetypes="cccccccccccccccccccc"
       inkscape:connector-curvature="0"
       id="path4294"
       d="m 78.298828,25.94221 c -5.734108,0.165836 -7.969618,3.028349 -9.788152,7.618936 l 3.221972,-2.486933 0.730192,0.341062 1.435814,-1.679224 1.325942,1.857419 1.076632,-2.145139 1.364775,-0.883695 0.791015,0.90625 c 0.06455,0.07405 0.141755,0.07316 0.220703,0.04102 0.07934,0.03271 0.157797,0.03339 0.222657,-0.04102 l 0.789062,-0.90625 1.099609,1.767578 1.34375,-1.257812 1.190154,1.831505 1.512879,0.06949 2.598432,1.633281 C 87.124905,29.249915 84.294909,27.69611 84.294909,27.69611 82.6421,26.534701 80.648469,25.942204 78.298815,25.942204 Z"
       style="color:#000000;font-style:normal;font-variant:normal;font-weight:bold;font-stretch:normal;font-size:28.92265129px;line-height:125%;font-family:MgOpen Modata;-inkscape-font-specification:&quot;MgOpen Modata, Bold&quot;;text-align:start;text-decoration:none;text-decoration-line:none;text-decoration-color:currentColor;letter-spacing:0px;word-spacing:0px;writing-mode:lr-tb;text-anchor:start;clip-rule:nonzero;display:inline;overflow:visible;visibility:visible;opacity:1;isolation:auto;color-interpolation:sRGB;color-interpolation-filters:linearRGB;fill:#ffffff;fill-opacity:1;fill-rule:nonzero;stroke:#204a87;stroke-width:0.5;stroke-linecap:butt;stroke-linejoin:miter;stroke-miterlimit:4;stroke-dasharray:none;stroke-dashoffset:0;stroke-opacity:1;marker:none;marker-start:none;marker-mid:none;marker-end:none;color-rendering:auto;image-rendering:auto;shape-rendering:auto;text-rendering:auto;enable-background:accumulate" />
    <path
       style="color:#000000;text-decoration:none;text-decoration-line:none;text-decoration-color:currentColor;clip-rule:nonzero;display:inline;overflow:visible;visibility:visible;opacity:1;isolation:auto;color-interpolation:sRGB;color-interpolation-filters:linearRGB;fill:#ffffff;fill-opacity:1;fill-rule:nonzero;stroke:#204a87;stroke-width:0.44667721;stroke-miterlimit:4;stroke-dasharray:none;stroke-opacity:1;marker:none;marker-start:none;marker-mid:none;marker-end:none;color-rendering:auto;image-rendering:auto;shape-rendering:auto;text-rendering:auto;enable-background:accumulate"
       d="m 97.071013,26.00432 -7.01262,0 c -0.309324,0 -0.558346,0.249022 -0.558346,0.558346 l 0,2.025338 c 0.454549,0.632325 0.872545,1.034477 1.372878,1.79267 l 1.891509,-1.839519 1.332292,0.784112 1.358435,-0.929056 1.085728,0.75014 1.065989,-0.35533 1.198976,1.12521 1.274766,-0.629932 0.85682,1.696471 1.30341,-0.680191 0.36713,2.389512 1.25544,-0.525698 1.20889,2.926348 c 0.1181,0.28589 1.13255,-0.173693 1.06085,-0.474595 0,-5.200166 -5.28044,-8.489786 -9.062147,-8.613826 z"
       id="path4314"
       inkscape:connector-curvature="0"
       sodipodi:nodetypes="csscccccccccccccscc" />
    <path
       sodipodi:nodetypes="sssccccccsss"
       inkscape:connector-curvature="0"
       id="path4316"
       d="m 118.77848,26.813274 -4.28041,0 c -0.26034,0 -0.46993,0.179204 -0.46993,0.401803 l 0,1.457494 1.64243,0.530557 1.1433,-0.668577 0.9138,0.539822 0.89719,-0.255705 c 1.54095,1.627109 -0.87399,-0.730288 0.15362,0.255705 0.17108,0.167797 0.46993,-0.179203 0.46993,-0.401802 l 0,-1.457494 c 0,-0.222599 -0.20959,-0.401803 -0.46993,-0.401803 z"
       style="color:#000000;text-decoration:none;text-decoration-line:none;text-decoration-color:currentColor;clip-rule:nonzero;display:inline;overflow:visible;visibility:visible;opacity:1;isolation:auto;color-interpolation:sRGB;color-interpolation-filters:linearRGB;fill:#ffffff;fill-opacity:1;fill-rule:nonzero;stroke:#204a87;stroke-width:0.3476257;stroke-miterlimit:4;stroke-dasharray:none;stroke-opacity:1;marker:none;marker-start:none;marker-mid:none;marker-end:none;color-rendering:auto;image-rendering:auto;shape-rendering:auto;text-rendering:auto;enable-background:accumulate" />
    <path
       style="color:#000000;text-decoration:none;text-decoration-line:none;text-decoration-color:currentColor;clip-rule:nonzero;display:inline;overflow:visible;visibility:visible;opacity:1;isolation:auto;color-interpolation:sRGB;color-interpolation-filters:linearRGB;fill:#ffffff;fill-opacity:1;fill-rule:nonzero;stroke:#204a87;stroke-width:0.42446226;stroke-miterlimit:4;stroke-dasharray:none;stroke-opacity:1;marker:none;marker-start:none;marker-mid:none;marker-end:none;color-rendering:auto;image-rendering:auto;shape-rendering:auto;text-rendering:auto;enable-background:accumulate"
       d="m 119.1797,40.126408 -4.83285,0 c -0.29394,0 -0.53057,0.236639 -0.53057,0.530579 l 0,0.674611 1.85439,0.700595 1.29086,-0.882851 1.03174,0.712832 1.01298,-0.337658 c 1.73985,2.148586 -0.98678,-0.96434 0.17345,0.337658 0.19315,0.221575 0.53057,-0.236637 0.53057,-0.530576 l 0,-0.674611 c 0,-0.29394 -0.23663,-0.530579 -0.53057,-0.530579 z"
       id="path4318"
       inkscape:connector-curvature="0"
       sodipodi:nodetypes="sssccccccsss" />
    <path
       inkscape:connector-curvature="0"
       id="path4409"
       d="m 76.177434,69.749736 c -1.934455,0 -3.473103,0.689353 -4.615676,2.069492 -1.029447,1.244386 -1.543524,2.766553 -1.543524,4.565257 0,1.776079 0.514077,3.286493 1.543524,4.53088 1.131261,1.368826 2.669908,2.052303 4.615676,2.052303 1.923144,0 3.455915,-0.695229 4.598489,-2.086681 1.018135,-1.255698 1.527482,-2.782594 1.527482,-4.581299 0,-1.787392 -0.503472,-3.29193 -1.510294,-4.513692 -1.13126,-1.357513 -2.669908,-2.03626 -4.615677,-2.03626 z m -33.391465,0.05156 c -0.756822,0 -1.135583,0.431616 -1.135583,1.294865 l 0,10.429962 c 0,0.449363 0.142465,0.79902 0.426273,1.047351 0.283809,0.248333 0.620446,0.372417 1.010682,0.372417 0.378411,0 0.709685,-0.124084 0.993493,-0.372417 0.283809,-0.248331 0.426274,-0.597988 0.426274,-1.047351 l 0,-4.150442 3.192473,0 c 0.37841,0 0.674068,-0.14132 0.886924,-0.425127 0.201031,-0.248333 0.301371,-0.5505 0.301371,-0.90526 0,-0.378411 -0.105702,-0.703176 -0.318559,-0.97516 -0.212857,-0.271982 -0.503151,-0.407938 -0.869736,-0.407938 l -3.192473,0 0,-2.110744 3.635934,0 c 0.331109,0 0.585788,-0.124086 0.763168,-0.372418 0.189205,-0.248332 0.283037,-0.54399 0.283037,-0.886925 0,-0.390236 -0.117576,-0.733383 -0.354082,-1.029015 -0.236507,-0.307459 -0.567782,-0.461798 -0.993493,-0.461798 z m 8.629758,0 c -0.366586,0 -0.674115,0.124086 -0.922448,0.372417 -0.236506,0.236506 -0.354082,0.544037 -0.354082,0.922448 l 0,10.873426 c 0,0.224681 0.112218,0.450251 0.336894,0.674932 0.236507,0.212857 0.460932,0.318561 0.673788,0.318561 l 5.480829,0 c 0.295634,0 0.538439,-0.124086 0.727646,-0.372417 0.189205,-0.260158 0.284181,-0.561179 0.284181,-0.904114 0,-0.390236 -0.118721,-0.716147 -0.355228,-0.976304 -0.260157,-0.307459 -0.620539,-0.460652 -1.081727,-0.460652 l -3.193617,0 0,-2.32388 3.317374,0 c 0.319284,0 0.573963,-0.135958 0.763168,-0.40794 0.165554,-0.236507 0.247514,-0.532165 0.247514,-0.886926 0,-0.37841 -0.100344,-0.709685 -0.301371,-0.993493 -0.20103,-0.283807 -0.478308,-0.425128 -0.833068,-0.425128 l -3.193617,0 0,-2.537018 3.459466,0 c 0.35476,0 0.632036,-0.135957 0.833067,-0.407939 0.17738,-0.236507 0.266995,-0.537529 0.266995,-0.904114 0,-0.413886 -0.112218,-0.768905 -0.336894,-1.064539 -0.260158,-0.33111 -0.603305,-0.49732 -1.029017,-0.49732 z m 8.433808,0 c -0.307459,0 -0.580518,0.159701 -0.817024,0.478985 -0.224683,0.319284 -0.336895,0.638688 -0.336895,0.957971 l 0,10.590389 c 0,0.342935 0.159701,0.620212 0.478985,0.833067 0.271984,0.201031 0.591386,0.301372 0.957971,0.301372 l 4.04502,0 c 1.7265,0 3.091431,-0.667912 4.096585,-2.004175 0.910551,-1.206185 1.365911,-2.684476 1.365911,-4.434626 0,-1.809277 -0.479105,-3.346927 -1.436957,-4.612239 -1.06428,-1.407215 -2.500445,-2.110744 -4.309722,-2.110744 z m 23.920619,0 c -0.236506,0 -0.460931,0.135957 -0.673787,0.40794 -0.212857,0.260158 -0.319706,0.509473 -0.319706,0.745979 l 0,10.535387 c 0,0.543965 0.142466,0.963707 0.426274,1.259341 0.283808,0.283808 0.625809,0.426273 1.027871,0.426273 0.413886,0 0.775414,-0.147829 1.082873,-0.443462 0.307459,-0.307459 0.46065,-0.721838 0.46065,-1.242152 l 0,-3.920117 3.920117,4.789853 c 0.461188,0.567615 0.975911,0.851401 1.543525,0.851401 0.390237,0 0.721511,-0.135957 0.993493,-0.407939 0.271984,-0.271983 0.407939,-0.603257 0.407939,-0.993493 0,-0.413887 -0.1597,-0.804522 -0.478982,-1.171108 L 89.269318,77.28745 c 1.028807,-0.33111 1.802423,-0.833957 2.322738,-1.508001 0.461187,-0.591267 0.692118,-1.271052 0.692118,-2.039699 0,-1.016979 -0.355018,-1.927697 -1.064538,-2.73182 -0.709518,-0.804123 -1.554366,-1.206631 -2.535872,-1.206631 z m 14.897818,0 c -0.969674,0 -1.661334,0.567572 -2.075222,1.702805 l -3.512172,9.898265 c -0.05913,0.15373 -0.08824,0.308068 -0.08824,0.461798 0,0.342934 0.135962,0.620211 0.407944,0.833067 0.271982,0.212857 0.584875,0.319706 0.939635,0.319706 0.674042,0 1.124041,-0.319403 1.348723,-0.957971 0.319282,-0.780472 0.526475,-1.348043 0.621075,-1.702804 l 4.912465,0 c 0.31928,0.768647 0.57933,1.353454 0.78036,1.755516 0.26015,0.579441 0.72738,0.869736 1.40143,0.869736 0.35476,0 0.65693,-0.09497 0.90526,-0.284183 0.24833,-0.20103 0.37242,-0.472944 0.37242,-0.81588 0,-0.17738 -0.0356,-0.366187 -0.10661,-0.567219 l -3.79636,-9.810031 c -0.43753,-1.135233 -1.141064,-1.702805 -2.110742,-1.702805 z m -22.440117,2.697444 c 1.300949,0 2.212585,0.666996 2.732966,2.001884 0.486442,1.244387 0.47469,2.488948 -0.03437,3.733334 -0.554318,1.334889 -1.470684,2.001885 -2.749009,2.001885 -0.984197,0 -1.765273,-0.401143 -2.342215,-1.204339 -0.531693,-0.724007 -0.797545,-1.606265 -0.797545,-2.647024 0,-1.052073 0.265852,-1.940206 0.797545,-2.664213 0.588256,-0.814508 1.385812,-1.221527 2.392633,-1.221527 z m 9.546474,0.05271 2.200125,0 c 0.35476,0 0.643909,0.147829 0.86859,0.443463 0.189205,0.260156 0.284181,0.579558 0.284181,0.95797 0,0.366585 -0.09497,0.674115 -0.284181,0.922448 -0.212856,0.283808 -0.502005,0.425127 -0.86859,0.425127 l -2.200125,0 z m -24.045521,0.123757 2.448784,0 c 0.697695,0 1.258758,0.372253 1.684469,1.11725 0.390237,0.674044 0.585555,1.501657 0.585555,2.483161 0,1.076105 -0.230934,1.981462 -0.692123,2.714632 -0.520314,0.839599 -1.235715,1.259342 -2.146267,1.259342 l -1.880418,0 z m 37.045732,0.550031 1.57905,4.345244 -3.192475,0 z"
       style="font-style:normal;font-weight:normal;font-size:39.16242599px;line-height:125%;font-family:sans-serif;letter-spacing:0px;word-spacing:0px;fill:url(#linearGradient4411);fill-opacity:1;stroke:none;stroke-width:1px;stroke-linecap:butt;stroke-linejoin:miter;stroke-opacity:1"
       sodipodi:nodetypes="scscscscsssssssscscsssccscscsssssscsscscsccscsssccscscssscsscsscscssscsscscsccssscccsssssccsssccccscsccssccscscscscscscccscscscccccc" />
  </g>
  <g
     id="g4337"
     transform="matrix(2.336113,0,0,2.336113,-273.19065,-24.091276)">
    <path
       style="font-style:normal;font-weight:normal;font-size:39.16242599px;line-height:125%;font-family:sans-serif;letter-spacing:0px;word-spacing:0px;fill:url(#linearGradient4355);fill-opacity:1;stroke:none;stroke-width:1px;stroke-linecap:butt;stroke-linejoin:miter;stroke-opacity:1"
       d="m 150.9734,26.546875 c -1.75354,0 -3.28363,0.544405 -4.59375,1.632813 -1.47136,1.249652 -2.40938,3.013422 -2.8125,5.291015 -0.0403,0.181401 -0.0605,0.352426 -0.0605,0.513672 0,0.725605 0.2722,1.330717 0.8164,1.814453 0.54421,0.463581 1.14932,0.695313 1.81446,0.695313 1.02794,0 1.62195,-0.52417 1.7832,-1.572266 0.20156,-1.148874 0.58408,-2.026189 1.14844,-2.630859 0.48373,-0.524048 1.04837,-0.785157 1.69336,-0.785157 0.5442,0 1.00766,0.171026 1.39062,0.513672 0.38296,0.342647 0.57422,0.765639 0.57422,1.269531 0,1.330276 -0.99677,3.296401 -2.99219,5.896485 -1.47136,1.91479 -2.99426,3.597618 -4.5664,5.048828 -1.20934,1.148874 -1.8125,2.25792 -1.8125,3.326172 0,0.624826 0.18016,1.137902 0.54297,1.541015 0.38295,0.382959 0.87775,0.574219 1.48242,0.574219 l 11.54883,0 c 0.58451,0 1.03883,-0.231731 1.36132,-0.695312 0.30234,-0.403114 0.45313,-0.907048 0.45313,-1.511719 0,-0.644982 -0.17103,-1.218764 -0.51367,-1.722656 -0.32249,-0.503893 -0.75658,-0.75586 -1.30078,-0.75586 l -5.86524,0 3.14453,-3.326172 c 1.24966,-1.370586 2.17658,-2.610187 2.78125,-3.71875 0.78607,-1.451209 1.17969,-2.891211 1.17969,-4.322265 0,-2.116348 -0.74676,-3.850741 -2.23828,-5.201172 -1.39074,-1.249653 -3.0442,-1.875 -4.95899,-1.875 z"
       id="path4374"
       inkscape:connector-curvature="0" />
    <path
       style="color:#000000;font-style:normal;font-variant:normal;font-weight:bold;font-stretch:normal;font-size:28.92265129px;line-height:125%;font-family:MgOpen Modata;-inkscape-font-specification:'MgOpen Modata, Bold';text-align:start;text-decoration:none;text-decoration-line:none;text-decoration-color:currentColor;letter-spacing:0px;word-spacing:0px;writing-mode:lr-tb;text-anchor:start;clip-rule:nonzero;display:inline;overflow:visible;visibility:visible;opacity:1;isolation:auto;color-interpolation:sRGB;color-interpolation-filters:linearRGB;fill:#ffffff;fill-opacity:1;fill-rule:nonzero;stroke:#204a87;stroke-width:0.31232461;stroke-linecap:butt;stroke-linejoin:miter;stroke-miterlimit:4;stroke-dasharray:none;stroke-dashoffset:0;stroke-opacity:1;marker:none;marker-start:none;marker-mid:none;marker-end:none;color-rendering:auto;image-rendering:auto;shape-rendering:auto;text-rendering:auto;enable-background:accumulate;text-decoration-style:solid;blend_mode:normal;filter-blend-mode:normal;filter-gaussianBlur-deviation:0"
       d="m 150.89931,26.338429 c -4.31686,0.166507 -5.99984,3.040598 -7.3689,7.649755 l 2.42563,-2.496993 0.54971,0.342441 1.08093,-1.686016 0.99823,1.864932 0.81053,-2.153815 1.02745,-0.887271 0.59551,0.909916 c 0.0486,0.07435 0.10672,0.07345 0.16616,0.0412 0.0597,0.03285 0.11878,0.03352 0.16761,-0.0412 l 0.59404,-0.909916 0.82783,1.774728 1.01164,-1.2629 0.89597,1.838913 1.13896,0.06979 1.9562,1.639888 c -0.23289,-3.372349 -2.36342,-4.93244 -2.36342,-4.93244 -1.2443,-1.166107 -2.74519,-1.760999 -4.51409,-1.760999 z"
       id="path4320"
       inkscape:connector-curvature="0"
       sodipodi:nodetypes="cccccccccccccccccccc" />
    <g
       id="g4386"
       transform="translate(-0.26753847,0)">
      <path
         id="text4259"
         transform="matrix(0.42806149,0,0,0.42806149,116.9424,10.312547)"
         d="m 109.16602,39.548828 c -0.84757,0 -1.73993,0.474296 -2.68164,1.416016 -0.98881,0.94172 -1.48243,1.78764 -1.48243,2.541015 l 0,42.027344 c 0,2.307213 0.58848,4.093915 1.76563,5.365235 1.13878,1.229886 2.47642,1.85834 4.01172,1.898437 1.53508,-0.04023 2.87306,-0.668688 4.01172,-1.898437 1.17714,-1.27132 1.76562,-3.058022 1.76562,-5.365235 l 0,-42.027344 c 0,-0.753375 -0.49361,-1.599295 -1.48242,-2.541015 -0.94171,-0.94172 -1.83603,-1.416016 -2.6836,-1.416016 l -3.2246,0 z"
         style="font-style:normal;font-weight:normal;font-size:39.16242599px;line-height:125%;font-family:sans-serif;letter-spacing:0px;word-spacing:0px;fill:url(#linearGradient4383);fill-opacity:1;stroke:none;stroke-width:1px;stroke-linecap:butt;stroke-linejoin:miter;stroke-opacity:1"
         inkscape:connector-curvature="0" />
      <path
         sodipodi:nodetypes="ccccccccc"
         inkscape:connector-curvature="0"
         id="path4322"
         d="m 166.81205,27.355598 0,1.789693 c -0.40166,0.558755 -0.77103,0.914117 -1.21315,1.584096 l -0.87593,-1.625494 -1.17729,0.692882 -1.20038,-0.877715 -0.46232,0.169478 0,-1.789693 c 0.94129,-2.020175 4.6135,-1.419863 4.92907,0.05675 z"
         style="color:#000000;text-decoration:none;text-decoration-line:none;text-decoration-color:currentColor;clip-rule:nonzero;display:inline;overflow:visible;visibility:visible;opacity:1;isolation:auto;color-interpolation:sRGB;color-interpolation-filters:linearRGB;fill:#ffffff;fill-opacity:1;fill-rule:nonzero;stroke:#204a87;stroke-width:0.31232461;stroke-miterlimit:4;stroke-dasharray:none;stroke-opacity:1;marker:none;marker-start:none;marker-mid:none;marker-end:none;color-rendering:auto;image-rendering:auto;shape-rendering:auto;text-rendering:auto;enable-background:accumulate;text-decoration-style:solid;blend_mode:normal;stroke-linecap:butt;stroke-linejoin:miter;stroke-dashoffset:0;filter-blend-mode:normal;filter-gaussianBlur-deviation:0" />
    </g>
  </g>
  <path
     style="color:#000000;text-decoration:none;text-decoration-line:none;text-decoration-color:currentColor;clip-rule:nonzero;display:inline;overflow:visible;visibility:visible;opacity:1;isolation:auto;color-interpolation:sRGB;color-interpolation-filters:linearRGB;fill:#ffffff;fill-opacity:1;fill-rule:nonzero;stroke:#204a87;stroke-width:0.72962558;stroke-miterlimit:4;stroke-dasharray:none;stroke-opacity:1;marker:none;marker-start:none;marker-mid:none;marker-end:none;color-rendering:auto;image-rendering:auto;shape-rendering:auto;text-rendering:auto;enable-background:accumulate"
     d="m 96.129161,80.762862 -15.770208,0 c -0.467455,0 -0.843781,0.439669 -0.843781,0.985805 l 0,3.575893 c 0.686921,1.116419 1.318602,1.826449 2.074711,3.165099 l 2.858472,-3.247815 2.013376,1.384412 2.052884,-1.640323 1.640766,1.324432 1.610936,-0.627364 1.811908,1.986647 1.484733,-2.788276 1.066203,1.428993 c 0.307163,0.411679 0.843781,-0.43967 0.843781,-0.985805 l 0,-3.575893 c 0,-0.546136 -0.376326,-0.985805 -0.843781,-0.985805 z"
     id="path4274-9"
     inkscape:connector-curvature="0"
     sodipodi:nodetypes="ssscccccccccssss" />
</svg>
