<?xml version="1.0" encoding="UTF-8" standalone="no"?>
<!-- Created with Inkscape (http://www.inkscape.org/) -->

<svg
   xmlns:dc="http://purl.org/dc/elements/1.1/"
   xmlns:cc="http://creativecommons.org/ns#"
   xmlns:rdf="http://www.w3.org/1999/02/22-rdf-syntax-ns#"
   xmlns:svg="http://www.w3.org/2000/svg"
   xmlns="http://www.w3.org/2000/svg"
   xmlns:sodipodi="http://sodipodi.sourceforge.net/DTD/sodipodi-0.dtd"
   xmlns:inkscape="http://www.inkscape.org/namespaces/inkscape"
   viewBox="0 0 184 101"
   inkscape:version="0.48.5 r10040"
   version="1.1"
   id="svg6284"
   height="101"
   width="184"
   inkscape:export-ydpi="90"
   inkscape:export-xdpi="90"
   inkscape:export-filename="/home/rlerch/Source/fedoramagazine-images/images/fedora-thoughts/fedora-thoughts.png"
   sodipodi:docname="network.svg">
  <defs
     id="defs6286">
    <filter
       inkscape:collect="always"
       id="filter4035"
       x="-0.20172414"
       width="1.4034483"
       y="-0.20172414"
       height="1.4034483">
      <feGaussianBlur
         inkscape:collect="always"
         stdDeviation="5.4213362"
         id="feGaussianBlur4037" />
    </filter>
    <filter
       inkscape:collect="always"
       id="filter4053">
      <feGaussianBlur
         inkscape:collect="always"
         stdDeviation="0.83405172"
         id="feGaussianBlur4055" />
    </filter>
    <clipPath
       clipPathUnits="userSpaceOnUse"
       id="clipPath5063">
      <rect
         style="opacity:0.39473685;fill:#000000;stroke:none"
         id="rect5065"
         width="184"
         height="101"
         x="0"
         y="0" />
    </clipPath>
    <clipPath
       clipPathUnits="userSpaceOnUse"
       id="clipPath5261">
      <rect
         style="opacity:0.39473685;fill:#000000;stroke:none"
         id="rect5263"
         width="600"
         height="362"
         x="-305"
         y="192" />
    </clipPath>
    <filter
       inkscape:collect="always"
       id="filter5388"
       x="-0.037878153"
       width="1.0757563"
       y="-0.29911937"
       height="1.5982387">
      <feGaussianBlur
         inkscape:collect="always"
         stdDeviation="6.8742928"
         id="feGaussianBlur5390" />
    </filter>
  </defs>
  <sodipodi:namedview
     id="base"
     pagecolor="#ffffff"
     bordercolor="#666666"
     borderopacity="1.0"
     inkscape:pageopacity="0.0"
     inkscape:pageshadow="2"
     inkscape:zoom="0.70710678"
     inkscape:cx="-176.33232"
     inkscape:cy="-269.58876"
     inkscape:document-units="px"
     inkscape:current-layer="svg6284"
     showgrid="false"
     inkscape:window-width="1920"
     inkscape:window-height="1167"
     inkscape:window-x="0"
     inkscape:window-y="0"
     inkscape:window-maximized="1"
     borderlayer="true"
     inkscape:snap-page="true" />
  <metadata
     id="metadata6289">
    <rdf:RDF>
      <cc:Work
         rdf:about="">
        <dc:format>image/svg+xml</dc:format>
        <dc:type
           rdf:resource="http://purl.org/dc/dcmitype/StillImage" />
        <dc:title></dc:title>
      </cc:Work>
    </rdf:RDF>
  </metadata>
  <g
     inkscape:label="Layer 1"
     inkscape:groupmode="layer"
     id="layer1"
     transform="translate(0,-951.3622)" />
  <g
     id="g4893"
     clip-path="url(#clipPath5063)"
     inkscape:export-filename="/home/rlerch/Source/fedoramagazine-images/images/network/network-small.png"
     inkscape:export-xdpi="90"
     inkscape:export-ydpi="90">
    <g
       transform="matrix(1.0847757,0,0,1.0847757,-5.76469,-1036.3988)"
       id="g7356">
      <path
         inkscape:connector-curvature="0"
         d="m 83.085044,958.67053 44.951786,-6.81848 -90.156108,-0.50507 z"
         style="fill:#2c67b9;stroke:none;stroke-width:1"
         id="path7112" />
      <path
         inkscape:connector-curvature="0"
         d="m 128.03683,951.85205 33.58757,7.57611 22.4759,-7.07104 z"
         style="fill:#2c65bc;stroke:none;stroke-width:1"
         id="path7114" />
      <path
         inkscape:connector-curvature="0"
         d="m 83.085044,958.67053 29.294426,7.07105 15.65736,-13.88953 z"
         style="fill:#2a62ae;stroke:none;stroke-width:1"
         id="path7116" />
      <path
         inkscape:connector-curvature="0"
         d="M 54.295701,971.04492 83.085044,958.67053 37.880722,951.34698 Z"
         style="fill:#2861ae;stroke:none;stroke-width:1"
         id="path7118" />
      <path
         inkscape:connector-curvature="0"
         d="m 128.03683,951.85205 19.44544,21.21314 14.14213,-13.63703 z"
         style="fill:#2b69bc;stroke:none;stroke-width:1"
         id="path7120" />
      <path
         inkscape:connector-curvature="0"
         d="m 87.378197,974.83301 25.001273,-9.09143 -29.294426,-7.07105 z"
         style="fill:#2963b3;stroke:none;stroke-width:1"
         id="path7122" />
      <path
         inkscape:connector-curvature="0"
         d="m 125.76399,984.42944 2.27284,-32.57739 -15.65736,13.88953 z"
         style="fill:#265daa;stroke:none;stroke-width:1"
         id="path7124" />
      <path
         inkscape:connector-curvature="0"
         d="M 0.5050765,951.59949 23.486045,984.68195 37.880722,951.34698 Z"
         style="fill:#2e67c0;stroke:none;stroke-width:1"
         id="path7126" />
      <path
         inkscape:connector-curvature="0"
         d="m 125.76399,984.42944 21.71828,-11.36425 -19.44544,-21.21314 z"
         style="fill:#2b62b3;stroke:none;stroke-width:1"
         id="path7128" />
      <path
         inkscape:connector-curvature="0"
         d="m 54.295701,971.04492 33.082496,3.78809 -4.293153,-16.16248 z"
         style="fill:#2b66b5;stroke:none;stroke-width:1"
         id="path7130" />
      <path
         inkscape:connector-curvature="0"
         d="M 23.486045,984.68195 54.295701,971.04492 37.880722,951.34698 Z"
         style="fill:#2d66ba;stroke:none;stroke-width:1"
         id="path7132" />
      <path
         inkscape:connector-curvature="0"
         d="M -0.2525375,988.7226 23.486045,984.68195 0.5050765,951.59949 Z"
         style="fill:#3876d3;stroke:none;stroke-width:1"
         id="path7134" />
      <path
         inkscape:connector-curvature="0"
         d="m 161.6244,959.42816 22.98098,30.80969 -0.50508,-37.88073 z"
         style="fill:#2e64bb;stroke:none;stroke-width:1"
         id="path7136" />
      <path
         inkscape:connector-curvature="0"
         d="m 164.1498,997.30889 -2.5254,-37.88073 -14.14213,13.63703 z"
         style="fill:#2d68bf;stroke:none;stroke-width:1"
         id="path7138" />
      <path
         inkscape:connector-curvature="0"
         d="m 164.1498,997.30889 20.45558,-7.07104 -22.98098,-30.80969 z"
         style="fill:#2863b6;stroke:none;stroke-width:1"
         id="path7140" />
      <path
         inkscape:connector-curvature="0"
         d="M 60.356614,996.80377 87.378197,974.83301 54.295701,971.04492 Z"
         style="fill:#2665ba;stroke:none;stroke-width:1"
         id="path7142" />
      <path
         inkscape:connector-curvature="0"
         d="m 112.37947,965.74158 -2.52538,36.61802 15.9099,-17.93016 z"
         style="fill:#26589f;stroke:none;stroke-width:1"
         id="path7144" />
      <path
         inkscape:connector-curvature="0"
         d="m 87.378197,974.83301 22.475893,27.52659 2.52538,-36.61802 z"
         style="fill:#2c69bd;stroke:none;stroke-width:1"
         id="path7146" />
      <path
         inkscape:connector-curvature="0"
         d="m 60.356614,996.80377 27.021583,1.2627 0,-23.23346 z"
         style="fill:#2a63b9;stroke:none;stroke-width:1"
         id="path7148" />
      <path
         inkscape:connector-curvature="0"
         d="m 87.378197,998.06647 22.475893,4.29313 -22.475893,-27.52659 z"
         style="fill:#2b5fa6;stroke:none;stroke-width:1"
         id="path7150" />
      <path
         inkscape:connector-curvature="0"
         d="m 23.486045,984.68195 36.870569,12.12182 -6.060913,-25.75885 z"
         style="fill:#2c6ac2;stroke:none;stroke-width:1"
         id="path7152" />
      <path
         inkscape:connector-curvature="0"
         d="m 125.76399,984.42944 38.38581,12.87945 -16.66753,-24.2437 z"
         style="fill:#2a63b6;stroke:none;stroke-width:1"
         id="path7154" />
      <path
         inkscape:connector-curvature="0"
         d="m 125.76399,984.42944 26.01143,29.04186 12.37438,-16.16241 z"
         style="fill:#265095;stroke:none;stroke-width:1"
         id="path7156" />
      <path
         inkscape:connector-curvature="0"
         d="m -0.2525375,988.7226 16.9200545,27.5266 6.818528,-31.56725 z"
         style="fill:#285eb1;stroke:none;stroke-width:1"
         id="path7158" />
      <path
         inkscape:connector-curvature="0"
         d="m 96.722106,1020.0373 13.131984,-17.6777 -22.475893,-4.29313 z"
         style="fill:#2658ab;stroke:none;stroke-width:1"
         id="path7160" />
      <path
         inkscape:connector-curvature="0"
         d="M -0.2525375,1024.078 16.667517,1016.2492 -0.2525375,988.7226 Z"
         style="fill:#2f5fb5;stroke:none;stroke-width:1"
         id="path7162" />
      <path
         inkscape:connector-curvature="0"
         d="m 164.1498,997.30889 20.96066,27.77921 -0.50508,-34.85025 z"
         style="fill:#2a65b3;stroke:none;stroke-width:1"
         id="path7164" />
      <path
         inkscape:connector-curvature="0"
         d="m 109.85409,1002.3596 41.92133,11.1117 -26.01143,-29.04186 z"
         style="fill:#2860af;stroke:none;stroke-width:1"
         id="path7166" />
      <path
         inkscape:connector-curvature="0"
         d="M 16.667517,1016.2492 60.356614,996.80377 23.486045,984.68195 Z"
         style="fill:#2a6dc5;stroke:none;stroke-width:1"
         id="path7168" />
      <path
         inkscape:connector-curvature="0"
         d="m 124.75384,1028.3711 27.02158,-14.8998 -41.92133,-11.1117 z"
         style="fill:#295dae;stroke:none;stroke-width:1"
         id="path7170" />
      <path
         inkscape:connector-curvature="0"
         d="m 16.667517,1016.2492 28.536809,14.8997 15.152288,-34.34513 z"
         style="fill:#2059a5;stroke:none;stroke-width:1"
         id="path7172" />
      <path
         inkscape:connector-curvature="0"
         d="m 151.77542,1013.4713 33.33504,11.6168 -20.96066,-27.77921 z"
         style="fill:#2d67b5;stroke:none;stroke-width:1"
         id="path7174" />
      <path
         inkscape:connector-curvature="0"
         d="m 96.722106,1020.0373 28.031734,8.3338 -14.89975,-26.0115 z"
         style="fill:#2b74cc;stroke:none;stroke-width:1"
         id="path7176" />
      <path
         inkscape:connector-curvature="0"
         d="m 71.215751,1036.1997 16.162446,-38.13323 -27.021583,-1.2627 z"
         style="fill:#2862ae;stroke:none;stroke-width:1"
         id="path7178" />
      <path
         inkscape:connector-curvature="0"
         d="m 71.215751,1036.1997 25.506355,-16.1624 -9.343909,-21.97083 z"
         style="fill:#2a62b3;stroke:none;stroke-width:1"
         id="path7180" />
      <path
         inkscape:connector-curvature="0"
         d="m 45.204326,1031.1489 26.011425,5.0508 -10.859137,-39.39593 z"
         style="fill:#26569e;stroke:none;stroke-width:1"
         id="path7182" />
      <path
         inkscape:connector-curvature="0"
         d="m 124.75384,1028.3711 19.95051,11.3641 7.07107,-26.2639 z"
         style="fill:#275fab;stroke:none;stroke-width:1"
         id="path7184" />
      <path
         inkscape:connector-curvature="0"
         d="m 151.77542,1013.4713 18.68782,27.2742 14.64722,-15.6574 z"
         style="fill:#2564b6;stroke:none;stroke-width:1"
         id="path7186" />
      <path
         inkscape:connector-curvature="0"
         d="m -0.2525375,1024.078 19.1928965,17.6776 -2.272842,-25.5064 z"
         style="fill:#2b6eca;stroke:none;stroke-width:1"
         id="path7188" />
      <path
         inkscape:connector-curvature="0"
         d="m 18.940359,1041.7556 26.263967,-10.6067 -28.536809,-14.8997 z"
         style="fill:#3675ce;stroke:none;stroke-width:1"
         id="path7190" />
      <path
         inkscape:connector-curvature="0"
         d="m 144.70435,1039.7352 25.75889,1.0103 -18.68782,-27.2742 z"
         style="fill:#3371ca;stroke:none;stroke-width:1"
         id="path7192" />
      <path
         inkscape:connector-curvature="0"
         d="m 183.84776,1052.6147 1.2627,-27.5266 -14.64722,15.6574 z"
         style="fill:#275eb6;stroke:none;stroke-width:1"
         id="path7194" />
      <path
         inkscape:connector-curvature="0"
         d="M 0.2525385,1052.1096 18.940359,1041.7556 -0.2525375,1024.078 Z"
         style="fill:#2863ba;stroke:none;stroke-width:1"
         id="path7196" />
      <path
         inkscape:connector-curvature="0"
         d="m 83.842659,1052.8673 12.879447,-32.83 -25.506355,16.1624 z"
         style="fill:#295da1;stroke:none;stroke-width:1"
         id="path7198" />
      <path
         inkscape:connector-curvature="0"
         d="m 83.842659,1052.8673 40.911181,-24.4962 -28.031734,-8.3338 z"
         style="fill:#255daf;stroke:none;stroke-width:1"
         id="path7200" />
      <path
         inkscape:connector-curvature="0"
         d="m 45.204326,1031.1489 38.638333,21.7184 -12.626908,-16.6676 z"
         style="fill:#275fae;stroke:none;stroke-width:1"
         id="path7202" />
      <path
         inkscape:connector-curvature="0"
         d="m 83.842659,1052.8673 60.861691,-13.1321 -19.95051,-11.3641 z"
         style="fill:#255dab;stroke:none;stroke-width:1"
         id="path7204" />
      <path
         inkscape:connector-curvature="0"
         d="m 144.70435,1039.7352 39.14341,12.8795 -13.38452,-11.8692 z"
         style="fill:#2760af;stroke:none;stroke-width:1"
         id="path7206" />
      <path
         inkscape:connector-curvature="0"
         d="m 18.940359,1041.7556 64.9023,11.1117 -38.638333,-21.7184 z"
         style="fill:#2c70c8;stroke:none;stroke-width:1"
         id="path7208" />
      <path
         inkscape:connector-curvature="0"
         d="m 0.2525385,1052.1096 83.5901205,0.7577 -64.9023,-11.1117 z"
         style="fill:#2b6cba;stroke:none;stroke-width:1"
         id="path7210" />
      <path
         inkscape:connector-curvature="0"
         d="m 83.842659,1052.8673 100.005101,-0.2526 -39.14341,-12.8795 z"
         style="fill:#2c68c1;stroke:none;stroke-width:1"
         id="path7212" />
      <path
         inkscape:connector-curvature="0"
         d="m 185.11046,1025.0881 -1.01016,-72.73098 0.50508,37.88073 z"
         style="fill:#2657a0;stroke:none;stroke-width:1"
         id="path7214" />
    </g>
    <g
       transform="matrix(1.0847757,0,0,1.0847757,-5.76469,-1036.3988)"
       id="g7410">
      <path
         id="path7412"
         style="fill:#2c67b9;stroke:none;stroke-width:1"
         d="m 83.085044,958.67053 44.951786,-6.81848 -90.156108,-0.50507 z"
         inkscape:connector-curvature="0" />
      <path
         id="path7414"
         style="fill:#2c65bc;stroke:none;stroke-width:1"
         d="m 128.03683,951.85205 33.58757,7.57611 22.4759,-7.07104 z"
         inkscape:connector-curvature="0" />
      <path
         id="path7416"
         style="fill:#2a62ae;stroke:none;stroke-width:1"
         d="m 83.085044,958.67053 29.294426,7.07105 15.65736,-13.88953 z"
         inkscape:connector-curvature="0" />
      <path
         id="path7418"
         style="fill:#2861ae;stroke:none;stroke-width:1"
         d="M 54.295701,971.04492 83.085044,958.67053 37.880722,951.34698 Z"
         inkscape:connector-curvature="0" />
      <path
         id="path7420"
         style="fill:#2b69bc;stroke:none;stroke-width:1"
         d="m 128.03683,951.85205 19.44544,21.21314 14.14213,-13.63703 z"
         inkscape:connector-curvature="0" />
      <path
         id="path7422"
         style="fill:#2963b3;stroke:none;stroke-width:1"
         d="m 87.378197,974.83301 25.001273,-9.09143 -29.294426,-7.07105 z"
         inkscape:connector-curvature="0" />
      <path
         id="path7424"
         style="fill:#265daa;stroke:none;stroke-width:1"
         d="m 125.76399,984.42944 2.27284,-32.57739 -15.65736,13.88953 z"
         inkscape:connector-curvature="0" />
      <path
         id="path7426"
         style="fill:#2e67c0;stroke:none;stroke-width:1"
         d="M 0.5050765,951.59949 23.486045,984.68195 37.880722,951.34698 Z"
         inkscape:connector-curvature="0" />
      <path
         id="path7428"
         style="fill:#2b62b3;stroke:none;stroke-width:1"
         d="m 125.76399,984.42944 21.71828,-11.36425 -19.44544,-21.21314 z"
         inkscape:connector-curvature="0" />
      <path
         id="path7430"
         style="fill:#2b66b5;stroke:none;stroke-width:1"
         d="m 54.295701,971.04492 33.082496,3.78809 -4.293153,-16.16248 z"
         inkscape:connector-curvature="0" />
      <path
         id="path7432"
         style="fill:#2d66ba;stroke:none;stroke-width:1"
         d="M 23.486045,984.68195 54.295701,971.04492 37.880722,951.34698 Z"
         inkscape:connector-curvature="0" />
      <path
         id="path7434"
         style="fill:#3876d3;stroke:none;stroke-width:1"
         d="M -0.2525375,988.7226 23.486045,984.68195 0.5050765,951.59949 Z"
         inkscape:connector-curvature="0" />
      <path
         id="path7436"
         style="fill:#2e64bb;stroke:none;stroke-width:1"
         d="m 161.6244,959.42816 22.98098,30.80969 -0.50508,-37.88073 z"
         inkscape:connector-curvature="0" />
      <path
         id="path7438"
         style="fill:#2d68bf;stroke:none;stroke-width:1"
         d="m 164.1498,997.30889 -2.5254,-37.88073 -14.14213,13.63703 z"
         inkscape:connector-curvature="0" />
      <path
         id="path7440"
         style="fill:#2863b6;stroke:none;stroke-width:1"
         d="m 164.1498,997.30889 20.45558,-7.07104 -22.98098,-30.80969 z"
         inkscape:connector-curvature="0" />
      <path
         id="path7442"
         style="fill:#2665ba;stroke:none;stroke-width:1"
         d="M 60.356614,996.80377 87.378197,974.83301 54.295701,971.04492 Z"
         inkscape:connector-curvature="0" />
      <path
         id="path7444"
         style="fill:#26589f;stroke:none;stroke-width:1"
         d="m 112.37947,965.74158 -2.52538,36.61802 15.9099,-17.93016 z"
         inkscape:connector-curvature="0" />
      <path
         id="path7446"
         style="fill:#2c69bd;stroke:none;stroke-width:1"
         d="m 87.378197,974.83301 22.475893,27.52659 2.52538,-36.61802 z"
         inkscape:connector-curvature="0" />
      <path
         id="path7448"
         style="fill:#2a63b9;stroke:none;stroke-width:1"
         d="m 60.356614,996.80377 27.021583,1.2627 0,-23.23346 z"
         inkscape:connector-curvature="0" />
      <path
         id="path7450"
         style="fill:#2b5fa6;stroke:none;stroke-width:1"
         d="m 87.378197,998.06647 22.475893,4.29313 -22.475893,-27.52659 z"
         inkscape:connector-curvature="0" />
      <path
         id="path7452"
         style="fill:#2c6ac2;stroke:none;stroke-width:1"
         d="m 23.486045,984.68195 36.870569,12.12182 -6.060913,-25.75885 z"
         inkscape:connector-curvature="0" />
      <path
         id="path7454"
         style="fill:#2a63b6;stroke:none;stroke-width:1"
         d="m 125.76399,984.42944 38.38581,12.87945 -16.66753,-24.2437 z"
         inkscape:connector-curvature="0" />
      <path
         id="path7456"
         style="fill:#265095;stroke:none;stroke-width:1"
         d="m 125.76399,984.42944 26.01143,29.04186 12.37438,-16.16241 z"
         inkscape:connector-curvature="0" />
      <path
         id="path7458"
         style="fill:#285eb1;stroke:none;stroke-width:1"
         d="m -0.2525375,988.7226 16.9200545,27.5266 6.818528,-31.56725 z"
         inkscape:connector-curvature="0" />
      <path
         id="path7460"
         style="fill:#2658ab;stroke:none;stroke-width:1"
         d="m 96.722106,1020.0373 13.131984,-17.6777 -22.475893,-4.29313 z"
         inkscape:connector-curvature="0" />
      <path
         id="path7462"
         style="fill:#2f5fb5;stroke:none;stroke-width:1"
         d="M -0.2525375,1024.078 16.667517,1016.2492 -0.2525375,988.7226 Z"
         inkscape:connector-curvature="0" />
      <path
         id="path7464"
         style="fill:#2a65b3;stroke:none;stroke-width:1"
         d="m 164.1498,997.30889 20.96066,27.77921 -0.50508,-34.85025 z"
         inkscape:connector-curvature="0" />
      <path
         id="path7466"
         style="fill:#2860af;stroke:none;stroke-width:1"
         d="m 109.85409,1002.3596 41.92133,11.1117 -26.01143,-29.04186 z"
         inkscape:connector-curvature="0" />
      <path
         id="path7468"
         style="fill:#2a6dc5;stroke:none;stroke-width:1"
         d="M 16.667517,1016.2492 60.356614,996.80377 23.486045,984.68195 Z"
         inkscape:connector-curvature="0" />
      <path
         id="path7470"
         style="fill:#295dae;stroke:none;stroke-width:1"
         d="m 124.75384,1028.3711 27.02158,-14.8998 -41.92133,-11.1117 z"
         inkscape:connector-curvature="0" />
      <path
         id="path7472"
         style="fill:#2059a5;stroke:none;stroke-width:1"
         d="m 16.667517,1016.2492 28.536809,14.8997 15.152288,-34.34513 z"
         inkscape:connector-curvature="0" />
      <path
         id="path7474"
         style="fill:#2d67b5;stroke:none;stroke-width:1"
         d="m 151.77542,1013.4713 33.33504,11.6168 -20.96066,-27.77921 z"
         inkscape:connector-curvature="0" />
      <path
         id="path7476"
         style="fill:#2b74cc;stroke:none;stroke-width:1"
         d="m 96.722106,1020.0373 28.031734,8.3338 -14.89975,-26.0115 z"
         inkscape:connector-curvature="0" />
      <path
         id="path7478"
         style="fill:#2862ae;stroke:none;stroke-width:1"
         d="m 71.215751,1036.1997 16.162446,-38.13323 -27.021583,-1.2627 z"
         inkscape:connector-curvature="0" />
      <path
         id="path7480"
         style="fill:#2a62b3;stroke:none;stroke-width:1"
         d="m 71.215751,1036.1997 25.506355,-16.1624 -9.343909,-21.97083 z"
         inkscape:connector-curvature="0" />
      <path
         id="path7482"
         style="fill:#26569e;stroke:none;stroke-width:1"
         d="m 45.204326,1031.1489 26.011425,5.0508 -10.859137,-39.39593 z"
         inkscape:connector-curvature="0" />
      <path
         id="path7484"
         style="fill:#275fab;stroke:none;stroke-width:1"
         d="m 124.75384,1028.3711 19.95051,11.3641 7.07107,-26.2639 z"
         inkscape:connector-curvature="0" />
      <path
         id="path7486"
         style="fill:#2564b6;stroke:none;stroke-width:1"
         d="m 151.77542,1013.4713 18.68782,27.2742 14.64722,-15.6574 z"
         inkscape:connector-curvature="0" />
      <path
         id="path7488"
         style="fill:#2b6eca;stroke:none;stroke-width:1"
         d="m -0.2525375,1024.078 19.1928965,17.6776 -2.272842,-25.5064 z"
         inkscape:connector-curvature="0" />
      <path
         id="path7490"
         style="fill:#3675ce;stroke:none;stroke-width:1"
         d="m 18.940359,1041.7556 26.263967,-10.6067 -28.536809,-14.8997 z"
         inkscape:connector-curvature="0" />
      <path
         id="path7492"
         style="fill:#3371ca;stroke:none;stroke-width:1"
         d="m 144.70435,1039.7352 25.75889,1.0103 -18.68782,-27.2742 z"
         inkscape:connector-curvature="0" />
      <path
         id="path7494"
         style="fill:#275eb6;stroke:none;stroke-width:1"
         d="m 183.84776,1052.6147 1.2627,-27.5266 -14.64722,15.6574 z"
         inkscape:connector-curvature="0" />
      <path
         id="path7496"
         style="fill:#2863ba;stroke:none;stroke-width:1"
         d="M 0.2525385,1052.1096 18.940359,1041.7556 -0.2525375,1024.078 Z"
         inkscape:connector-curvature="0" />
      <path
         id="path7498"
         style="fill:#295da1;stroke:none;stroke-width:1"
         d="m 83.842659,1052.8673 12.879447,-32.83 -25.506355,16.1624 z"
         inkscape:connector-curvature="0" />
      <path
         id="path7500"
         style="fill:#255daf;stroke:none;stroke-width:1"
         d="m 83.842659,1052.8673 40.911181,-24.4962 -28.031734,-8.3338 z"
         inkscape:connector-curvature="0" />
      <path
         id="path7502"
         style="fill:#275fae;stroke:none;stroke-width:1"
         d="m 45.204326,1031.1489 38.638333,21.7184 -12.626908,-16.6676 z"
         inkscape:connector-curvature="0" />
      <path
         id="path7504"
         style="fill:#255dab;stroke:none;stroke-width:1"
         d="m 83.842659,1052.8673 60.861691,-13.1321 -19.95051,-11.3641 z"
         inkscape:connector-curvature="0" />
      <path
         id="path7506"
         style="fill:#2760af;stroke:none;stroke-width:1"
         d="m 144.70435,1039.7352 39.14341,12.8795 -13.38452,-11.8692 z"
         inkscape:connector-curvature="0" />
      <path
         id="path7508"
         style="fill:#2c70c8;stroke:none;stroke-width:1"
         d="m 18.940359,1041.7556 64.9023,11.1117 -38.638333,-21.7184 z"
         inkscape:connector-curvature="0" />
      <path
         id="path7510"
         style="fill:#2b6cba;stroke:none;stroke-width:1"
         d="m 0.2525385,1052.1096 83.5901205,0.7577 -64.9023,-11.1117 z"
         inkscape:connector-curvature="0" />
      <path
         id="path7512"
         style="fill:#2c68c1;stroke:none;stroke-width:1"
         d="m 83.842659,1052.8673 100.005101,-0.2526 -39.14341,-12.8795 z"
         inkscape:connector-curvature="0" />
      <path
         id="path7514"
         style="fill:#2657a0;stroke:none;stroke-width:1"
         d="m 185.11046,1025.0881 -1.01016,-72.73098 0.50508,37.88073 z"
         inkscape:connector-curvature="0" />
    </g>
    <g
       transform="matrix(1.0847757,0,0,1.0847757,-5.76469,-1036.3988)"
       id="g7516">
      <path
         inkscape:connector-curvature="0"
         d="m 83.085044,958.67053 44.951786,-6.81848 -90.156108,-0.50507 z"
         style="fill:#2c67b9;stroke:none;stroke-width:1"
         id="path7518" />
      <path
         inkscape:connector-curvature="0"
         d="m 128.03683,951.85205 33.58757,7.57611 22.4759,-7.07104 z"
         style="fill:#2c65bc;stroke:none;stroke-width:1"
         id="path7520" />
      <path
         inkscape:connector-curvature="0"
         d="m 83.085044,958.67053 29.294426,7.07105 15.65736,-13.88953 z"
         style="fill:#2a62ae;stroke:none;stroke-width:1"
         id="path7522" />
      <path
         inkscape:connector-curvature="0"
         d="M 54.295701,971.04492 83.085044,958.67053 37.880722,951.34698 Z"
         style="fill:#2861ae;stroke:none;stroke-width:1"
         id="path7524" />
      <path
         inkscape:connector-curvature="0"
         d="m 128.03683,951.85205 19.44544,21.21314 14.14213,-13.63703 z"
         style="fill:#2b69bc;stroke:none;stroke-width:1"
         id="path7526" />
      <path
         inkscape:connector-curvature="0"
         d="m 87.378197,974.83301 25.001273,-9.09143 -29.294426,-7.07105 z"
         style="fill:#2963b3;stroke:none;stroke-width:1"
         id="path7528" />
      <path
         inkscape:connector-curvature="0"
         d="m 125.76399,984.42944 2.27284,-32.57739 -15.65736,13.88953 z"
         style="fill:#265daa;stroke:none;stroke-width:1"
         id="path7530" />
      <path
         inkscape:connector-curvature="0"
         d="M 0.5050765,951.59949 23.486045,984.68195 37.880722,951.34698 Z"
         style="fill:#2e67c0;stroke:none;stroke-width:1"
         id="path7532" />
      <path
         inkscape:connector-curvature="0"
         d="m 125.76399,984.42944 21.71828,-11.36425 -19.44544,-21.21314 z"
         style="fill:#2b62b3;stroke:none;stroke-width:1"
         id="path7534" />
      <path
         inkscape:connector-curvature="0"
         d="m 54.295701,971.04492 33.082496,3.78809 -4.293153,-16.16248 z"
         style="fill:#2b66b5;stroke:none;stroke-width:1"
         id="path7536" />
      <path
         inkscape:connector-curvature="0"
         d="M 23.486045,984.68195 54.295701,971.04492 37.880722,951.34698 Z"
         style="fill:#2d66ba;stroke:none;stroke-width:1"
         id="path7538" />
      <path
         inkscape:connector-curvature="0"
         d="M -0.2525375,988.7226 23.486045,984.68195 0.5050765,951.59949 Z"
         style="fill:#3876d3;stroke:none;stroke-width:1"
         id="path7540" />
      <path
         inkscape:connector-curvature="0"
         d="m 161.6244,959.42816 22.98098,30.80969 -0.50508,-37.88073 z"
         style="fill:#2e64bb;stroke:none;stroke-width:1"
         id="path7542" />
      <path
         inkscape:connector-curvature="0"
         d="m 164.1498,997.30889 -2.5254,-37.88073 -14.14213,13.63703 z"
         style="fill:#2d68bf;stroke:none;stroke-width:1"
         id="path7544" />
      <path
         inkscape:connector-curvature="0"
         d="m 164.1498,997.30889 20.45558,-7.07104 -22.98098,-30.80969 z"
         style="fill:#2863b6;stroke:none;stroke-width:1"
         id="path7546" />
      <path
         inkscape:connector-curvature="0"
         d="M 60.356614,996.80377 87.378197,974.83301 54.295701,971.04492 Z"
         style="fill:#2665ba;stroke:none;stroke-width:1"
         id="path7548" />
      <path
         inkscape:connector-curvature="0"
         d="m 112.37947,965.74158 -2.52538,36.61802 15.9099,-17.93016 z"
         style="fill:#26589f;stroke:none;stroke-width:1"
         id="path7550" />
      <path
         inkscape:connector-curvature="0"
         d="m 87.378197,974.83301 22.475893,27.52659 2.52538,-36.61802 z"
         style="fill:#2c69bd;stroke:none;stroke-width:1"
         id="path7552" />
      <path
         inkscape:connector-curvature="0"
         d="m 60.356614,996.80377 27.021583,1.2627 0,-23.23346 z"
         style="fill:#2a63b9;stroke:none;stroke-width:1"
         id="path7554" />
      <path
         inkscape:connector-curvature="0"
         d="m 87.378197,998.06647 22.475893,4.29313 -22.475893,-27.52659 z"
         style="fill:#2b5fa6;stroke:none;stroke-width:1"
         id="path7556" />
      <path
         inkscape:connector-curvature="0"
         d="m 23.486045,984.68195 36.870569,12.12182 -6.060913,-25.75885 z"
         style="fill:#2c6ac2;stroke:none;stroke-width:1"
         id="path7558" />
      <path
         inkscape:connector-curvature="0"
         d="m 125.76399,984.42944 38.38581,12.87945 -16.66753,-24.2437 z"
         style="fill:#2a63b6;stroke:none;stroke-width:1"
         id="path7560" />
      <path
         inkscape:connector-curvature="0"
         d="m 125.76399,984.42944 26.01143,29.04186 12.37438,-16.16241 z"
         style="fill:#265095;stroke:none;stroke-width:1"
         id="path7562" />
      <path
         inkscape:connector-curvature="0"
         d="m -0.2525375,988.7226 16.9200545,27.5266 6.818528,-31.56725 z"
         style="fill:#285eb1;stroke:none;stroke-width:1"
         id="path7564" />
      <path
         inkscape:connector-curvature="0"
         d="m 96.722106,1020.0373 13.131984,-17.6777 -22.475893,-4.29313 z"
         style="fill:#2658ab;stroke:none;stroke-width:1"
         id="path7566" />
      <path
         inkscape:connector-curvature="0"
         d="M -0.2525375,1024.078 16.667517,1016.2492 -0.2525375,988.7226 Z"
         style="fill:#2f5fb5;stroke:none;stroke-width:1"
         id="path7568" />
      <path
         inkscape:connector-curvature="0"
         d="m 164.1498,997.30889 20.96066,27.77921 -0.50508,-34.85025 z"
         style="fill:#2a65b3;stroke:none;stroke-width:1"
         id="path7570" />
      <path
         inkscape:connector-curvature="0"
         d="m 109.85409,1002.3596 41.92133,11.1117 -26.01143,-29.04186 z"
         style="fill:#2860af;stroke:none;stroke-width:1"
         id="path7572" />
      <path
         inkscape:connector-curvature="0"
         d="M 16.667517,1016.2492 60.356614,996.80377 23.486045,984.68195 Z"
         style="fill:#2a6dc5;stroke:none;stroke-width:1"
         id="path7574" />
      <path
         inkscape:connector-curvature="0"
         d="m 124.75384,1028.3711 27.02158,-14.8998 -41.92133,-11.1117 z"
         style="fill:#295dae;stroke:none;stroke-width:1"
         id="path7576" />
      <path
         inkscape:connector-curvature="0"
         d="m 16.667517,1016.2492 28.536809,14.8997 15.152288,-34.34513 z"
         style="fill:#2059a5;stroke:none;stroke-width:1"
         id="path7578" />
      <path
         inkscape:connector-curvature="0"
         d="m 151.77542,1013.4713 33.33504,11.6168 -20.96066,-27.77921 z"
         style="fill:#2d67b5;stroke:none;stroke-width:1"
         id="path7580" />
      <path
         inkscape:connector-curvature="0"
         d="m 96.722106,1020.0373 28.031734,8.3338 -14.89975,-26.0115 z"
         style="fill:#2b74cc;stroke:none;stroke-width:1"
         id="path7582" />
      <path
         inkscape:connector-curvature="0"
         d="m 71.215751,1036.1997 16.162446,-38.13323 -27.021583,-1.2627 z"
         style="fill:#2862ae;stroke:none;stroke-width:1"
         id="path7584" />
      <path
         inkscape:connector-curvature="0"
         d="m 71.215751,1036.1997 25.506355,-16.1624 -9.343909,-21.97083 z"
         style="fill:#2a62b3;stroke:none;stroke-width:1"
         id="path7586" />
      <path
         inkscape:connector-curvature="0"
         d="m 45.204326,1031.1489 26.011425,5.0508 -10.859137,-39.39593 z"
         style="fill:#26569e;stroke:none;stroke-width:1"
         id="path7588" />
      <path
         inkscape:connector-curvature="0"
         d="m 124.75384,1028.3711 19.95051,11.3641 7.07107,-26.2639 z"
         style="fill:#275fab;stroke:none;stroke-width:1"
         id="path7590" />
      <path
         inkscape:connector-curvature="0"
         d="m 151.77542,1013.4713 18.68782,27.2742 14.64722,-15.6574 z"
         style="fill:#2564b6;stroke:none;stroke-width:1"
         id="path7592" />
      <path
         inkscape:connector-curvature="0"
         d="m -0.2525375,1024.078 19.1928965,17.6776 -2.272842,-25.5064 z"
         style="fill:#2b6eca;stroke:none;stroke-width:1"
         id="path7594" />
      <path
         inkscape:connector-curvature="0"
         d="m 18.940359,1041.7556 26.263967,-10.6067 -28.536809,-14.8997 z"
         style="fill:#3675ce;stroke:none;stroke-width:1"
         id="path7596" />
      <path
         inkscape:connector-curvature="0"
         d="m 144.70435,1039.7352 25.75889,1.0103 -18.68782,-27.2742 z"
         style="fill:#3371ca;stroke:none;stroke-width:1"
         id="path7598" />
      <path
         inkscape:connector-curvature="0"
         d="m 183.84776,1052.6147 1.2627,-27.5266 -14.64722,15.6574 z"
         style="fill:#275eb6;stroke:none;stroke-width:1"
         id="path7600" />
      <path
         inkscape:connector-curvature="0"
         d="M 0.2525385,1052.1096 18.940359,1041.7556 -0.2525375,1024.078 Z"
         style="fill:#2863ba;stroke:none;stroke-width:1"
         id="path7602" />
      <path
         inkscape:connector-curvature="0"
         d="m 83.842659,1052.8673 12.879447,-32.83 -25.506355,16.1624 z"
         style="fill:#295da1;stroke:none;stroke-width:1"
         id="path7604" />
      <path
         inkscape:connector-curvature="0"
         d="m 83.842659,1052.8673 40.911181,-24.4962 -28.031734,-8.3338 z"
         style="fill:#255daf;stroke:none;stroke-width:1"
         id="path7606" />
      <path
         inkscape:connector-curvature="0"
         d="m 45.204326,1031.1489 38.638333,21.7184 -12.626908,-16.6676 z"
         style="fill:#275fae;stroke:none;stroke-width:1"
         id="path7608" />
      <path
         inkscape:connector-curvature="0"
         d="m 83.842659,1052.8673 60.861691,-13.1321 -19.95051,-11.3641 z"
         style="fill:#255dab;stroke:none;stroke-width:1"
         id="path7610" />
      <path
         inkscape:connector-curvature="0"
         d="m 144.70435,1039.7352 39.14341,12.8795 -13.38452,-11.8692 z"
         style="fill:#2760af;stroke:none;stroke-width:1"
         id="path7612" />
      <path
         inkscape:connector-curvature="0"
         d="m 18.940359,1041.7556 64.9023,11.1117 -38.638333,-21.7184 z"
         style="fill:#2c70c8;stroke:none;stroke-width:1"
         id="path7614" />
      <path
         inkscape:connector-curvature="0"
         d="m 0.2525385,1052.1096 83.5901205,0.7577 -64.9023,-11.1117 z"
         style="fill:#2b6cba;stroke:none;stroke-width:1"
         id="path7616" />
      <path
         inkscape:connector-curvature="0"
         d="m 83.842659,1052.8673 100.005101,-0.2526 -39.14341,-12.8795 z"
         style="fill:#2c68c1;stroke:none;stroke-width:1"
         id="path7618" />
      <path
         inkscape:connector-curvature="0"
         d="m 185.11046,1025.0881 -1.01016,-72.73098 0.50508,37.88073 z"
         style="fill:#2657a0;stroke:none;stroke-width:1"
         id="path7620" />
    </g>
    <path
       id="path3932"
       d="M 132.625 2.21875 C 131.98396 2.21875 131.46875 2.7339552 131.46875 3.375 C 131.46875 3.8557836 131.7709 4.261294 132.1875 4.4375 L 130.5625 30.65625 C 130.22132 30.858385 129.96875 31.199691 129.96875 31.625 C 129.96875 31.703958 129.98498 31.769219 130 31.84375 L 113.65625 49.78125 C 113.56101 49.755979 113.47819 49.71875 113.375 49.71875 C 112.73396 49.71875 112.21875 50.233955 112.21875 50.875 C 112.21875 51.066081 112.2932 51.216036 112.375 51.375 L 99.6875 69.03125 C 99.583306 69.00055 99.489137 68.96875 99.375 68.96875 C 98.791024 68.96875 98.331414 69.407336 98.25 69.96875 L 72.125 86.28125 C 72.038966 86.260914 71.967248 86.21875 71.875 86.21875 C 71.539068 86.21875 71.243201 86.365649 71.03125 86.59375 L 43.59375 81.75 L 43.53125 81.71875 C 43.320123 81.429834 43.010243 81.21875 42.625 81.21875 C 42.614055 81.21875 42.604622 81.218449 42.59375 81.21875 L 13.71875 66.21875 C 13.752158 66.115746 13.778111 66.019629 13.78125 65.90625 C 13.781551 65.895378 13.78125 65.885945 13.78125 65.875 L 58.9375 45.6875 C 59.076366 45.746235 59.214739 45.78125 59.375 45.78125 C 60.016045 45.78125 60.53125 45.266045 60.53125 44.625 C 60.53125 44.239757 60.320166 43.929877 60.03125 43.71875 L 53.84375 17.25 C 54.101716 17.037108 54.28125 16.735588 54.28125 16.375 C 54.28125 15.733955 53.766045 15.21875 53.125 15.21875 C 52.483955 15.21875 51.96875 15.733955 51.96875 16.375 C 51.96875 16.912852 52.347344 17.337034 52.84375 17.46875 L 58.9375 43.5625 C 58.846703 43.600904 58.76475 43.659636 58.6875 43.71875 L 20.5 31.21875 C 20.418586 30.657336 19.958976 30.21875 19.375 30.21875 C 18.733955 30.21875 18.21875 30.733955 18.21875 31.375 C 18.21875 32.016045 18.733955 32.53125 19.375 32.53125 C 19.704768 32.53125 19.976192 32.377071 20.1875 32.15625 L 58.21875 44.59375 C 58.218449 44.604622 58.21875 44.614055 58.21875 44.625 C 58.21875 44.703958 58.234976 44.769219 58.25 44.84375 L 13.28125 64.96875 C 13.08941 64.828562 12.880802 64.71875 12.625 64.71875 C 12.019134 64.71875 11.552773 65.189109 11.5 65.78125 L 11.09375 65.96875 L 11.53125 66.1875 C 11.672976 66.668503 12.098092 67.03125 12.625 67.03125 C 12.763372 67.03125 12.876944 66.98192 13 66.9375 L 41.625 81.84375 C 41.535657 82.008215 41.46875 82.174674 41.46875 82.375 C 41.46875 83.016045 41.983955 83.53125 42.625 83.53125 C 43.105784 83.53125 43.511294 83.229098 43.6875 82.8125 L 70.78125 87.59375 C 70.890756 88.121014 71.315258 88.53125 71.875 88.53125 C 71.932069 88.53125 71.976386 88.507956 72.03125 88.5 L 84.34375 105.53125 L 85.15625 104.96875 L 72.84375 87.9375 C 72.946282 87.764439 73.03125 87.590736 73.03125 87.375 C 73.03125 87.214739 72.996235 87.076366 72.9375 86.9375 L 98.5625 70.9375 C 98.772548 71.147548 99.054478 71.28125 99.375 71.28125 C 99.590736 71.28125 99.764439 71.196282 99.9375 71.09375 L 128.5625 79.46875 C 128.51114 79.599863 128.46875 79.725683 128.46875 79.875 C 128.46875 80.516045 128.98396 81.03125 129.625 81.03125 C 130.06572 81.03125 130.42845 80.768074 130.625 80.40625 L 149.8125 90.6875 C 149.75376 90.826366 149.71875 90.964739 149.71875 91.125 C 149.71875 91.766045 150.23396 92.28125 150.875 92.28125 C 151.36673 92.28125 151.76838 91.96303 151.9375 91.53125 L 178.96875 92.75 L 179.03125 91.75 L 151.8125 90.5 C 151.60391 90.191248 151.27565 89.96875 150.875 89.96875 C 150.81793 89.96875 150.77361 89.992044 150.71875 90 L 130.5625 79.25 C 130.35391 78.941248 130.02565 78.71875 129.625 78.71875 C 129.57888 78.71875 129.54472 78.744768 129.5 78.75 L 100.5 70.25 C 100.50523 70.205281 100.53125 70.171124 100.53125 70.125 C 100.53125 69.964739 100.49624 69.826366 100.4375 69.6875 L 113.15625 52 C 113.23078 52.015024 113.29604 52.03125 113.375 52.03125 C 114.01604 52.03125 114.53125 51.516045 114.53125 50.875 C 114.53125 50.714739 114.49624 50.576366 114.4375 50.4375 L 130.625 32.65625 C 130.78016 32.733173 130.94008 32.78125 131.125 32.78125 C 131.16018 32.78125 131.18437 32.753064 131.21875 32.75 L 157.65625 62.03125 C 157.54545 62.209114 157.46875 62.400018 157.46875 62.625 C 157.46875 63.266045 157.98396 63.78125 158.625 63.78125 C 159.26604 63.78125 159.78125 63.266045 159.78125 62.625 C 159.78125 61.983955 159.26604 61.46875 158.625 61.46875 C 158.58982 61.46875 158.56563 61.496936 158.53125 61.5 L 132.3125 32.46875 L 170.71875 45.65625 C 170.73608 46.282162 171.2449 46.78125 171.875 46.78125 C 172.51604 46.78125 173.03125 46.266045 173.03125 45.625 C 173.03125 44.983955 172.51604 44.46875 171.875 44.46875 C 171.5853 44.46875 171.32836 44.574493 171.125 44.75 L 132.21875 31.40625 C 132.1406 31.029948 131.90865 30.708909 131.5625 30.5625 L 133.1875 4.34375 C 133.52868 4.1416148 133.78125 3.8003086 133.78125 3.375 C 133.78125 2.7339552 133.26604 2.21875 132.625 2.21875 z "
       style="font-size:medium;font-style:normal;font-variant:normal;font-weight:normal;font-stretch:normal;text-indent:0;text-align:start;text-decoration:none;line-height:normal;letter-spacing:normal;word-spacing:normal;text-transform:none;direction:ltr;block-progression:tb;writing-mode:lr-tb;text-anchor:start;baseline-shift:baseline;color:#000000;fill:#ffffff;fill-opacity:1;stroke:none;stroke-width:1px;marker:none;visibility:visible;display:inline;overflow:visible;enable-background:accumulate;font-family:Sans;-inkscape-font-specification:Sans;opacity:0.28947368" />
    <path
       sodipodi:type="arc"
       style="fill:#000000;stroke:none;stroke-width:2;stroke-miterlimit:4;stroke-opacity:1;stroke-dasharray:none;filter:url(#filter4035);opacity:0.39473684"
       id="path4013"
       sodipodi:cx="82"
       sodipodi:cy="58"
       sodipodi:rx="32.25"
       sodipodi:ry="32.25"
       d="m 114.25,58 a 32.25,32.25 0 1 1 -64.5,0 32.25,32.25 0 1 1 64.5,0 z"
       transform="translate(7.75,-7.75)" />
    <path
       transform="translate(7.75,-7.75)"
       d="m 114.25,58 a 32.25,32.25 0 1 1 -64.5,0 32.25,32.25 0 1 1 64.5,0 z"
       sodipodi:ry="32.25"
       sodipodi:rx="32.25"
       sodipodi:cy="58"
       sodipodi:cx="82"
       id="path4039"
       style="fill:#000000;stroke:none;stroke-width:2;stroke-miterlimit:4;stroke-opacity:1;stroke-dasharray:none;filter:url(#filter4053);opacity:0.17105263"
       sodipodi:type="arc" />
    <path
       transform="translate(7.75,-7.75)"
       d="m 114.25,58 a 32.25,32.25 0 1 1 -64.5,0 32.25,32.25 0 1 1 64.5,0 z"
       sodipodi:ry="32.25"
       sodipodi:rx="32.25"
       sodipodi:cy="58"
       sodipodi:cx="82"
       id="path4011"
       style="fill:#ffffff;stroke:none;stroke-width:2;stroke-miterlimit:4;stroke-opacity:1;stroke-dasharray:none;"
       sodipodi:type="arc" />
    <g
       transform="matrix(0.76429774,0,0,0.76429774,72.166525,31.745162)"
       inkscape:label="Livello 1"
       id="layer1-9"
       style="opacity:0.44298246">
      <rect
         style="fill:none;stroke:none"
         id="rect6226"
         width="48"
         height="48"
         x="0"
         y="0"
         rx="0"
         ry="0" />
      <rect
         style="fill:none;stroke:#ffffff;stroke-width:4.00000047999999975;stroke-linecap:round;stroke-linejoin:miter;stroke-miterlimit:4;stroke-opacity:1;stroke-dasharray:none;stroke-dashoffset:0"
         id="rect4574"
         width="43.956081"
         height="43.943901"
         x="2.0000074"
         y="2.0000005"
         rx="2.9606297"
         ry="2.9606304" />
      <rect
         style="fill:#ffffff;fill-opacity:1;stroke:#000000;stroke-width:4.00000143000000019;stroke-linecap:round;stroke-linejoin:round;stroke-miterlimit:4;stroke-opacity:1;stroke-dasharray:none;stroke-dashoffset:0"
         id="rect5523"
         width="36.000008"
         height="35.999989"
         x="6.0000129"
         y="5.9999981"
         rx="0"
         ry="0" />
      <path
         inkscape:connector-curvature="0"
         style="fill:#000000;fill-opacity:1;stroke:none"
         d="m 19,12 0,7 -5,0 0,16 20,0 0,-16 -5,0 0,-7 -10,0 z"
         id="rect6423"
         sodipodi:nodetypes="ccccccccc" />
    </g>
  </g>
  <g
     id="g5089"
     clip-path="url(#clipPath5261)"
     inkscape:export-filename="/home/rlerch/Source/fedoramagazine-images/images/network/network-large.png"
     inkscape:export-xdpi="90"
     inkscape:export-ydpi="90">
    <g
       id="g4555"
       transform="matrix(3.7767909,0,0,3.7767909,-344.04532,-3415.4393)">
      <path
         id="path4557"
         style="fill:#2c67b9;stroke:none"
         d="m 83.085044,958.67053 44.951786,-6.81848 -90.156108,-0.50507 z"
         inkscape:connector-curvature="0" />
      <path
         id="path4559"
         style="fill:#2c65bc;stroke:none"
         d="m 128.03683,951.85205 33.58757,7.57611 22.4759,-7.07104 z"
         inkscape:connector-curvature="0" />
      <path
         id="path4561"
         style="fill:#2a62ae;stroke:none"
         d="m 83.085044,958.67053 29.294426,7.07105 15.65736,-13.88953 z"
         inkscape:connector-curvature="0" />
      <path
         id="path4563"
         style="fill:#2861ae;stroke:none"
         d="M 54.295701,971.04492 83.085044,958.67053 37.880722,951.34698 z"
         inkscape:connector-curvature="0" />
      <path
         id="path4565"
         style="fill:#2b69bc;stroke:none"
         d="m 128.03683,951.85205 19.44544,21.21314 14.14213,-13.63703 z"
         inkscape:connector-curvature="0" />
      <path
         id="path4567"
         style="fill:#2963b3;stroke:none"
         d="m 87.378197,974.83301 25.001273,-9.09143 -29.294426,-7.07105 z"
         inkscape:connector-curvature="0" />
      <path
         id="path4569"
         style="fill:#265daa;stroke:none"
         d="m 125.76399,984.42944 2.27284,-32.57739 -15.65736,13.88953 z"
         inkscape:connector-curvature="0" />
      <path
         id="path4571"
         style="fill:#2e67c0;stroke:none"
         d="M 0.5050765,951.59949 23.486045,984.68195 37.880722,951.34698 z"
         inkscape:connector-curvature="0" />
      <path
         id="path4573"
         style="fill:#2b62b3;stroke:none"
         d="m 125.76399,984.42944 21.71828,-11.36425 -19.44544,-21.21314 z"
         inkscape:connector-curvature="0" />
      <path
         id="path4575"
         style="fill:#2b66b5;stroke:none"
         d="m 54.295701,971.04492 33.082496,3.78809 -4.293153,-16.16248 z"
         inkscape:connector-curvature="0" />
      <path
         id="path4577"
         style="fill:#2d66ba;stroke:none"
         d="M 23.486045,984.68195 54.295701,971.04492 37.880722,951.34698 z"
         inkscape:connector-curvature="0" />
      <path
         id="path4579"
         style="fill:#3876d3;stroke:none"
         d="M -0.2525375,988.7226 23.486045,984.68195 0.5050765,951.59949 z"
         inkscape:connector-curvature="0" />
      <path
         id="path4581"
         style="fill:#2e64bb;stroke:none"
         d="m 161.6244,959.42816 22.98098,30.80969 -0.50508,-37.88073 z"
         inkscape:connector-curvature="0" />
      <path
         id="path4583"
         style="fill:#2d68bf;stroke:none"
         d="m 164.1498,997.30889 -2.5254,-37.88073 -14.14213,13.63703 z"
         inkscape:connector-curvature="0" />
      <path
         id="path4585"
         style="fill:#2863b6;stroke:none"
         d="m 164.1498,997.30889 20.45558,-7.07104 -22.98098,-30.80969 z"
         inkscape:connector-curvature="0" />
      <path
         id="path4587"
         style="fill:#2665ba;stroke:none"
         d="M 60.356614,996.80377 87.378197,974.83301 54.295701,971.04492 z"
         inkscape:connector-curvature="0" />
      <path
         id="path4589"
         style="fill:#26589f;stroke:none"
         d="m 112.37947,965.74158 -2.52538,36.61802 15.9099,-17.93016 z"
         inkscape:connector-curvature="0" />
      <path
         id="path4591"
         style="fill:#2c69bd;stroke:none"
         d="m 87.378197,974.83301 22.475893,27.52659 2.52538,-36.61802 z"
         inkscape:connector-curvature="0" />
      <path
         id="path4593"
         style="fill:#2a63b9;stroke:none"
         d="m 60.356614,996.80377 27.021583,1.2627 0,-23.23346 z"
         inkscape:connector-curvature="0" />
      <path
         id="path4595"
         style="fill:#2b5fa6;stroke:none"
         d="m 87.378197,998.06647 22.475893,4.29313 -22.475893,-27.52659 z"
         inkscape:connector-curvature="0" />
      <path
         id="path4597"
         style="fill:#2c6ac2;stroke:none"
         d="m 23.486045,984.68195 36.870569,12.12182 -6.060913,-25.75885 z"
         inkscape:connector-curvature="0" />
      <path
         id="path4599"
         style="fill:#2a63b6;stroke:none"
         d="m 125.76399,984.42944 38.38581,12.87945 -16.66753,-24.2437 z"
         inkscape:connector-curvature="0" />
      <path
         id="path4601"
         style="fill:#265095;stroke:none"
         d="m 125.76399,984.42944 26.01143,29.04186 12.37438,-16.16241 z"
         inkscape:connector-curvature="0" />
      <path
         id="path4603"
         style="fill:#285eb1;stroke:none"
         d="m -0.2525375,988.7226 16.9200545,27.5266 6.818528,-31.56725 z"
         inkscape:connector-curvature="0" />
      <path
         id="path4605"
         style="fill:#2658ab;stroke:none"
         d="m 96.722106,1020.0373 13.131984,-17.6777 -22.475893,-4.29313 z"
         inkscape:connector-curvature="0" />
      <path
         id="path4607"
         style="fill:#2f5fb5;stroke:none"
         d="M -0.2525375,1024.078 16.667517,1016.2492 -0.2525375,988.7226 z"
         inkscape:connector-curvature="0" />
      <path
         id="path4609"
         style="fill:#2a65b3;stroke:none"
         d="m 164.1498,997.30889 20.96066,27.77921 -0.50508,-34.85025 z"
         inkscape:connector-curvature="0" />
      <path
         id="path4611"
         style="fill:#2860af;stroke:none"
         d="m 109.85409,1002.3596 41.92133,11.1117 -26.01143,-29.04186 z"
         inkscape:connector-curvature="0" />
      <path
         id="path4613"
         style="fill:#2a6dc5;stroke:none"
         d="M 16.667517,1016.2492 60.356614,996.80377 23.486045,984.68195 z"
         inkscape:connector-curvature="0" />
      <path
         id="path4615"
         style="fill:#295dae;stroke:none"
         d="m 124.75384,1028.3711 27.02158,-14.8998 -41.92133,-11.1117 z"
         inkscape:connector-curvature="0" />
      <path
         id="path4617"
         style="fill:#2059a5;stroke:none"
         d="m 16.667517,1016.2492 28.536809,14.8997 15.152288,-34.34513 z"
         inkscape:connector-curvature="0" />
      <path
         id="path4619"
         style="fill:#2d67b5;stroke:none"
         d="m 151.77542,1013.4713 33.33504,11.6168 -20.96066,-27.77921 z"
         inkscape:connector-curvature="0" />
      <path
         id="path4621"
         style="fill:#2b74cc;stroke:none"
         d="m 96.722106,1020.0373 28.031734,8.3338 -14.89975,-26.0115 z"
         inkscape:connector-curvature="0" />
      <path
         id="path4623"
         style="fill:#2862ae;stroke:none"
         d="m 71.215751,1036.1997 16.162446,-38.13323 -27.021583,-1.2627 z"
         inkscape:connector-curvature="0" />
      <path
         id="path4625"
         style="fill:#2a62b3;stroke:none"
         d="m 71.215751,1036.1997 25.506355,-16.1624 -9.343909,-21.97083 z"
         inkscape:connector-curvature="0" />
      <path
         id="path4627"
         style="fill:#26569e;stroke:none"
         d="m 45.204326,1031.1489 26.011425,5.0508 -10.859137,-39.39593 z"
         inkscape:connector-curvature="0" />
      <path
         id="path4629"
         style="fill:#275fab;stroke:none"
         d="m 124.75384,1028.3711 19.95051,11.3641 7.07107,-26.2639 z"
         inkscape:connector-curvature="0" />
      <path
         id="path4631"
         style="fill:#2564b6;stroke:none"
         d="m 151.77542,1013.4713 18.68782,27.2742 14.64722,-15.6574 z"
         inkscape:connector-curvature="0" />
      <path
         id="path4633"
         style="fill:#2b6eca;stroke:none"
         d="m -0.2525375,1024.078 19.1928965,17.6776 -2.272842,-25.5064 z"
         inkscape:connector-curvature="0" />
      <path
         id="path4635"
         style="fill:#3675ce;stroke:none"
         d="m 18.940359,1041.7556 26.263967,-10.6067 -28.536809,-14.8997 z"
         inkscape:connector-curvature="0" />
      <path
         id="path4637"
         style="fill:#3371ca;stroke:none"
         d="m 144.70435,1039.7352 25.75889,1.0103 -18.68782,-27.2742 z"
         inkscape:connector-curvature="0" />
      <path
         id="path4639"
         style="fill:#275eb6;stroke:none"
         d="m 183.84776,1052.6147 1.2627,-27.5266 -14.64722,15.6574 z"
         inkscape:connector-curvature="0" />
      <path
         id="path4641"
         style="fill:#2863ba;stroke:none"
         d="M 0.2525385,1052.1096 18.940359,1041.7556 -0.2525375,1024.078 z"
         inkscape:connector-curvature="0" />
      <path
         id="path4643"
         style="fill:#295da1;stroke:none"
         d="m 83.842659,1052.8673 12.879447,-32.83 -25.506355,16.1624 z"
         inkscape:connector-curvature="0" />
      <path
         id="path4645"
         style="fill:#255daf;stroke:none"
         d="m 83.842659,1052.8673 40.911181,-24.4962 -28.031734,-8.3338 z"
         inkscape:connector-curvature="0" />
      <path
         id="path4647"
         style="fill:#275fae;stroke:none"
         d="m 45.204326,1031.1489 38.638333,21.7184 -12.626908,-16.6676 z"
         inkscape:connector-curvature="0" />
      <path
         id="path4649"
         style="fill:#255dab;stroke:none"
         d="m 83.842659,1052.8673 60.861691,-13.1321 -19.95051,-11.3641 z"
         inkscape:connector-curvature="0" />
      <path
         id="path4651"
         style="fill:#2760af;stroke:none"
         d="m 144.70435,1039.7352 39.14341,12.8795 -13.38452,-11.8692 z"
         inkscape:connector-curvature="0" />
      <path
         id="path4653"
         style="fill:#2c70c8;stroke:none"
         d="m 18.940359,1041.7556 64.9023,11.1117 -38.638333,-21.7184 z"
         inkscape:connector-curvature="0" />
      <path
         id="path4655"
         style="fill:#2b6cba;stroke:none"
         d="m 0.2525385,1052.1096 83.5901205,0.7577 -64.9023,-11.1117 z"
         inkscape:connector-curvature="0" />
      <path
         id="path4657"
         style="fill:#2c68c1;stroke:none"
         d="m 83.842659,1052.8673 100.005101,-0.2526 -39.14341,-12.8795 z"
         inkscape:connector-curvature="0" />
      <path
         id="path4659"
         style="fill:#2657a0;stroke:none"
         d="m 185.11046,1025.0881 -1.01016,-72.73098 0.50508,37.88073 z"
         inkscape:connector-curvature="0" />
    </g>
    <g
       id="g4661"
       transform="matrix(3.7767909,0,0,3.7767909,-344.04532,-3415.4393)">
      <path
         inkscape:connector-curvature="0"
         d="m 83.085044,958.67053 44.951786,-6.81848 -90.156108,-0.50507 z"
         style="fill:#2c67b9;stroke:none"
         id="path4663" />
      <path
         inkscape:connector-curvature="0"
         d="m 128.03683,951.85205 33.58757,7.57611 22.4759,-7.07104 z"
         style="fill:#2c65bc;stroke:none"
         id="path4665" />
      <path
         inkscape:connector-curvature="0"
         d="m 83.085044,958.67053 29.294426,7.07105 15.65736,-13.88953 z"
         style="fill:#2a62ae;stroke:none"
         id="path4667" />
      <path
         inkscape:connector-curvature="0"
         d="M 54.295701,971.04492 83.085044,958.67053 37.880722,951.34698 z"
         style="fill:#2861ae;stroke:none"
         id="path4669" />
      <path
         inkscape:connector-curvature="0"
         d="m 128.03683,951.85205 19.44544,21.21314 14.14213,-13.63703 z"
         style="fill:#2b69bc;stroke:none"
         id="path4671" />
      <path
         inkscape:connector-curvature="0"
         d="m 87.378197,974.83301 25.001273,-9.09143 -29.294426,-7.07105 z"
         style="fill:#2963b3;stroke:none"
         id="path4673" />
      <path
         inkscape:connector-curvature="0"
         d="m 125.76399,984.42944 2.27284,-32.57739 -15.65736,13.88953 z"
         style="fill:#265daa;stroke:none"
         id="path4675" />
      <path
         inkscape:connector-curvature="0"
         d="M 0.5050765,951.59949 23.486045,984.68195 37.880722,951.34698 z"
         style="fill:#2e67c0;stroke:none"
         id="path4677" />
      <path
         inkscape:connector-curvature="0"
         d="m 125.76399,984.42944 21.71828,-11.36425 -19.44544,-21.21314 z"
         style="fill:#2b62b3;stroke:none"
         id="path4679" />
      <path
         inkscape:connector-curvature="0"
         d="m 54.295701,971.04492 33.082496,3.78809 -4.293153,-16.16248 z"
         style="fill:#2b66b5;stroke:none"
         id="path4681" />
      <path
         inkscape:connector-curvature="0"
         d="M 23.486045,984.68195 54.295701,971.04492 37.880722,951.34698 z"
         style="fill:#2d66ba;stroke:none"
         id="path4683" />
      <path
         inkscape:connector-curvature="0"
         d="M -0.2525375,988.7226 23.486045,984.68195 0.5050765,951.59949 z"
         style="fill:#3876d3;stroke:none"
         id="path4685" />
      <path
         inkscape:connector-curvature="0"
         d="m 161.6244,959.42816 22.98098,30.80969 -0.50508,-37.88073 z"
         style="fill:#2e64bb;stroke:none"
         id="path4687" />
      <path
         inkscape:connector-curvature="0"
         d="m 164.1498,997.30889 -2.5254,-37.88073 -14.14213,13.63703 z"
         style="fill:#2d68bf;stroke:none"
         id="path4689" />
      <path
         inkscape:connector-curvature="0"
         d="m 164.1498,997.30889 20.45558,-7.07104 -22.98098,-30.80969 z"
         style="fill:#2863b6;stroke:none"
         id="path4691" />
      <path
         inkscape:connector-curvature="0"
         d="M 60.356614,996.80377 87.378197,974.83301 54.295701,971.04492 z"
         style="fill:#2665ba;stroke:none"
         id="path4693" />
      <path
         inkscape:connector-curvature="0"
         d="m 112.37947,965.74158 -2.52538,36.61802 15.9099,-17.93016 z"
         style="fill:#26589f;stroke:none"
         id="path4695" />
      <path
         inkscape:connector-curvature="0"
         d="m 87.378197,974.83301 22.475893,27.52659 2.52538,-36.61802 z"
         style="fill:#2c69bd;stroke:none"
         id="path4697" />
      <path
         inkscape:connector-curvature="0"
         d="m 60.356614,996.80377 27.021583,1.2627 0,-23.23346 z"
         style="fill:#2a63b9;stroke:none"
         id="path4699" />
      <path
         inkscape:connector-curvature="0"
         d="m 87.378197,998.06647 22.475893,4.29313 -22.475893,-27.52659 z"
         style="fill:#2b5fa6;stroke:none"
         id="path4701" />
      <path
         inkscape:connector-curvature="0"
         d="m 23.486045,984.68195 36.870569,12.12182 -6.060913,-25.75885 z"
         style="fill:#2c6ac2;stroke:none"
         id="path4703" />
      <path
         inkscape:connector-curvature="0"
         d="m 125.76399,984.42944 38.38581,12.87945 -16.66753,-24.2437 z"
         style="fill:#2a63b6;stroke:none"
         id="path4705" />
      <path
         inkscape:connector-curvature="0"
         d="m 125.76399,984.42944 26.01143,29.04186 12.37438,-16.16241 z"
         style="fill:#265095;stroke:none"
         id="path4707" />
      <path
         inkscape:connector-curvature="0"
         d="m -0.2525375,988.7226 16.9200545,27.5266 6.818528,-31.56725 z"
         style="fill:#285eb1;stroke:none"
         id="path4709" />
      <path
         inkscape:connector-curvature="0"
         d="m 96.722106,1020.0373 13.131984,-17.6777 -22.475893,-4.29313 z"
         style="fill:#2658ab;stroke:none"
         id="path4711" />
      <path
         inkscape:connector-curvature="0"
         d="M -0.2525375,1024.078 16.667517,1016.2492 -0.2525375,988.7226 z"
         style="fill:#2f5fb5;stroke:none"
         id="path4713" />
      <path
         inkscape:connector-curvature="0"
         d="m 164.1498,997.30889 20.96066,27.77921 -0.50508,-34.85025 z"
         style="fill:#2a65b3;stroke:none"
         id="path4715" />
      <path
         inkscape:connector-curvature="0"
         d="m 109.85409,1002.3596 41.92133,11.1117 -26.01143,-29.04186 z"
         style="fill:#2860af;stroke:none"
         id="path4717" />
      <path
         inkscape:connector-curvature="0"
         d="M 16.667517,1016.2492 60.356614,996.80377 23.486045,984.68195 z"
         style="fill:#2a6dc5;stroke:none"
         id="path4719" />
      <path
         inkscape:connector-curvature="0"
         d="m 124.75384,1028.3711 27.02158,-14.8998 -41.92133,-11.1117 z"
         style="fill:#295dae;stroke:none"
         id="path4721" />
      <path
         inkscape:connector-curvature="0"
         d="m 16.667517,1016.2492 28.536809,14.8997 15.152288,-34.34513 z"
         style="fill:#2059a5;stroke:none"
         id="path4723" />
      <path
         inkscape:connector-curvature="0"
         d="m 151.77542,1013.4713 33.33504,11.6168 -20.96066,-27.77921 z"
         style="fill:#2d67b5;stroke:none"
         id="path4725" />
      <path
         inkscape:connector-curvature="0"
         d="m 96.722106,1020.0373 28.031734,8.3338 -14.89975,-26.0115 z"
         style="fill:#2b74cc;stroke:none"
         id="path4727" />
      <path
         inkscape:connector-curvature="0"
         d="m 71.215751,1036.1997 16.162446,-38.13323 -27.021583,-1.2627 z"
         style="fill:#2862ae;stroke:none"
         id="path4729" />
      <path
         inkscape:connector-curvature="0"
         d="m 71.215751,1036.1997 25.506355,-16.1624 -9.343909,-21.97083 z"
         style="fill:#2a62b3;stroke:none"
         id="path4731" />
      <path
         inkscape:connector-curvature="0"
         d="m 45.204326,1031.1489 26.011425,5.0508 -10.859137,-39.39593 z"
         style="fill:#26569e;stroke:none"
         id="path4733" />
      <path
         inkscape:connector-curvature="0"
         d="m 124.75384,1028.3711 19.95051,11.3641 7.07107,-26.2639 z"
         style="fill:#275fab;stroke:none"
         id="path4735" />
      <path
         inkscape:connector-curvature="0"
         d="m 151.77542,1013.4713 18.68782,27.2742 14.64722,-15.6574 z"
         style="fill:#2564b6;stroke:none"
         id="path4737" />
      <path
         inkscape:connector-curvature="0"
         d="m -0.2525375,1024.078 19.1928965,17.6776 -2.272842,-25.5064 z"
         style="fill:#2b6eca;stroke:none"
         id="path4739" />
      <path
         inkscape:connector-curvature="0"
         d="m 18.940359,1041.7556 26.263967,-10.6067 -28.536809,-14.8997 z"
         style="fill:#3675ce;stroke:none"
         id="path4741" />
      <path
         inkscape:connector-curvature="0"
         d="m 144.70435,1039.7352 25.75889,1.0103 -18.68782,-27.2742 z"
         style="fill:#3371ca;stroke:none"
         id="path4743" />
      <path
         inkscape:connector-curvature="0"
         d="m 183.84776,1052.6147 1.2627,-27.5266 -14.64722,15.6574 z"
         style="fill:#275eb6;stroke:none"
         id="path4745" />
      <path
         inkscape:connector-curvature="0"
         d="M 0.2525385,1052.1096 18.940359,1041.7556 -0.2525375,1024.078 z"
         style="fill:#2863ba;stroke:none"
         id="path4747" />
      <path
         inkscape:connector-curvature="0"
         d="m 83.842659,1052.8673 12.879447,-32.83 -25.506355,16.1624 z"
         style="fill:#295da1;stroke:none"
         id="path4749" />
      <path
         inkscape:connector-curvature="0"
         d="m 83.842659,1052.8673 40.911181,-24.4962 -28.031734,-8.3338 z"
         style="fill:#255daf;stroke:none"
         id="path4751" />
      <path
         inkscape:connector-curvature="0"
         d="m 45.204326,1031.1489 38.638333,21.7184 -12.626908,-16.6676 z"
         style="fill:#275fae;stroke:none"
         id="path4753" />
      <path
         inkscape:connector-curvature="0"
         d="m 83.842659,1052.8673 60.861691,-13.1321 -19.95051,-11.3641 z"
         style="fill:#255dab;stroke:none"
         id="path4755" />
      <path
         inkscape:connector-curvature="0"
         d="m 144.70435,1039.7352 39.14341,12.8795 -13.38452,-11.8692 z"
         style="fill:#2760af;stroke:none"
         id="path4757" />
      <path
         inkscape:connector-curvature="0"
         d="m 18.940359,1041.7556 64.9023,11.1117 -38.638333,-21.7184 z"
         style="fill:#2c70c8;stroke:none"
         id="path4759" />
      <path
         inkscape:connector-curvature="0"
         d="m 0.2525385,1052.1096 83.5901205,0.7577 -64.9023,-11.1117 z"
         style="fill:#2b6cba;stroke:none"
         id="path4761" />
      <path
         inkscape:connector-curvature="0"
         d="m 83.842659,1052.8673 100.005101,-0.2526 -39.14341,-12.8795 z"
         style="fill:#2c68c1;stroke:none"
         id="path4763" />
      <path
         inkscape:connector-curvature="0"
         d="m 185.11046,1025.0881 -1.01016,-72.73098 0.50508,37.88073 z"
         style="fill:#2657a0;stroke:none"
         id="path4765" />
    </g>
    <g
       id="g4767"
       transform="matrix(3.7767909,0,0,3.7767909,-344.04532,-3415.4393)">
      <path
         id="path4769"
         style="fill:#2c67b9;stroke:none"
         d="m 83.085044,958.67053 44.951786,-6.81848 -90.156108,-0.50507 z"
         inkscape:connector-curvature="0" />
      <path
         id="path4771"
         style="fill:#2c65bc;stroke:none"
         d="m 128.03683,951.85205 33.58757,7.57611 22.4759,-7.07104 z"
         inkscape:connector-curvature="0" />
      <path
         id="path4773"
         style="fill:#2a62ae;stroke:none"
         d="m 83.085044,958.67053 29.294426,7.07105 15.65736,-13.88953 z"
         inkscape:connector-curvature="0" />
      <path
         id="path4775"
         style="fill:#2861ae;stroke:none"
         d="M 54.295701,971.04492 83.085044,958.67053 37.880722,951.34698 z"
         inkscape:connector-curvature="0" />
      <path
         id="path4777"
         style="fill:#2b69bc;stroke:none"
         d="m 128.03683,951.85205 19.44544,21.21314 14.14213,-13.63703 z"
         inkscape:connector-curvature="0" />
      <path
         id="path4779"
         style="fill:#2963b3;stroke:none"
         d="m 87.378197,974.83301 25.001273,-9.09143 -29.294426,-7.07105 z"
         inkscape:connector-curvature="0" />
      <path
         id="path4781"
         style="fill:#265daa;stroke:none"
         d="m 125.76399,984.42944 2.27284,-32.57739 -15.65736,13.88953 z"
         inkscape:connector-curvature="0" />
      <path
         id="path4783"
         style="fill:#2e67c0;stroke:none"
         d="M 0.5050765,951.59949 23.486045,984.68195 37.880722,951.34698 z"
         inkscape:connector-curvature="0" />
      <path
         id="path4785"
         style="fill:#2b62b3;stroke:none"
         d="m 125.76399,984.42944 21.71828,-11.36425 -19.44544,-21.21314 z"
         inkscape:connector-curvature="0" />
      <path
         id="path4787"
         style="fill:#2b66b5;stroke:none"
         d="m 54.295701,971.04492 33.082496,3.78809 -4.293153,-16.16248 z"
         inkscape:connector-curvature="0" />
      <path
         id="path4789"
         style="fill:#2d66ba;stroke:none"
         d="M 23.486045,984.68195 54.295701,971.04492 37.880722,951.34698 z"
         inkscape:connector-curvature="0" />
      <path
         id="path4791"
         style="fill:#3876d3;stroke:none"
         d="M -0.2525375,988.7226 23.486045,984.68195 0.5050765,951.59949 z"
         inkscape:connector-curvature="0" />
      <path
         id="path4793"
         style="fill:#2e64bb;stroke:none"
         d="m 161.6244,959.42816 22.98098,30.80969 -0.50508,-37.88073 z"
         inkscape:connector-curvature="0" />
      <path
         id="path4795"
         style="fill:#2d68bf;stroke:none"
         d="m 164.1498,997.30889 -2.5254,-37.88073 -14.14213,13.63703 z"
         inkscape:connector-curvature="0" />
      <path
         id="path4797"
         style="fill:#2863b6;stroke:none"
         d="m 164.1498,997.30889 20.45558,-7.07104 -22.98098,-30.80969 z"
         inkscape:connector-curvature="0" />
      <path
         id="path4799"
         style="fill:#2665ba;stroke:none"
         d="M 60.356614,996.80377 87.378197,974.83301 54.295701,971.04492 z"
         inkscape:connector-curvature="0" />
      <path
         id="path4801"
         style="fill:#26589f;stroke:none"
         d="m 112.37947,965.74158 -2.52538,36.61802 15.9099,-17.93016 z"
         inkscape:connector-curvature="0" />
      <path
         id="path4803"
         style="fill:#2c69bd;stroke:none"
         d="m 87.378197,974.83301 22.475893,27.52659 2.52538,-36.61802 z"
         inkscape:connector-curvature="0" />
      <path
         id="path4805"
         style="fill:#2a63b9;stroke:none"
         d="m 60.356614,996.80377 27.021583,1.2627 0,-23.23346 z"
         inkscape:connector-curvature="0" />
      <path
         id="path4807"
         style="fill:#2b5fa6;stroke:none"
         d="m 87.378197,998.06647 22.475893,4.29313 -22.475893,-27.52659 z"
         inkscape:connector-curvature="0" />
      <path
         id="path4809"
         style="fill:#2c6ac2;stroke:none"
         d="m 23.486045,984.68195 36.870569,12.12182 -6.060913,-25.75885 z"
         inkscape:connector-curvature="0" />
      <path
         id="path4811"
         style="fill:#2a63b6;stroke:none"
         d="m 125.76399,984.42944 38.38581,12.87945 -16.66753,-24.2437 z"
         inkscape:connector-curvature="0" />
      <path
         id="path4813"
         style="fill:#265095;stroke:none"
         d="m 125.76399,984.42944 26.01143,29.04186 12.37438,-16.16241 z"
         inkscape:connector-curvature="0" />
      <path
         id="path4815"
         style="fill:#285eb1;stroke:none"
         d="m -0.2525375,988.7226 16.9200545,27.5266 6.818528,-31.56725 z"
         inkscape:connector-curvature="0" />
      <path
         id="path4817"
         style="fill:#2658ab;stroke:none"
         d="m 96.722106,1020.0373 13.131984,-17.6777 -22.475893,-4.29313 z"
         inkscape:connector-curvature="0" />
      <path
         id="path4819"
         style="fill:#2f5fb5;stroke:none"
         d="M -0.2525375,1024.078 16.667517,1016.2492 -0.2525375,988.7226 z"
         inkscape:connector-curvature="0" />
      <path
         id="path4821"
         style="fill:#2a65b3;stroke:none"
         d="m 164.1498,997.30889 20.96066,27.77921 -0.50508,-34.85025 z"
         inkscape:connector-curvature="0" />
      <path
         id="path4823"
         style="fill:#2860af;stroke:none"
         d="m 109.85409,1002.3596 41.92133,11.1117 -26.01143,-29.04186 z"
         inkscape:connector-curvature="0" />
      <path
         id="path4825"
         style="fill:#2a6dc5;stroke:none"
         d="M 16.667517,1016.2492 60.356614,996.80377 23.486045,984.68195 z"
         inkscape:connector-curvature="0" />
      <path
         id="path4827"
         style="fill:#295dae;stroke:none"
         d="m 124.75384,1028.3711 27.02158,-14.8998 -41.92133,-11.1117 z"
         inkscape:connector-curvature="0" />
      <path
         id="path4829"
         style="fill:#2059a5;stroke:none"
         d="m 16.667517,1016.2492 28.536809,14.8997 15.152288,-34.34513 z"
         inkscape:connector-curvature="0" />
      <path
         id="path4831"
         style="fill:#2d67b5;stroke:none"
         d="m 151.77542,1013.4713 33.33504,11.6168 -20.96066,-27.77921 z"
         inkscape:connector-curvature="0" />
      <path
         id="path4833"
         style="fill:#2b74cc;stroke:none"
         d="m 96.722106,1020.0373 28.031734,8.3338 -14.89975,-26.0115 z"
         inkscape:connector-curvature="0" />
      <path
         id="path4835"
         style="fill:#2862ae;stroke:none"
         d="m 71.215751,1036.1997 16.162446,-38.13323 -27.021583,-1.2627 z"
         inkscape:connector-curvature="0" />
      <path
         id="path4837"
         style="fill:#2a62b3;stroke:none"
         d="m 71.215751,1036.1997 25.506355,-16.1624 -9.343909,-21.97083 z"
         inkscape:connector-curvature="0" />
      <path
         id="path4839"
         style="fill:#26569e;stroke:none"
         d="m 45.204326,1031.1489 26.011425,5.0508 -10.859137,-39.39593 z"
         inkscape:connector-curvature="0" />
      <path
         id="path4841"
         style="fill:#275fab;stroke:none"
         d="m 124.75384,1028.3711 19.95051,11.3641 7.07107,-26.2639 z"
         inkscape:connector-curvature="0" />
      <path
         id="path4843"
         style="fill:#2564b6;stroke:none"
         d="m 151.77542,1013.4713 18.68782,27.2742 14.64722,-15.6574 z"
         inkscape:connector-curvature="0" />
      <path
         id="path4845"
         style="fill:#2b6eca;stroke:none"
         d="m -0.2525375,1024.078 19.1928965,17.6776 -2.272842,-25.5064 z"
         inkscape:connector-curvature="0" />
      <path
         id="path4847"
         style="fill:#3675ce;stroke:none"
         d="m 18.940359,1041.7556 26.263967,-10.6067 -28.536809,-14.8997 z"
         inkscape:connector-curvature="0" />
      <path
         id="path4849"
         style="fill:#3371ca;stroke:none"
         d="m 144.70435,1039.7352 25.75889,1.0103 -18.68782,-27.2742 z"
         inkscape:connector-curvature="0" />
      <path
         id="path4851"
         style="fill:#275eb6;stroke:none"
         d="m 183.84776,1052.6147 1.2627,-27.5266 -14.64722,15.6574 z"
         inkscape:connector-curvature="0" />
      <path
         id="path4853"
         style="fill:#2863ba;stroke:none"
         d="M 0.2525385,1052.1096 18.940359,1041.7556 -0.2525375,1024.078 z"
         inkscape:connector-curvature="0" />
      <path
         id="path4855"
         style="fill:#295da1;stroke:none"
         d="m 83.842659,1052.8673 12.879447,-32.83 -25.506355,16.1624 z"
         inkscape:connector-curvature="0" />
      <path
         id="path4857"
         style="fill:#255daf;stroke:none"
         d="m 83.842659,1052.8673 40.911181,-24.4962 -28.031734,-8.3338 z"
         inkscape:connector-curvature="0" />
      <path
         id="path4859"
         style="fill:#275fae;stroke:none"
         d="m 45.204326,1031.1489 38.638333,21.7184 -12.626908,-16.6676 z"
         inkscape:connector-curvature="0" />
      <path
         id="path4861"
         style="fill:#255dab;stroke:none"
         d="m 83.842659,1052.8673 60.861691,-13.1321 -19.95051,-11.3641 z"
         inkscape:connector-curvature="0" />
      <path
         id="path4863"
         style="fill:#2760af;stroke:none"
         d="m 144.70435,1039.7352 39.14341,12.8795 -13.38452,-11.8692 z"
         inkscape:connector-curvature="0" />
      <path
         id="path4865"
         style="fill:#2c70c8;stroke:none"
         d="m 18.940359,1041.7556 64.9023,11.1117 -38.638333,-21.7184 z"
         inkscape:connector-curvature="0" />
      <path
         id="path4867"
         style="fill:#2b6cba;stroke:none"
         d="m 0.2525385,1052.1096 83.5901205,0.7577 -64.9023,-11.1117 z"
         inkscape:connector-curvature="0" />
      <path
         id="path4869"
         style="fill:#2c68c1;stroke:none"
         d="m 83.842659,1052.8673 100.005101,-0.2526 -39.14341,-12.8795 z"
         inkscape:connector-curvature="0" />
      <path
         id="path4871"
         style="fill:#2657a0;stroke:none"
         d="m 185.11046,1025.0881 -1.01016,-72.73098 0.50508,37.88073 z"
         inkscape:connector-curvature="0" />
    </g>
    <path
       inkscape:connector-curvature="0"
       style="font-size:medium;font-style:normal;font-variant:normal;font-weight:normal;font-stretch:normal;text-indent:0;text-align:start;text-decoration:none;line-height:normal;letter-spacing:normal;word-spacing:normal;text-transform:none;direction:ltr;block-progression:tb;writing-mode:lr-tb;text-anchor:start;baseline-shift:baseline;opacity:0.28947371;color:#000000;fill:#ffffff;fill-opacity:1;stroke:none;stroke-width:1px;marker:none;visibility:visible;display:inline;overflow:visible;enable-background:accumulate;font-family:Sans;-inkscape-font-specification:Sans"
       d="m 137.77679,200.64583 c -2.23186,0 -4.02563,1.79377 -4.02563,4.02564 0,1.6739 1.05197,3.08573 2.50242,3.69923 l -5.65765,91.28407 c -1.18787,0.70374 -2.06722,1.89206 -2.06722,3.37283 0,0.27505 0.0564,0.50212 0.10862,0.76161 L 71.734395,366.241 c -0.331452,-0.0881 -0.61994,-0.2176 -0.979209,-0.2176 -2.231866,0 -4.025639,1.79373 -4.025639,4.02563 0,0.66528 0.259034,1.18738 0.544006,1.74082 l -44.173219,61.47258 c -0.362786,-0.10688 -0.690617,-0.2176 -1.08801,-0.2176 -2.033204,0 -3.633398,1.52701 -3.916837,3.48163 l -90.957662,56.79414 c -0.299421,-0.0707 -0.549228,-0.2176 -0.870408,-0.2176 -1.169585,0 -2.199696,0.51145 -2.937628,1.30561 l -95.527309,-16.86416 -0.2176,-0.10862 c -0.73508,-1.00592 -1.81396,-1.74082 -3.15523,-1.74082 -0.038,0 -0.071,-0.001 -0.10863,0 l -100.53215,-52.22449 c 0.11629,-0.35861 0.20681,-0.69327 0.2176,-1.08802 0.001,-0.0379 0,-0.0707 0,-0.10862 l 157.21749,-70.28547 c 0.48346,0.20437 0.96525,0.32623 1.52322,0.32623 2.23186,0 4.02564,-1.79377 4.02564,-4.02564 0,-1.34126 -0.73494,-2.42015 -1.74082,-3.15523 l -21.5426,-92.15464 c 0.89812,-0.74121 1.52321,-1.79099 1.52321,-3.04643 0,-2.2319 -1.79377,-4.02564 -4.02564,-4.02564 -2.2319,0 -4.02564,1.79374 -4.02564,4.02564 0,1.87259 1.31812,3.34943 3.04643,3.80803 l 21.2162,90.84886 c -0.31613,0.1337 -0.60145,0.33807 -0.8704,0.54401 L -252.6013,301.61319 c -0.28341,-1.95463 -1.88367,-3.48164 -3.91684,-3.48164 -2.2319,0 -4.02564,1.79374 -4.02564,4.02564 0,2.23187 1.79374,4.02564 4.02564,4.02564 1.14814,0 2.09312,-0.5368 2.82883,-1.30561 l 132.41085,43.30281 c -0.001,0.038 0,0.0707 0,0.10862 0,0.27505 0.0564,0.50213 0.10863,0.76161 l -156.56469,70.06787 c -0.66791,-0.48809 -1.39422,-0.87041 -2.28482,-0.87041 -2.10941,0 -3.73311,1.63762 -3.91684,3.69923 l -1.41441,0.65281 1.52322,0.76161 c 0.49341,1.67466 1.97352,2.93762 3.80803,2.93762 0.48176,0 0.87716,-0.17164 1.30561,-0.32623 l 99.66175,51.8981 c -0.31091,0.57259 -0.54401,1.15214 -0.54401,1.84961 0,2.23187 1.79374,4.02564 4.02564,4.02564 1.6739,0 3.08574,-1.05197 3.69924,-2.50242 l 94.330491,16.64656 c 0.381238,1.83572 1.859226,3.26403 3.808036,3.26403 0.198801,0 0.352968,-0.0811 0.544005,-0.10863 l 42.867606,59.29656 2.828827,-1.95842 -42.867606,-59.29656 c 0.356971,-0.60253 0.652806,-1.20729 0.652806,-1.95842 0,-0.55796 -0.121857,-1.03972 -0.326229,-1.52321 l 89.216845,-55.70613 c 0.731317,0.73132 1.712894,1.19681 2.828827,1.19681 0.751093,0 1.355887,-0.29594 1.958418,-0.6528 l 99.661744,29.15867 c -0.17896,0.45648 -0.32623,0.89454 -0.32623,1.41442 0,2.23186 1.79377,4.02563 4.02564,4.02563 1.53443,0 2.79732,-0.91629 3.48163,-2.17602 l 66.80384,35.79554 c -0.20438,0.4835 -0.32623,0.96525 -0.32623,1.52322 0,2.23186 1.79377,4.02563 4.02563,4.02563 1.71203,0 3.11043,-1.10792 3.69924,-2.61122 l 94.11289,4.24324 0.2176,-3.48163 -94.76569,-4.35204 c -0.72624,-1.07496 -1.86912,-1.84962 -3.26404,-1.84962 -0.1988,0 -0.353,0.0811 -0.544,0.10863 l -70.17667,-37.42756 c -0.72623,-1.07495 -1.86911,-1.84962 -3.26403,-1.84962 -0.1605,0 -0.27957,0.0905 -0.4352,0.10863 L 25.929683,437.5055 c 0.01741,-0.15563 0.108627,-0.2747 0.108627,-0.4352 0,-0.55797 -0.121857,-1.03972 -0.326229,-1.52322 l 44.281671,-61.58121 c 0.259382,0.0522 0.486698,0.10863 0.761608,0.10863 2.23187,0 4.02564,-1.79377 4.02564,-4.02564 0,-0.55797 -0.12186,-1.03972 -0.32623,-1.52321 l 56.35893,-61.90779 c 0.54021,0.26774 1.097,0.4352 1.74082,0.4352 0.12255,0 0.20681,-0.0982 0.32623,-0.10862 L 224.92642,408.891 c -0.38576,0.61925 -0.65281,1.28392 -0.65281,2.06722 0,2.23187 1.79378,4.02564 4.02564,4.02564 2.23187,0 4.02564,-1.79377 4.02564,-4.02564 0,-2.2319 -1.79377,-4.02564 -4.02564,-4.02564 -0.12255,0 -0.20681,0.0982 -0.32623,0.10863 l -91.28406,-101.07616 133.71647,45.91404 c 0.0602,2.17919 1.83186,3.91684 4.02563,3.91684 2.23187,0 4.02564,-1.79378 4.02564,-4.02564 0,-2.2319 -1.79377,-4.02564 -4.02564,-4.02564 -1.00863,0 -1.9032,0.36815 -2.61122,0.97921 L 136.36256,302.26582 c -0.27192,-1.31014 -1.07966,-2.42788 -2.28483,-2.93763 l 5.65766,-91.28406 c 1.18786,-0.70378 2.06722,-1.89206 2.06722,-3.37284 0,-2.23186 -1.79378,-4.02563 -4.02564,-4.02563 z"
       id="path4873" />
    <g
       transform="matrix(0.57482699,0,0,0.57482699,-4.8887302,119.92439)"
       id="g5078">
      <path
         sodipodi:type="arc"
         style="opacity:0.39473685;fill:#000000;stroke:none;filter:url(#filter4035)"
         id="path4875"
         sodipodi:cx="82"
         sodipodi:cy="58"
         sodipodi:rx="32.25"
         sodipodi:ry="32.25"
         d="M 114.25,58 C 114.25,75.811183 99.811183,90.25 82,90.25 64.188817,90.25 49.75,75.811183 49.75,58 49.75,40.188817 64.188817,25.75 82,25.75 c 17.811183,0 32.25,14.438817 32.25,32.25 z"
         transform="matrix(3.481633,0,0,3.481633,-296.99212,165.9383)" />
      <g
         id="g5069">
        <path
           sodipodi:type="arc"
           style="opacity:0.17105264;fill:#000000;stroke:none;filter:url(#filter4053)"
           id="path4877"
           sodipodi:cx="82"
           sodipodi:cy="58"
           sodipodi:rx="32.25"
           sodipodi:ry="32.25"
           d="M 114.25,58 C 114.25,75.811183 99.811183,90.25 82,90.25 64.188817,90.25 49.75,75.811183 49.75,58 49.75,40.188817 64.188817,25.75 82,25.75 c 17.811183,0 32.25,14.438817 32.25,32.25 z"
           transform="matrix(3.481633,0,0,3.481633,-296.99212,165.9383)" />
        <path
           sodipodi:type="arc"
           style="fill:#ffffff;stroke:none"
           id="path4879"
           sodipodi:cx="82"
           sodipodi:cy="58"
           sodipodi:rx="32.25"
           sodipodi:ry="32.25"
           d="M 114.25,58 C 114.25,75.811183 99.811183,90.25 82,90.25 64.188817,90.25 49.75,75.811183 49.75,58 49.75,40.188817 64.188817,25.75 82,25.75 c 17.811183,0 32.25,14.438817 32.25,32.25 z"
           transform="matrix(3.481633,0,0,3.481633,-296.99212,165.9383)" />
        <g
           style="opacity:0.37719308"
           id="g4881"
           inkscape:label="Livello 1"
           transform="matrix(2.6610042,0,0,2.6610042,-72.717444,303.44595)">
          <rect
             ry="0"
             rx="0"
             y="0"
             x="0"
             height="48"
             width="48"
             id="rect4883"
             style="fill:none;stroke:none" />
          <rect
             ry="2.9606304"
             rx="2.9606297"
             y="2.0000005"
             x="2.0000074"
             height="43.943901"
             width="43.956081"
             id="rect4885"
             style="fill:none;stroke:#ffffff;stroke-width:4.00000048;stroke-linecap:round;stroke-linejoin:miter;stroke-miterlimit:4;stroke-opacity:1;stroke-dasharray:none;stroke-dashoffset:0" />
          <rect
             ry="0"
             rx="0"
             y="5.9999981"
             x="6.0000129"
             height="35.999989"
             width="36.000008"
             id="rect4887"
             style="fill:#ffffff;fill-opacity:1;stroke:#000000;stroke-width:4.00000143;stroke-linecap:round;stroke-linejoin:round;stroke-miterlimit:4;stroke-opacity:1;stroke-dasharray:none;stroke-dashoffset:0" />
          <path
             sodipodi:nodetypes="ccccccccc"
             id="path4889"
             d="m 19,12 0,7 -5,0 0,16 20,0 0,-16 -5,0 0,-7 -10,0 z"
             style="fill:#000000;fill-opacity:1;stroke:none"
             inkscape:connector-curvature="0" />
        </g>
      </g>
    </g>
    <path
       id="path5362"
       d="m -219.90625,416.35968 0,55.15625 435.5625,0 0,-55.15625 -435.5625,0 z m 356.40625,13.75 c 3.51998,3e-5 6.42081,0.86503 8.6875,2.625 2.26664,1.76003 3.59539,4.17419 3.96875,7.1875 l -5.65625,0 c -1.06669,-3.11998 -3.39544,-4.68748 -6.96875,-4.6875 -2.53335,2e-5 -4.53334,0.90086 -6,2.6875 -1.44001,1.78669 -2.15626,4.22835 -2.15625,7.375 -1e-5,2.98668 0.76582,5.45501 2.3125,7.375 1.57332,1.92001 3.57332,2.875 6,2.875 0.37332,0 0.80123,-0.045 1.28125,-0.125 0.50665,-0.10666 1.11915,-0.29583 1.8125,-0.5625 0.69331,-0.29333 1.31956,-0.67166 1.90625,-1.125 0.58665,-0.45333 1.10914,-1.07499 1.5625,-1.875 0.45331,-0.82666 0.73706,-1.74124 0.84375,-2.78125 l -6.625,0 0,-5 11.6875,0 0,15.75 -3.625,0 -0.71875,-3.84375 c -1.12002,1.62667 -2.36336,2.81583 -3.75,3.5625 -1.38669,0.74667 -3.05793,1.125 -5.03125,1.125 -3.94668,0 -7.22584,-1.4325 -9.8125,-4.3125 -2.56,-2.87999 -3.84375,-6.54207 -3.84375,-10.96875 0,-4.53331 1.32416,-8.20456 3.9375,-11.03125 2.61333,-2.82664 6.00082,-4.24997 10.1875,-4.25 z m -210.03125,0.0937 c 4.213314,3e-5 7.60081,1.39669 10.1875,4.25 2.586638,2.82669 3.87497,6.57877 3.875,11.21875 -3e-5,4.32001 -1.283778,7.90126 -3.84375,10.78125 -2.533357,2.85333 -5.920853,4.28125 -10.1875,4.28125 -4.240011,0 -7.627508,-1.42792 -10.1875,-4.28125 -2.560003,-2.85333 -3.843752,-6.51999 -3.84375,-11 -2e-6,-4.47998 1.283747,-8.14664 3.84375,-11 2.586659,-2.85331 5.969572,-4.24997 10.15625,-4.25 z m -133.28125,0.46875 6.1875,0 11.53125,19.84375 0,-19.84375 6,0 0,29.15625 -6,0 -11.71875,-20.15625 0,20.15625 -6,0 0,-29.15625 z m 30.15625,0 21.09375,0 0,5 -15.09375,0 0,6.59375 13.96875,0 0,5 -13.96875,0 0,7.5625 15.8125,0 0,5 -21.8125,0 0,-29.15625 z m 24.5625,0 23.375,0 0,5 -8.53125,0 0,24.15625 -6,0 0,-24.15625 -8.84375,0 0,-5 z m 25.40625,0 6.34375,0 4.53125,21.84375 4.5,-21.84375 5.9375,0 4.71875,21.875 4.34375,-21.875 6.375,0 -8.09375,29.15625 -5.375,0 -4.90625,-22.75 -4.75,22.75 -5.40625,0 -8.21875,-29.15625 z m 72,0 15.625,0 c 1.493313,3e-5 2.777062,0.24336 3.84375,0.75 1.09331,0.50669 1.904142,1.17336 2.4375,2 0.559974,0.82669 0.978724,1.67794 1.21875,2.53125 0.239973,0.82669 0.343723,1.68711 0.34375,2.59375 -2.7e-5,3.52002 -1.626275,5.90752 -4.90625,7.1875 0.719978,0.29335 1.24706,0.5321 1.59375,0.71875 0.346643,0.16001 0.684559,0.44376 1.03125,0.84375 0.373309,0.40001 0.612058,0.77376 0.71875,1.09375 0.133308,0.32001 0.268308,0.89668 0.375,1.75 0.133308,0.85334 0.223308,1.70459 0.25,2.53125 0.02664,0.82667 0.03581,2.06084 0.0625,3.6875 -2.6e-5,1.12 0.42789,1.895 1.28125,2.375 l 0,1.09375 -6.4375,0 c -0.373354,-0.69333 -0.616687,-1.36 -0.75,-2 -0.106686,-0.64 -0.15627,-1.64 -0.15625,-3 -2e-5,-0.79999 0.0046,-1.42166 0.03125,-1.875 0.02665,-0.45333 0.03123,-0.87208 0.03125,-1.21875 -2e-5,-1.22666 -0.288353,-2.09166 -0.875,-2.625 -0.586685,-0.55999 -1.537101,-0.84374 -2.84375,-0.84375 l -6.875,0 0,11.5625 -6,0 0,-29.15625 z m 28.8125,0 6,0 0,12.78125 11.40625,-12.78125 7.09375,0 -11.65625,12.5625 12.875,16.59375 -7.15625,0 -9.5625,-12.875 -3,3.125 0,9.75 -6,0 0,-29.15625 z m 29.15625,0 8.96875,0 5.28125,23.1875 5.09375,-23.1875 9.0625,0 0,29.15625 -6,0 0,-22.71875 -5.15625,22.71875 -6,0 -5.25,-22.71875 0,22.71875 -6,0 0,-29.15625 z m 42.3125,0 6.65625,0 10.0625,29.15625 -6.15625,0 -1.90625,-5.875 -10.9375,0 -1.9375,5.875 -6.125,0 10.34375,-29.15625 z m 20.34375,0 6.15625,0 11.5625,19.84375 0,-19.84375 6,0 0,29.15625 -6,0 -11.71875,-20.15625 0,20.15625 -6,0 0,-29.15625 z m 37.71875,0 6.625,0 10.09375,29.15625 -6.15625,0 -1.9375,-5.875 -10.90625,0 -1.96875,5.875 -6.125,0 10.375,-29.15625 z m 51.09375,0 21.09375,0 0,5 -15.09375,0 0,6.59375 13.96875,0 0,5 -13.96875,0 0,7.5625 15.8125,0 0,5 -21.8125,0 0,-29.15625 z m 26.5625,0 15.65625,0 c 1.49331,3e-5 2.77706,0.24336 3.84375,0.75 1.09331,0.50669 1.90414,1.17336 2.4375,2 0.55997,0.82669 0.94747,1.67794 1.1875,2.53125 0.23997,0.82669 0.37497,1.68711 0.375,2.59375 -3e-5,3.52002 -1.65753,5.90752 -4.9375,7.1875 0.71998,0.29335 1.27831,0.5321 1.625,0.71875 0.34664,0.16001 0.68456,0.44376 1.03125,0.84375 0.37331,0.40001 0.61206,0.77376 0.71875,1.09375 0.13331,0.32001 0.23706,0.89668 0.34375,1.75 0.13331,0.85334 0.22331,1.70459 0.25,2.53125 0.0266,0.82667 0.0671,2.06084 0.0937,3.6875 -3e-5,1.12 0.42789,1.895 1.28125,2.375 l 0,1.09375 -6.46875,0 c -0.37335,-0.69333 -0.61669,-1.36 -0.75,-2 -0.10669,-0.64 -0.15627,-1.64 -0.15625,-3 -2e-5,-0.79999 0.005,-1.42166 0.0312,-1.875 0.0266,-0.45333 0.0625,-0.87208 0.0625,-1.21875 -2e-5,-1.22666 -0.3196,-2.09166 -0.90625,-2.625 -0.58669,-0.55999 -1.50585,-0.84374 -2.8125,-0.84375 l -6.90625,0 0,11.5625 -6,0 0,-29.15625 z m -254.8125,4.625 c -2.42668,2e-5 -4.377095,0.94586 -5.84375,2.8125 -1.466675,1.84002 -2.187508,4.2771 -2.1875,7.34375 -8e-6,3.06668 0.720825,5.53959 2.1875,7.40625 1.466655,1.84001 3.41707,2.78125 5.84375,2.78125 2.399982,0 4.345813,-0.94124 5.8125,-2.78125 1.49331,-1.83999 2.218726,-4.23207 2.21875,-7.21875 -2.4e-5,-3.14665 -0.720856,-5.66456 -2.1875,-7.53125 -1.44002,-1.86664 -3.390435,-2.81248 -5.84375,-2.8125 z m 24.8125,0.375 0,7.59375 7.25,0 c 1.413315,2e-5 2.462898,-0.24332 3.15625,-0.75 0.71998,-0.50665 1.062479,-1.55165 1.0625,-3.125 -2.1e-5,-1.49331 -0.337937,-2.48873 -1.03125,-2.96875 -0.693352,-0.50664 -1.747518,-0.74998 -3.1875,-0.75 l -7.25,0 z m 236,0 0,7.59375 7.25,0 c 1.41332,2e-5 2.4629,-0.24332 3.15625,-0.75 0.71998,-0.50665 1.09373,-1.55165 1.09375,-3.125 -2e-5,-1.49331 -0.36919,-2.48873 -1.0625,-2.96875 -0.69335,-0.50664 -1.74752,-0.74998 -3.1875,-0.75 l -7.25,0 z m -138.5,1.875 -3.8125,11.40625 7.59375,0 -3.78125,-11.40625 z m 58.03125,0 -3.78125,11.40625 7.59375,0 -3.8125,-11.40625 z"
       style="opacity:0.28947371;color:#000000;fill:#000000;fill-opacity:1;fill-rule:nonzero;stroke:none;stroke-width:6.11847019;marker:none;visibility:visible;display:inline;overflow:visible;filter:url(#filter5388);enable-background:accumulate"
       inkscape:connector-curvature="0" />
    <path
       style="color:#000000;fill:#ffffff;fill-opacity:1;fill-rule:nonzero;stroke:none;stroke-width:6.11847019;marker:none;visibility:visible;display:inline;overflow:visible;enable-background:accumulate"
       d="m -219.90625,416.35968 0,55.15625 435.5625,0 0,-55.15625 -435.5625,0 z m 356.40625,13.75 c 3.51998,3e-5 6.42081,0.86503 8.6875,2.625 2.26664,1.76003 3.59539,4.17419 3.96875,7.1875 l -5.65625,0 c -1.06669,-3.11998 -3.39544,-4.68748 -6.96875,-4.6875 -2.53335,2e-5 -4.53334,0.90086 -6,2.6875 -1.44001,1.78669 -2.15626,4.22835 -2.15625,7.375 -1e-5,2.98668 0.76582,5.45501 2.3125,7.375 1.57332,1.92001 3.57332,2.875 6,2.875 0.37332,0 0.80123,-0.045 1.28125,-0.125 0.50665,-0.10666 1.11915,-0.29583 1.8125,-0.5625 0.69331,-0.29333 1.31956,-0.67166 1.90625,-1.125 0.58665,-0.45333 1.10914,-1.07499 1.5625,-1.875 0.45331,-0.82666 0.73706,-1.74124 0.84375,-2.78125 l -6.625,0 0,-5 11.6875,0 0,15.75 -3.625,0 -0.71875,-3.84375 c -1.12002,1.62667 -2.36336,2.81583 -3.75,3.5625 -1.38669,0.74667 -3.05793,1.125 -5.03125,1.125 -3.94668,0 -7.22584,-1.4325 -9.8125,-4.3125 -2.56,-2.87999 -3.84375,-6.54207 -3.84375,-10.96875 0,-4.53331 1.32416,-8.20456 3.9375,-11.03125 2.61333,-2.82664 6.00082,-4.24997 10.1875,-4.25 z m -210.03125,0.0937 c 4.213314,3e-5 7.60081,1.39669 10.1875,4.25 2.586638,2.82669 3.87497,6.57877 3.875,11.21875 -3e-5,4.32001 -1.283778,7.90126 -3.84375,10.78125 -2.533357,2.85333 -5.920853,4.28125 -10.1875,4.28125 -4.240011,0 -7.627508,-1.42792 -10.1875,-4.28125 -2.560003,-2.85333 -3.843752,-6.51999 -3.84375,-11 -2e-6,-4.47998 1.283747,-8.14664 3.84375,-11 2.586659,-2.85331 5.969572,-4.24997 10.15625,-4.25 z m -133.28125,0.46875 6.1875,0 11.53125,19.84375 0,-19.84375 6,0 0,29.15625 -6,0 -11.71875,-20.15625 0,20.15625 -6,0 0,-29.15625 z m 30.15625,0 21.09375,0 0,5 -15.09375,0 0,6.59375 13.96875,0 0,5 -13.96875,0 0,7.5625 15.8125,0 0,5 -21.8125,0 0,-29.15625 z m 24.5625,0 23.375,0 0,5 -8.53125,0 0,24.15625 -6,0 0,-24.15625 -8.84375,0 0,-5 z m 25.40625,0 6.34375,0 4.53125,21.84375 4.5,-21.84375 5.9375,0 4.71875,21.875 4.34375,-21.875 6.375,0 -8.09375,29.15625 -5.375,0 -4.90625,-22.75 -4.75,22.75 -5.40625,0 -8.21875,-29.15625 z m 72,0 15.625,0 c 1.493313,3e-5 2.777062,0.24336 3.84375,0.75 1.09331,0.50669 1.904142,1.17336 2.4375,2 0.559974,0.82669 0.978724,1.67794 1.21875,2.53125 0.239973,0.82669 0.343723,1.68711 0.34375,2.59375 -2.7e-5,3.52002 -1.626275,5.90752 -4.90625,7.1875 0.719978,0.29335 1.24706,0.5321 1.59375,0.71875 0.346643,0.16001 0.684559,0.44376 1.03125,0.84375 0.373309,0.40001 0.612058,0.77376 0.71875,1.09375 0.133308,0.32001 0.268308,0.89668 0.375,1.75 0.133308,0.85334 0.223308,1.70459 0.25,2.53125 0.02664,0.82667 0.03581,2.06084 0.0625,3.6875 -2.6e-5,1.12 0.42789,1.895 1.28125,2.375 l 0,1.09375 -6.4375,0 c -0.373354,-0.69333 -0.616687,-1.36 -0.75,-2 -0.106686,-0.64 -0.15627,-1.64 -0.15625,-3 -2e-5,-0.79999 0.0046,-1.42166 0.03125,-1.875 0.02665,-0.45333 0.03123,-0.87208 0.03125,-1.21875 -2e-5,-1.22666 -0.288353,-2.09166 -0.875,-2.625 -0.586685,-0.55999 -1.537101,-0.84374 -2.84375,-0.84375 l -6.875,0 0,11.5625 -6,0 0,-29.15625 z m 28.8125,0 6,0 0,12.78125 11.40625,-12.78125 7.09375,0 -11.65625,12.5625 12.875,16.59375 -7.15625,0 -9.5625,-12.875 -3,3.125 0,9.75 -6,0 0,-29.15625 z m 29.15625,0 8.96875,0 5.28125,23.1875 5.09375,-23.1875 9.0625,0 0,29.15625 -6,0 0,-22.71875 -5.15625,22.71875 -6,0 -5.25,-22.71875 0,22.71875 -6,0 0,-29.15625 z m 42.3125,0 6.65625,0 10.0625,29.15625 -6.15625,0 -1.90625,-5.875 -10.9375,0 -1.9375,5.875 -6.125,0 10.34375,-29.15625 z m 20.34375,0 6.15625,0 11.5625,19.84375 0,-19.84375 6,0 0,29.15625 -6,0 -11.71875,-20.15625 0,20.15625 -6,0 0,-29.15625 z m 37.71875,0 6.625,0 10.09375,29.15625 -6.15625,0 -1.9375,-5.875 -10.90625,0 -1.96875,5.875 -6.125,0 10.375,-29.15625 z m 51.09375,0 21.09375,0 0,5 -15.09375,0 0,6.59375 13.96875,0 0,5 -13.96875,0 0,7.5625 15.8125,0 0,5 -21.8125,0 0,-29.15625 z m 26.5625,0 15.65625,0 c 1.49331,3e-5 2.77706,0.24336 3.84375,0.75 1.09331,0.50669 1.90414,1.17336 2.4375,2 0.55997,0.82669 0.94747,1.67794 1.1875,2.53125 0.23997,0.82669 0.37497,1.68711 0.375,2.59375 -3e-5,3.52002 -1.65753,5.90752 -4.9375,7.1875 0.71998,0.29335 1.27831,0.5321 1.625,0.71875 0.34664,0.16001 0.68456,0.44376 1.03125,0.84375 0.37331,0.40001 0.61206,0.77376 0.71875,1.09375 0.13331,0.32001 0.23706,0.89668 0.34375,1.75 0.13331,0.85334 0.22331,1.70459 0.25,2.53125 0.0266,0.82667 0.0671,2.06084 0.0937,3.6875 -3e-5,1.12 0.42789,1.895 1.28125,2.375 l 0,1.09375 -6.46875,0 c -0.37335,-0.69333 -0.61669,-1.36 -0.75,-2 -0.10669,-0.64 -0.15627,-1.64 -0.15625,-3 -2e-5,-0.79999 0.005,-1.42166 0.0312,-1.875 0.0266,-0.45333 0.0625,-0.87208 0.0625,-1.21875 -2e-5,-1.22666 -0.3196,-2.09166 -0.90625,-2.625 -0.58669,-0.55999 -1.50585,-0.84374 -2.8125,-0.84375 l -6.90625,0 0,11.5625 -6,0 0,-29.15625 z m -254.8125,4.625 c -2.42668,2e-5 -4.377095,0.94586 -5.84375,2.8125 -1.466675,1.84002 -2.187508,4.2771 -2.1875,7.34375 -8e-6,3.06668 0.720825,5.53959 2.1875,7.40625 1.466655,1.84001 3.41707,2.78125 5.84375,2.78125 2.399982,0 4.345813,-0.94124 5.8125,-2.78125 1.49331,-1.83999 2.218726,-4.23207 2.21875,-7.21875 -2.4e-5,-3.14665 -0.720856,-5.66456 -2.1875,-7.53125 -1.44002,-1.86664 -3.390435,-2.81248 -5.84375,-2.8125 z m 24.8125,0.375 0,7.59375 7.25,0 c 1.413315,2e-5 2.462898,-0.24332 3.15625,-0.75 0.71998,-0.50665 1.062479,-1.55165 1.0625,-3.125 -2.1e-5,-1.49331 -0.337937,-2.48873 -1.03125,-2.96875 -0.693352,-0.50664 -1.747518,-0.74998 -3.1875,-0.75 l -7.25,0 z m 236,0 0,7.59375 7.25,0 c 1.41332,2e-5 2.4629,-0.24332 3.15625,-0.75 0.71998,-0.50665 1.09373,-1.55165 1.09375,-3.125 -2e-5,-1.49331 -0.36919,-2.48873 -1.0625,-2.96875 -0.69335,-0.50664 -1.74752,-0.74998 -3.1875,-0.75 l -7.25,0 z m -138.5,1.875 -3.8125,11.40625 7.59375,0 -3.78125,-11.40625 z m 58.03125,0 -3.78125,11.40625 7.59375,0 -3.8125,-11.40625 z"
       id="rect5356"
       inkscape:connector-curvature="0" />
  </g>
</svg>
